<?xml version="1.0" standalone="no"?>
<!DOCTYPE svg PUBLIC "-//W3C//DTD SVG 1.1//EN" "http://www.w3.org/Graphics/SVG/1.1/DTD/svg11.dtd" >
<svg>
<metadata>
Created by FontForge 20090914 at Mon Feb  8 11:05:06 2016
 By www-data
Copyright (c) 2006-2008 by Alexey Kryukov
</metadata>
<defs>
<font id="OldStandardTT-Italic" horiz-adv-x="440" >
  <font-face 
    font-family="Old Standard TT"
    font-weight="400"
    font-style="italic"
    font-stretch="normal"
    units-per-em="1000"
    panose-1="2 4 5 3 5 5 5 9 3 3"
    ascent="762"
    descent="-238"
    x-height="455.994"
    cap-height="712"
    bbox="-97 -282 1180 948.001"
    underline-thickness="40"
    underline-position="-158"
    slope="-15.2"
    unicode-range="U+0020-U+F6CE"
  />
<missing-glyph horiz-adv-x="1000" 
 />
    <glyph glyph-name=".notdef" horiz-adv-x="1000" 
 />
    <glyph glyph-name="space" unicode=" " horiz-adv-x="280" 
 />
    <glyph glyph-name="exclam" unicode="!" horiz-adv-x="280" 
d="M56 50c0 18 5.83301 32.833 17.5 44.5s26.5 17.5 44.5 17.5s32.833 -5.83301 44.5 -17.5s17.5 -26.5 17.5 -44.5s-5.83301 -32.833 -17.5 -44.5s-26.5 -17.5 -44.5 -17.5s-32.833 5.83301 -44.5 17.5s-17.5 26.5 -17.5 44.5zM130 158l36.001 203c8 46 14.333 90 19 132
c6 50 12.333 93.667 19 131c9.33301 46.667 32.666 70 69.999 70c17.333 0 30.333 -6.16699 39 -18.5s13 -29.5 13 -51.5c0 -25.333 -19.333 -82 -58 -170c-21.333 -49.333 -36 -85.333 -44 -108l-70 -188h-24z" />
    <glyph glyph-name="quotedbl" unicode="&#x22;" horiz-adv-x="394" 
d="M172 520l20 146c5.33301 42.667 22 64 50 64c16 0 24 -8.66699 24 -26c0 -8 -2.66699 -19 -8 -33l-62 -151h-24zM326 520l20 146c5.33301 42.667 22 64 50 64c16 0 24 -8.66699 24 -26c0 -8 -2.66699 -19 -8 -33l-62 -151h-24z" />
    <glyph glyph-name="numbersign" unicode="#" horiz-adv-x="684" 
d="M56 196l11 40h121l94 214h-157l11 40h163l82 194h44l-83 -194h146l83 194h44l-83 -194h133l-11 -40h-138l-92 -214h169l-11 -40h-177l-83 -196h-44l83 196h-145l-84 -196h-44l84 196h-116zM232 236h148l92 214h-146z" />
    <glyph glyph-name="dollar" unicode="$" horiz-adv-x="580" 
d="M50 142c0 28 7.66797 52.6719 23.001 74.0049s34.333 32 57 32c15.333 0 28.166 -4 38.499 -12s15.5 -19.667 15.5 -35c0 -12.667 -4.66699 -23.834 -14 -33.501s-23 -14.5 -41 -14.5c-11.333 0 -19.666 -5 -24.999 -15c-4 -6 -6 -14.667 -6 -26
c0 -18.667 6.66699 -35.834 20 -51.501s31.666 -27.5 54.999 -35.5l87 323l-27 15c-15.333 8.66699 -27.666 17.334 -36.999 26.001s-17.666 22 -24.999 40s-11 39.333 -11 64c0 27.333 5.66699 53 17 77s26.666 44 45.999 60s40 29.333 62 40s45 18.667 69 24l18 68h32
l-17 -63c4.66699 0.666992 11 1 19 1c13.333 0 25.333 -1 36 -3l18 65h32l-19 -71c36.667 -11.333 66 -30.166 88 -56.499s33 -53.833 33 -82.5c0 -34.667 -8 -61.834 -24 -81.501s-37.333 -29.5 -64 -29.5c-11.333 0 -22.166 3.33301 -32.499 10s-15.5 17 -15.5 31
c0 13.333 4.33301 24.666 13 33.999s19.667 15.333 33 18c16 3.33301 27.333 7.33301 34 12c8 5.33301 12 15.333 12 30c0 15.333 -7.66699 31 -23 47s-36.333 28 -63 36l-78 -289l33 -19c11.333 -6 20.666 -11.667 27.999 -17s15.333 -12.333 24 -21s15.667 -18 21 -28
s9.66602 -22.333 12.999 -37s5 -31.334 5 -50.001c0 -49.333 -21.167 -94 -63.5 -134s-96.833 -65.333 -163.5 -76l-19 -68h-32l18 65c-6 -0.666992 -14.667 -1 -26 -1c-8 0 -18 0.666992 -30 2l-18 -66h-32l20 73c-36 11.333 -64 31.166 -84 59.499s-30 58.166 -30 89.499z
M216.001 529.005c0 -40.667 13.333 -68.668 40 -84.001l26 -15l62 230c-16 -4 -31.167 -9.66699 -45.5 -17s-28 -16.166 -41 -26.499s-23.167 -23 -30.5 -38s-11 -31.5 -11 -49.5zM203.001 18.0039c12 -1.33301 21.667 -2 29 -2c12 0 20.667 0.333008 26 1l78 287l-48 28z
M310.001 414.004l47.999 -28l76 280c-14.667 1.33301 -26 2 -34 2c-9.33301 0 -16.666 -0.333008 -21.999 -1zM291 21.0039c46 8.66699 82 26.668 108 54.001s39 60.333 39 99c0 16.667 -1.5 31.167 -4.5 43.5s-7.5 22.166 -13.5 29.499s-11.167 13 -15.5 17
s-10.5 8 -18.5 12l-22 13z" />
    <glyph glyph-name="percent" unicode="%" horiz-adv-x="860" 
d="M572 106c0 -26.667 5.66699 -47 17 -61s24.333 -21 39 -21c38.667 0 71.334 21.333 98.001 64s40 92.667 40 150c0 26.667 -5.66699 47 -17 61s-24.333 21 -39 21c-38.667 0 -71.334 -21.333 -98.001 -64s-40 -92.667 -40 -150zM500 106c0 19.333 3 39.833 9 61.5
s14.667 42.834 26 63.501s24.666 39.5 39.999 56.5s33.666 30.667 54.999 41s43.333 15.5 66 15.5c29.333 0 53 -11.333 71 -34s27 -52 27 -88c0 -19.333 -3 -39.833 -9 -61.5s-14.667 -42.834 -26 -63.501s-24.666 -39.5 -39.999 -56.5s-33.666 -30.667 -54.999 -41
s-43.333 -15.5 -66 -15.5c-29.333 0 -53 11.333 -71 34s-27 52 -27 88zM128 462c0 19.333 3.00391 39.8301 9.00391 61.4971s14.667 42.834 26 63.501s24.666 39.5 39.999 56.5s33.666 30.667 54.999 41s43.333 15.5 66 15.5c24 0 44.667 -8.16699 62 -24.5
s28.333 -38.166 33 -65.499c4.66699 -10 16.167 -17.833 34.5 -23.5s35.166 -8.5 50.499 -8.5c37.333 0 75.833 10.333 115.5 31s72.5 45.334 98.5 74.001l32 41l24 -24l-586 -724l-24 24l480 593l-5 2c-21.333 -12.667 -44.166 -22.667 -68.499 -30s-46.5 -11 -66.5 -11
c-29.333 0 -56.666 6 -81.999 18c-0.666992 -24 -5.83398 -49.5 -15.501 -76.5s-22.834 -52 -39.501 -75s-37.334 -42.167 -62.001 -57.5s-51 -23 -79 -23c-29.333 0 -53 11.333 -71 34s-27 52 -27 88zM200.004 461.997c0 -26.667 5.66699 -47.001 17 -61.001
s24.333 -21 39 -21c25.333 0 48.666 9.66699 69.999 29s37.833 44.833 49.5 76.5s17.834 65.834 18.501 102.501c-13.333 9.33301 -23.833 20 -31.5 32s-11.5 22.667 -11.5 32s2 16 6 20c-5.33301 2.66699 -11.666 4 -18.999 4c-38.667 0 -71.334 -21.333 -98.001 -64
s-40 -92.667 -40 -150z" />
    <glyph glyph-name="ampersand" unicode="&#x26;" horiz-adv-x="740" 
d="M56 129c0 30.667 6.33594 60.3379 19.0029 89.0049s28.334 53.167 47.001 73.5s39.667 39.166 63 56.499s44.666 30.833 63.999 40.5s36.666 17.167 51.999 22.5l58 21c3.33301 32 10 63.667 20 95s23 60.166 39 86.499s36 47.666 60 63.999s49.333 24.5 76 24.5
c16 0 29.667 -3.16699 41 -9.5s19.666 -14.333 24.999 -24s9.16602 -19.167 11.499 -28.5s3.5 -18.666 3.5 -27.999c0 -18.667 -3.66699 -36.167 -11 -52.5s-16.166 -29.833 -26.499 -40.5s-22.833 -20.667 -37.5 -30s-27.334 -16.333 -38.001 -21s-22 -9 -34 -13l-59 -21
v-265l175 232c29.333 38 58.666 57 87.999 57c21.333 0 37.333 -6.5 48 -19.5s16 -29.167 16 -48.5c0 -12 -3.66699 -23.833 -11 -35.5s-19 -17.5 -35 -17.5c-8 0 -15.333 2.16699 -22 6.5s-10 12.166 -10 23.499c0 10.667 4.33301 20.334 13 29.001
c7.33301 7.33301 11 14 11 20c0 4 -1.83301 7.66699 -5.5 11s-8.5 5 -14.5 5c-6.66699 0 -13 -2 -19 -6s-11.333 -8.66699 -16 -14l-21 -24l-196 -248v-24.5c0 -5.66699 0.333008 -13.667 1 -24s1.66699 -18.5 3 -24.5s3.33301 -13 6 -21s6 -14.167 10 -18.5
s8.83301 -8 14.5 -11s12.167 -4.5 19.5 -4.5c14.667 0 31.667 7.66699 51 23s37.666 34.166 54.999 56.499s32.333 43 45 62s22.334 35.167 29.001 48.5l18 -10l-17 -32.5c-6 -11 -14.333 -25.333 -25 -43s-22 -33.667 -34 -48s-25 -28.333 -39 -42s-29 -24.5 -45 -32.5
s-32 -12 -48 -12c-17.333 0 -32.666 2.5 -45.999 7.5s-23.833 12.167 -31.5 21.5s-13.667 18.666 -18 27.999s-8.16602 20.333 -11.499 33c-11.333 -12 -21.5 -22 -30.5 -30s-20.667 -17.333 -35 -28s-29.833 -18.667 -46.5 -24s-34 -8 -52 -8
c-42.667 0 -77.834 12.667 -105.501 38s-41.5 61.666 -41.5 108.999zM429.003 456.004l49.001 18.002c13.333 4 26 9.16699 38 15.5s24.833 14.833 38.5 25.5s24.5 24.167 32.5 40.5s12 34.833 12 55.5c0 8.66699 -1 17 -3 25s-6.83301 16 -14.5 24s-17.5 12 -29.5 12
c-9.33301 0 -19.333 -2.16699 -30 -6.5s-21.667 -11.833 -33 -22.5s-21.333 -23.834 -30 -39.501s-15.834 -36.334 -21.501 -62.001s-8.5 -54.167 -8.5 -85.5zM152.004 124.006c0 -36.667 6.33203 -64.502 18.999 -83.502s30.667 -28.5 54 -28.5c14 0 27.667 2.33301 41 7
s26 11.667 38 21s21.833 17.833 29.5 25.5s16.834 17.5 27.501 29.5c-2.66699 8 -4 20 -4 36v275l-36 -13c-53.333 -19.333 -94.833 -53.166 -124.5 -101.499s-44.5 -104.166 -44.5 -167.499z" />
    <glyph glyph-name="quotesingle" unicode="'" horiz-adv-x="240" 
d="M172 520l20 146c5.33301 42.667 22 64 50 64c16 0 24 -8.66699 24 -26c0 -8 -2.66699 -19 -8 -33l-62 -151h-24z" />
    <glyph glyph-name="parenleft" unicode="(" horiz-adv-x="370" 
d="M84 92c0 62 9.16992 124.501 27.5029 187.501s43.5 121.667 75.5 176s68.667 104.833 110 151.5s85.666 87.667 132.999 123l24 -24c-40.667 -33.333 -77.834 -68.333 -111.501 -105s-61.5 -71.334 -83.5 -104.001s-41.333 -66.167 -58 -100.5s-29.667 -65.5 -39 -93.5
s-16.833 -56.167 -22.5 -84.5s-9.33398 -52 -11.001 -71s-2.5 -37.5 -2.5 -55.5c0 -48 8 -95.333 24 -142s38 -88 66 -124l-32 -24c-28.667 34 -52.5 77.333 -71.5 130s-28.5 106 -28.5 160z" />
    <glyph glyph-name="parenright" unicode=")" horiz-adv-x="370" 
d="M-62 -174c40.667 33.333 77.8311 68.332 111.498 104.999s61.5 71.334 83.5 104.001s41.333 66.167 58 100.5s29.667 65.5 39 93.5s16.833 56.167 22.5 84.5s9.33398 52 11.001 71s2.5 37.5 2.5 55.5c0 48 -8 95.333 -24 142s-38 88 -66 124l32 24
c28.667 -34 52.5 -77.333 71.5 -130s28.5 -106 28.5 -160c0 -62 -9.16699 -124.5 -27.5 -187.5s-43.5 -121.667 -75.5 -176s-68.667 -104.833 -110 -151.5s-85.666 -87.667 -132.999 -123z" />
    <glyph glyph-name="asterisk" unicode="*" horiz-adv-x="580" 
d="M162 411c0 25.333 22.333 41 67 47c23.333 2.66699 48 11.334 74 26.001l5 4c3.33301 2.66699 5 5 5 7s-1.66699 4.33301 -5 7l-5 4c-26 14.667 -50.667 23.334 -74 26.001c-44.667 6 -67 21.667 -67 47c0 10 3.33301 18.333 10 25c6.66699 8 15.667 12 27 12
c18 0 36.667 -13 56 -39c12.667 -16.667 31.334 -33 56.001 -49c6 -4 10.667 -6 14 -6c5.33301 0 8 5 8 15c0 27.333 -4.66699 53 -14 77c-8 18.667 -12 33 -12 43c0 12.667 3.33301 23 10 31c7.33301 8 16.666 12 27.999 12s20.666 -4 27.999 -12
c6.66699 -8 10 -18.333 10 -31c0 -10 -4 -24.333 -12 -43c-9.33301 -24 -14 -49.667 -14 -77c0 -10 2.66699 -15 8 -15c3.33301 0 8 2 14 6c24.667 16 43.334 32.333 56.001 49c19.333 26 38 39 56 39c11.333 0 20.333 -4 27 -12c6.66699 -6.66699 10 -15 10 -25
c0 -25.333 -22.333 -41 -67 -47c-23.333 -2.66699 -48 -11.334 -74 -26.001l-5 -4c-3.33301 -2.66699 -5 -5 -5 -7s1.66699 -4.33301 5 -7l5 -4c26 -14.667 50.667 -23.334 74 -26.001c44.667 -6 67 -21.667 67 -47c0 -10 -3.33301 -18.333 -10 -25
c-6.66699 -8 -15.667 -12 -27 -12c-18 0 -36.667 13 -56 39c-12.667 16.667 -31.334 33 -56.001 49c-6 4 -10.667 6 -14 6c-5.33301 0 -8 -5 -8 -15c0 -27.333 4.66699 -53 14 -77c8 -18.667 12 -33 12 -43c0 -12.667 -3.33301 -23 -10 -31
c-7.33301 -8 -16.666 -12 -27.999 -12s-20.666 4 -27.999 12c-6.66699 8 -10 18.333 -10 31c0 10 4 24.333 12 43c9.33301 24 14 49.667 14 77c0 10 -2.66699 15 -8 15c-3.33301 0 -8 -2 -14 -6c-24.667 -16 -43.334 -32.333 -56.001 -49c-19.333 -26 -38 -39 -56 -39
c-11.333 0 -20.333 4 -27 12c-6.66699 6.66699 -10 15 -10 25z" />
    <glyph glyph-name="plus" unicode="+" horiz-adv-x="940" 
d="M56 244v40h400v400h44v-400h400v-40h-400v-400h-44v400h-400z" />
    <glyph glyph-name="comma" unicode="," horiz-adv-x="280" 
d="M22 -152c14.667 7.33301 28.334 15.499 41.001 24.499s25.667 19.667 39 32s23.833 26.333 31.5 42s11.5 31.834 11.5 48.501c0 10 -3 17.667 -9 23c-5.33301 4.66699 -15 7 -29 7s-25.333 5.16699 -34 15.5s-13 22.5 -13 36.5c0 19.333 5.66699 34.666 17 45.999
s26 17 44 17c20.667 0 36.667 -8.66699 48 -26s17 -35.666 17 -54.999c0 -27.333 -4 -53 -12 -77s-17.833 -44 -29.5 -60s-25.167 -30.667 -40.5 -44s-28.833 -23.333 -40.5 -30s-22.834 -12 -33.501 -16z" />
    <glyph glyph-name="hyphen" unicode="-" horiz-adv-x="370" 
d="M56 196c0 23.333 6 43.166 18 59.499s28.667 24.5 50 24.5h176c10 0 17.167 2.16699 21.5 6.5s6.5 11.5 6.5 21.5h18c0 -23.333 -6 -43.166 -18 -59.499s-28.667 -24.5 -50 -24.5h-176c-10 0 -17.167 -2.16699 -21.5 -6.5s-6.5 -11.5 -6.5 -21.5h-18z" />
    <glyph glyph-name="period" unicode="." horiz-adv-x="280" 
d="M60 50c0 18 5.83301 32.833 17.5 44.5s26.5 17.5 44.5 17.5s32.833 -5.83301 44.5 -17.5s17.5 -26.5 17.5 -44.5s-5.83301 -32.833 -17.5 -44.5s-26.5 -17.5 -44.5 -17.5s-32.833 5.83301 -44.5 17.5s-17.5 26.5 -17.5 44.5z" />
    <glyph glyph-name="slash" unicode="/" 
d="M68 -198l298 928h40l-298 -928h-40z" />
    <glyph glyph-name="zero" unicode="0" horiz-adv-x="580" 
d="M152 143c0 -84.667 24.666 -126.998 73.999 -126.998c22.667 0 43.667 5.66699 63 17s36.5 28 51.5 50s28 45 39 69s21.833 52.667 32.5 86c44 132 66 232.667 66 302c0 85.333 -24.667 128 -74 128c-22 0 -42.5 -5.66699 -61.5 -17s-36.167 -27.833 -51.5 -49.5
s-28.666 -44.834 -39.999 -69.501s-22.333 -53.334 -33 -86.001c-44 -132 -66 -233 -66 -303zM71.999 256.002c0 33.333 3.66699 67.5 11 102.5s17.666 68.833 30.999 101.5s30 63.5 50 92.5s41.833 54.5 65.5 76.5s50.334 39.333 80.001 52s60.5 19 92.5 19
c27.333 0 51.166 -6.66699 71.499 -20s36.5 -32.333 48.5 -57s21 -53.167 27 -85.5s9 -68.833 9 -109.5c0 -33.333 -3.66699 -67.5 -11 -102.5s-17.666 -68.833 -30.999 -101.5s-30 -63.5 -50 -92.5s-41.833 -54.5 -65.5 -76.5s-50.334 -39.333 -80.001 -52
s-60.5 -19 -92.5 -19c-27.333 0 -51.166 6.66699 -71.499 20s-36.5 32.333 -48.5 57s-21 53.167 -27 85.5s-9 68.833 -9 109.5z" />
    <glyph glyph-name="one" unicode="1" horiz-adv-x="580" 
d="M54 0l8.00098 32.0039h93c10 0 18 2 24 6s10 10.667 12 20l137 505c-6.66699 -4.66699 -15.334 -9.33398 -26.001 -14.001s-20.667 -8.33398 -30 -11.001s-21.166 -6.33398 -35.499 -11.001s-25.166 -8.33398 -32.499 -11.001l-7 20l44 14
c12.667 4 28.334 10.333 47.001 19s35.167 18 49.5 28s29.166 22.5 44.499 37.5s28.333 31.5 39 49.5h31l-170 -626c-2.66699 -9.33301 -2.33398 -16 0.999023 -20s9.66602 -6 18.999 -6h98l-8 -32h-338z" />
    <glyph glyph-name="two" unicode="2" horiz-adv-x="580" 
d="M32 26c0 42.667 11.9971 82.1709 35.9971 118.504s59.333 66.5 106 90.5l136 80c42.667 24.667 80 57.667 112 99s48 83.333 48 126c0 12 -1 23.667 -3 35s-5.83301 23 -11.5 35s-12.667 22 -21 30s-19.5 14.667 -33.5 20s-30 8 -48 8
c-24.667 0 -49.5 -7.16699 -74.5 -21.5s-45.167 -31.5 -60.5 -51.5s-23 -38.333 -23 -55c0 -22 5.66699 -33 17 -33c4 0 9.33301 2 16 6c9.33301 4.66699 17.333 7 24 7c14.667 0 25.667 -4.33301 33 -13s11 -19.667 11 -33c0 -17.333 -6.33301 -32.333 -19 -45
s-29 -19 -49 -19c-18 0 -34.5 8.16699 -49.5 24.5s-22.5 37.833 -22.5 64.5c0 28.667 6.16699 55.667 18.5 81s28.333 46.666 48 63.999s41.834 31 66.501 41s49 15 73 15c62.667 0 112.334 -16.5 149.001 -49.5s55 -75.833 55 -128.5c0 -18.667 -3 -36.667 -9 -54
s-13.5 -32.5 -22.5 -45.5s-21 -26.333 -36 -40s-28.5 -24.834 -40.5 -33.501s-27.167 -18 -45.5 -28s-32.333 -17.333 -42 -22l-39.5 -19l-115 -53c-32 -15.333 -56.667 -30.666 -74 -45.999s-26 -28 -26 -38c18.667 0 45.667 -7.66699 81 -23c54 -22 98 -33 132 -33
c26 0 49.667 5.83301 71 17.5s36.333 28.5 45 50.5l19 46h19c-3.33301 -19.333 -8 -38.333 -14 -57s-14 -38 -24 -58s-21.333 -37.333 -34 -52s-28.167 -26.834 -46.5 -36.501s-38.166 -14.5 -59.499 -14.5c-14 0 -27.333 2.16699 -40 6.5s-24 10.833 -34 19.5
s-18.333 16.667 -25 24s-14.334 16.666 -23.001 27.999c-13.333 18 -25.166 31.333 -35.499 40s-21.5 13 -33.5 13c-14 0 -24.167 -3 -30.5 -9s-9.5 -17.667 -9.5 -35c0 -8.66699 2.33301 -14.667 7 -18c11.333 -10.667 17 -20.334 17 -29.001s-2.33301 -16 -7 -22
s-12.334 -9 -23.001 -9c-11.333 0 -20.166 3.16699 -26.499 9.5s-9.5 14.5 -9.5 24.5z" />
    <glyph glyph-name="three" unicode="3" horiz-adv-x="580" 
d="M52 120c0 32 9.99707 56.668 29.9971 74.001s41.667 26 65 26c18 0 31.333 -5.5 40 -16.5s13 -23.5 13 -37.5c0 -14.667 -4.66699 -26.667 -14 -36s-21.333 -14 -36 -14c-8 0 -14.667 1.66699 -20 5s-11.333 5 -18 5c-5.33301 0 -9.66602 -2 -12.999 -6s-5 -9 -5 -15
c0 -16.667 4 -31 12 -43s18.333 -21.167 31 -27.5s25.667 -11 39 -14s26.666 -4.5 39.999 -4.5c22.667 0 44.334 6 65.001 18s39 29.333 55 52c18.667 26.667 32.667 58.5 42 95.5s14 69.167 14 96.5c0 9.33301 -0.166992 16.666 -0.5 21.999
s-1.66602 12.666 -3.99902 21.999s-5.83301 16.833 -10.5 22.5s-12 10.667 -22 15s-21.667 6.5 -35 6.5c-14.667 0 -27.667 -5.33301 -39 -16c-16 -14.667 -31.333 -22 -46 -22c-11.333 0 -20 2.33301 -26 7s-9 11 -9 19c0 9.33301 3.66699 17.833 11 25.5s17 11.5 29 11.5
h103c19.333 0 38.5 7.16699 57.5 21.5s34.833 32.166 47.5 53.499c16 27.333 24 63.666 24 108.999c0 27.333 -8.33301 49.666 -25 66.999s-42 26 -76 26s-65.5 -8.33301 -94.5 -25s-43.5 -36.667 -43.5 -60c0 -14 3.66699 -21 11 -21c2 0 5 1 9 3c6 2 11.333 3 16 3
c23.333 0 35 -12.667 35 -38c0 -14.667 -4.66699 -27.167 -14 -37.5s-23.333 -15.5 -42 -15.5s-33.667 6.83301 -45 20.5s-17 30.5 -17 50.5c0 30.667 9.66699 57.834 29 81.501s43.333 41.334 72 53.001s58.667 17.5 90 17.5c53.333 0 96.833 -15.667 130.5 -47
s50.5 -71 50.5 -119c0 -17.333 -3.66699 -34.166 -11 -50.499s-16.666 -30.333 -27.999 -42s-24 -22.167 -38 -31.5s-28 -16.833 -42 -22.5s-27.667 -9.5 -41 -11.5l-1 -7c10 -4 20 -9.5 30 -16.5s19.667 -16.167 29 -27.5s17 -25.666 23 -42.999s9 -36 9 -56
c0 -36 -9 -70.333 -27 -103s-40.667 -59.667 -68 -81c-22.667 -17.333 -49.834 -31.333 -81.501 -42s-64.5 -16 -98.5 -16c-18 0 -36.167 3 -54.5 9s-35.666 14.333 -51.999 25s-29.5 25 -39.5 43s-15 37.667 -15 59z" />
    <glyph glyph-name="four" unicode="4" horiz-adv-x="580" 
d="M64 208l9.99902 36l216 194c36.667 36 72.667 80 108 132s56.666 93.333 63.999 124h82c-5.33301 -25.333 -18.666 -52.333 -39.999 -81s-53 -63 -95 -103l-293 -266h187l44 152c26 18 49 39.5 69 64.5s35 49.833 45 74.5h17l-80 -291h158l-10 -36h-157l-40 -150
c-2 -9.33301 -1.5 -16 1.5 -20s9.5 -6 19.5 -6h93l-9 -32h-337l9 32h93c18.667 0 30.334 8.66699 35.001 26l40 150h-230z" />
    <glyph glyph-name="five" unicode="5" horiz-adv-x="580" 
d="M62 114c0 26.667 7.66797 48.834 23.001 66.501s33.666 26.5 54.999 26.5c18.667 0 33.334 -4.83301 44.001 -14.5s16 -23.834 16 -42.501c0 -13.333 -4.66699 -24.666 -14 -33.999s-21.666 -14 -36.999 -14c-0.666992 0 -3.66699 0.166992 -9 0.5
s-9.83301 0.333008 -13.5 0s-7.16699 -1.5 -10.5 -3.5c-6.66699 -4.66699 -10 -10.334 -10 -17.001c0 -19.333 10.333 -35.166 31 -47.499s47 -18.5 79 -18.5c65.333 0 116.666 36.667 153.999 110c12.667 25.333 23.167 55.666 31.5 90.999s12.5 67 12.5 95
c0 70.667 -33.667 106 -101 106c-22 0 -44.333 -8 -67 -24s-39.667 -41.667 -51 -77c-2.66699 -8.66699 -6.5 -16 -11.5 -22s-10.833 -9 -17.5 -9c-19.333 0 -29 8 -29 24c0 16.667 10 35.667 30 57c18 19.333 29.667 37.666 35 54.999l50 163c9.33301 30.667 14 55 14 73
c0 8 -1 16.333 -3 25l24 17c43.333 -49.333 84.333 -74 123 -74c62 0 111.667 24.667 149 74l15 -15c-10.667 -16 -20 -29.167 -28 -39.5s-19.5 -22.5 -34.5 -36.5s-32.667 -24.667 -53 -32s-42.833 -11 -67.5 -11c-36 0 -69 14.333 -99 43l-56 -186l4 -3
c9.33301 8 23.333 15.333 42 22s34.667 10 48 10c56 0 99.667 -14.667 131 -44s47 -70.666 47 -123.999c0 -34.667 -7.66699 -72 -23 -112s-37.333 -74.667 -66 -104c-24.667 -26 -54.334 -46.5 -89.001 -61.5s-70.667 -22.5 -108 -22.5c-48 0 -86.667 12 -116 36
s-44 55.333 -44 94z" />
    <glyph glyph-name="six" unicode="6" horiz-adv-x="580" 
d="M178 120c0 -30.667 7.5 -55.667 22.5 -75s34.833 -29 59.5 -29c24 0 46.167 7.66699 66.5 23s37.5 36 51.5 62c29.333 54 44 115 44 183c0 30.667 -6.66699 56 -20 76s-33.333 30 -60 30c-56 0 -102.333 -41.667 -139 -125c-16.667 -36.667 -25 -85 -25 -145zM90 212
c0 48 8.66699 102.164 26 162.497s41.666 115.5 72.999 165.5c34 54.667 72.667 95 116 121s85.333 39 126 39c32.667 0 60.667 -9.66699 84 -29c22 -18.667 33 -44 33 -76c0 -27.333 -7 -49.666 -21 -66.999s-30.667 -26 -50 -26c-14 0 -25.5 3.83301 -34.5 11.5
s-13.5 18.167 -13.5 31.5c0 12.667 3 23.334 9 32.001s12 14.334 18 17.001s12.333 4.66699 19 6c16.667 4 25 12.333 25 25c0 11.333 -5.66699 21.333 -17 30c-12 8.66699 -30 13 -54 13c-31.333 0 -63 -14.333 -95 -43s-58.667 -65.667 -80 -111
c-26 -54.667 -43 -110.334 -51 -167.001l7 -5c17.333 26.667 39 47.334 65 62.001s52.667 22 80 22c48.667 0 86.5 -15.5 113.5 -46.5s40.5 -70.5 40.5 -118.5c0 -34 -7.5 -69 -22.5 -105s-34.5 -67.333 -58.5 -94c-8 -8 -16.667 -16 -26 -24s-21.333 -16.333 -36 -25
s-32 -15.667 -52 -21s-40.667 -8 -62 -8c-47.333 0 -86.166 19 -116.499 57s-45.5 95 -45.5 171z" />
    <glyph glyph-name="seven" unicode="7" horiz-adv-x="580" 
d="M144 54c0 18.667 5.66699 40.1699 17 64.5029s27.666 50.666 48.999 78.999s39.333 51.166 54 68.499l56 64l188 208l-4 4c-12 -8 -25.333 -12 -40 -12s-28.667 2.5 -42 7.5s-23.666 10.167 -30.999 15.5s-17 13 -29 23c-9.33301 8 -16.833 14.167 -22.5 18.5
s-13 8.33301 -22 12s-17.833 5.5 -26.5 5.5c-20.667 0 -38.167 -7.66699 -52.5 -23s-30.166 -40 -47.499 -74l-21 -41h-19l68 228h19c-4.66699 -13.333 -5.83398 -26.333 -3.50098 -39s7.83301 -19 16.5 -19c16.667 15.333 33 27.166 49 35.499s34 12.5 54 12.5
c29.333 0 58.666 -19.667 87.999 -59c12.667 -17.333 24.5 -30.5 35.5 -39.5s23.167 -13.5 36.5 -13.5c14.667 0 25 2.66699 31 8s9 11.333 9 18c0 8.66699 -4 15 -12 19c-9.33301 6.66699 -14 15.334 -14 26.001c0 10 2.83301 17.5 8.5 22.5s11.834 7.5 18.501 7.5
c24.667 0 37 -16 37 -48c0 -12.667 -4 -26.667 -12 -42s-16.667 -28.666 -26 -39.999l-42 -50c-72 -83.333 -121 -142.333 -147 -177s-47 -71.334 -63 -110.001c-12 -29.333 -20 -55.333 -24 -78s-6 -47.334 -6 -74.001c0 -24.667 -5.83301 -44 -17.5 -58
s-27.167 -21 -46.5 -21c-20 0 -35.667 6 -47 18s-17 29.667 -17 53z" />
    <glyph glyph-name="eight" unicode="8" horiz-adv-x="580" 
d="M254 526c0 -20 2.66699 -35.998 8 -47.998s14.666 -23.667 27.999 -35l91 -80c42 6 76.333 24.833 103 56.5s40 65.834 40 102.501c0 46.667 -11.667 82.667 -35 108s-57.666 38 -102.999 38c-10 0 -20.5 -1.33301 -31.5 -4s-22.5 -7.33398 -34.5 -14.001
s-22.833 -15.334 -32.5 -26.001s-17.667 -24.334 -24 -41.001s-9.5 -35.667 -9.5 -57zM68 161.002c0 34 8.33496 64.9971 25.002 92.9971s37 49.333 61 64c16.667 10.667 31.5 18.334 44.5 23.001s30.5 9 52.5 13c-18 12 -33.667 31 -47 57s-20 54.667 -20 86
c0 52.667 17 98.667 51 138c19.333 22 43.5 38.333 72.5 49s56.5 16 82.5 16c57.333 0 103 -13.667 137 -41s51 -65.666 51 -114.999c0 -28 -5.66699 -55.5 -17 -82.5s-27.333 -48.167 -48 -63.5c-15.333 -12 -33.5 -23 -54.5 -33s-39.167 -16 -54.5 -18
c28 -24 48.667 -48.167 62 -72.5s20 -51.833 20 -82.5c0 -61.333 -22 -111.666 -66 -150.999c-42.667 -38 -100 -57 -172 -57c-20.667 0 -41.334 3.66699 -62.001 11s-39.834 18 -57.501 32s-32.167 32.667 -43.5 56s-17 49.333 -17 78zM112.002 161.999
c0 -46 12.332 -81.833 36.999 -107.5s61.667 -38.5 111 -38.5c42.667 0 79 12.333 109 37s45 54.334 45 89.001c0 48.667 -12.667 84 -38 106l-105 88c-15.333 -3.33301 -27.5 -6.33301 -36.5 -9s-20 -7.5 -33 -14.5s-24.833 -15.5 -35.5 -25.5
c-15.333 -15.333 -28.166 -33.833 -38.499 -55.5s-15.5 -44.834 -15.5 -69.501z" />
    <glyph glyph-name="nine" unicode="9" horiz-adv-x="580" 
d="M214 400c0 -30.667 6.66699 -56 20 -76s33.333 -30 60 -30c56 0 102.333 41.667 139 125c16.667 36.667 25 85 25 145c0 30.667 -7.5 55.667 -22.5 75s-34.833 29 -59.5 29c-24 0 -46.167 -7.66699 -66.5 -23s-37.5 -36 -51.5 -62c-29.333 -54 -44 -115 -44 -183zM88 89
c0 27.333 7 49.6689 21 67.002s30.667 26 50 26c14 0 25.5 -3.83301 34.5 -11.5s13.5 -18.167 13.5 -31.5c0 -12.667 -3 -23.334 -9 -32.001s-12 -14.334 -18 -17.001s-12.333 -4.66699 -19 -6c-16.667 -4 -25 -12.333 -25 -25c0 -11.333 5.66699 -21.333 17 -30
c12 -8.66699 30 -13 54 -13c31.333 0 63 14.333 95 43s58.667 65.667 80 111c26 54.667 43 110.334 51 167.001l-7 5c-17.333 -26.667 -39 -47.334 -65 -62.001s-52.667 -22 -80 -22c-48.667 0 -86.5 15.5 -113.5 46.5s-40.5 70.5 -40.5 118.5c0 34 7.5 69 22.5 105
s34.5 67.333 58.5 94c8 8 16.667 16 26 24s21.333 16.333 36 25s32 15.667 52 21s40.667 8 62 8c47.333 0 86.166 -19 116.499 -57s45.5 -95 45.5 -171c0 -48 -8.66699 -102.167 -26 -162.5s-41.666 -115.5 -72.999 -165.5c-34 -54.667 -72.667 -95 -116 -121
s-85.333 -39 -126 -39c-32.667 0 -60.667 9.66699 -84 29c-22 18.667 -33 44 -33 76z" />
    <glyph glyph-name="colon" unicode=":" horiz-adv-x="280" 
d="M60 50c0 18 5.83301 32.833 17.5 44.5s26.5 17.5 44.5 17.5s32.833 -5.83301 44.5 -17.5s17.5 -26.5 17.5 -44.5s-5.83301 -32.833 -17.5 -44.5s-26.5 -17.5 -44.5 -17.5s-32.833 5.83301 -44.5 17.5s-17.5 26.5 -17.5 44.5zM152 394c0 18 5.83301 32.833 17.5 44.5
s26.5 17.5 44.5 17.5s32.833 -5.83301 44.5 -17.5s17.5 -26.5 17.5 -44.5s-5.83301 -32.833 -17.5 -44.5s-26.5 -17.5 -44.5 -17.5s-32.833 5.83301 -44.5 17.5s-17.5 26.5 -17.5 44.5z" />
    <glyph glyph-name="less" unicode="&#x3c;" horiz-adv-x="940" 
d="M84 250v28l756 406l20 -36l-714 -384l714 -384l-20 -36z" />
    <glyph glyph-name="equal" unicode="=" horiz-adv-x="940" 
d="M56 338v40h844v-40h-844zM56 148v40h844v-40h-844z" />
    <glyph glyph-name="greater" unicode="&#x3e;" horiz-adv-x="940" 
d="M80 -120l714 384l-714 384l20 36l756 -406v-28l-756 -406z" />
    <glyph glyph-name="question" unicode="?" horiz-adv-x="436" 
d="M112 50c0 18 5.83301 32.833 17.5 44.5s26.5 17.5 44.5 17.5s32.833 -5.83301 44.5 -17.5s17.5 -26.5 17.5 -44.5s-5.83301 -32.833 -17.5 -44.5s-26.5 -17.5 -44.5 -17.5s-32.833 5.83301 -44.5 17.5s-17.5 26.5 -17.5 44.5zM136 242c0 24 7.6709 46.668 23.0039 68.001
s35 39.333 59 54l124 74c52 28 78 63.333 78 106c0 35.333 -8.33301 64.166 -25 86.499s-40.334 33.5 -71.001 33.5c-20.667 0 -39.334 -2 -56.001 -6s-29.834 -9.16699 -39.501 -15.5s-17.834 -13.333 -24.501 -21s-11.334 -14.834 -14.001 -21.501s-4 -13 -4 -19
c0 -12.667 4.33301 -21 13 -25c10 -4 17 -8 21 -12c6.66699 -7.33301 10 -17 10 -29c0 -8.66699 -3.5 -17 -10.5 -25s-16.5 -12 -28.5 -12c-15.333 0 -27 4.66699 -35 14c-12 12 -18 28.333 -18 49c0 27.333 10.333 53 31 77s46 42.667 76 56s59.333 20 88 20
c52 0 91.5 -15 118.5 -45s40.5 -68.333 40.5 -115c0 -29.333 -10.333 -57.166 -31 -83.499s-47 -47.166 -79 -62.499l-133 -64c-22 -12 -39.333 -25.667 -52 -41s-19 -31 -19 -47c0 -17.333 5 -30.333 15 -39s22.333 -13 37 -13c27.333 0 47.5 7.66699 60.5 23
s19.5 33.666 19.5 54.999c0 12 -3.33301 21.667 -10 29l12 9c12 -12 18 -27.333 18 -46c0 -28 -10 -51.667 -30 -71s-44.667 -29 -74 -29c-25.333 0 -46.666 8 -63.999 24s-26 37.333 -26 64z" />
    <glyph glyph-name="at" unicode="@" horiz-adv-x="820" 
d="M96 355c0 67.333 16.334 129.834 49.001 187.501s77.667 103.334 135 137.001s120 50.5 188 50.5c54.667 0 104.167 -9.33301 148.5 -28s80.666 -44 108.999 -76s50.166 -69.333 65.499 -112s23 -88.334 23 -137.001c0 -20.667 -2.66699 -42 -8 -64
s-14.333 -43.833 -27 -65.5s-27.5 -41.167 -44.5 -58.5s-38.333 -31.333 -64 -42s-53.834 -16 -84.501 -16c-25.333 0 -46.666 6.83301 -63.999 20.5s-27.666 31.834 -30.999 54.501l-5 1c-4.66699 -7.33301 -10.5 -14.666 -17.5 -21.999s-15.5 -15.333 -25.5 -24
s-21.833 -15.834 -35.5 -21.501s-27.5 -8.5 -41.5 -8.5c-30 0 -56.167 10.833 -78.5 32.5s-33.5 52.167 -33.5 91.5c0 42 5.66699 83.667 17 125s28 75 50 101c28.667 34 58 58.833 88 74.5s59.333 23.5 88 23.5c17.333 0 32.833 -6.33301 46.5 -19
s21.834 -24.667 24.501 -36h5l11 43h72l-84 -310c-7.33301 -32.667 -7.5 -57.834 -0.5 -75.501s17.167 -26.5 30.5 -26.5c18.667 0 35.667 2.83301 51 8.5s28.5 13.167 39.5 22.5s20.833 20.666 29.5 33.999s15.667 27.333 21 42s9.83301 30 13.5 46s6.16699 31.333 7.5 46
s2 29 2 43c0 95.333 -27.833 170 -83.5 224s-130.167 81 -223.5 81c-57.333 0 -110.166 -16 -158.499 -48s-86.5 -76 -114.5 -132s-42 -118.333 -42 -187c0 -100.667 28.667 -180 86 -238s136.666 -87 237.999 -87c58.667 0 117.334 19.333 176.001 58l16 -23
c-58 -42 -125.333 -63 -202 -63c-74.667 0 -139.334 15.667 -194.001 47s-96.334 75 -125.001 131s-43 121 -43 195zM322.001 223.001c0 -20.667 5.00195 -37.168 15.002 -49.501s21 -18.5 33 -18.5c33.333 0 63.666 17.833 90.999 53.5s47.666 77.834 60.999 126.501l23 85
c4 13.333 5.5 27.666 4.5 42.999s-3.33301 30 -7 44s-9.66699 25.5 -18 34.5s-17.5 13.5 -27.5 13.5c-26.667 0 -50.5 -9.16699 -71.5 -27.5s-41.5 -49.166 -61.5 -92.499c-12 -26 -22 -58.833 -30 -98.5s-12 -77.5 -12 -113.5z" />
    <glyph glyph-name="A" unicode="A" horiz-adv-x="728" 
d="M288 280h184v269zM-44 0l8.00195 32h37c27.333 0 51.666 7 72.999 21s38.333 31 51 51l411 608h24v-637c1.33301 -16.667 6 -28 14 -34s19.333 -9 34 -9h56l-8 -32h-296l8 32h62c13.333 0 23.666 3 30.999 9s11 18.333 11 37v166h-209l-68 -100
c-22.667 -32 -34 -58 -34 -78c0 -22.667 13.333 -34 40 -34h55l-8 -32h-292z" />
    <glyph glyph-name="B" unicode="B" horiz-adv-x="690" 
d="M199 59c-4.66699 -18 1.66406 -27 18.9971 -27h163c19.333 0 37.333 3.66699 54 11s31.334 17.166 44.001 29.499s23.334 26.333 32.001 42s15.334 32.167 20.001 49.5s7 34.333 7 51c0 44.667 -10 80.334 -30 107.001s-49.667 40 -89 40h-138zM-10.002 0l7.99902 31.998
h76c17.333 0 28.666 9 33.999 27l161 594c6 18 -0.333008 27 -19 27h-76l8 32h348c30.667 0 59 -5.33301 85 -16s47.667 -28 65 -52s26 -52.333 26 -85c0 -23.333 -5 -44.666 -15 -63.999s-22.667 -35.666 -38 -48.999s-33.166 -25 -53.499 -35s-39.833 -17.667 -58.5 -23
s-37.334 -9.33301 -56.001 -12l-1 -2c44 -2 81.667 -17.167 113 -45.5s47 -64.5 47 -108.5c0 -26.667 -5.66699 -52 -17 -76s-26.666 -44.5 -45.999 -61.5s-41.166 -31.833 -65.499 -44.5s-49.5 -22.167 -75.5 -28.5s-51.333 -9.5 -76 -9.5h-374zM289.997 393.998
l134 -0.000976562c28 0 53.333 3.66699 76 11s40.667 16.833 54 28.5s24.333 25.334 33 41.001s14.667 30.5 18 44.5s5 28 5 42c0 79.333 -37 119 -111 119h-105c-18 0 -29.333 -9 -34 -27z" />
    <glyph glyph-name="C" unicode="C" horiz-adv-x="670" 
d="M92 252c0 45.333 6.99707 91.667 20.9971 139s33.667 91 59 131s53.833 75.667 85.5 107s66.334 56 104.001 74s75.167 27 112.5 27c43.333 0 80.333 -15.333 111 -46l18 -18c6.66699 -6.66699 11.834 -11.167 15.501 -13.5s8.16699 -3.5 13.5 -3.5
c8.66699 0 16.5 5 23.5 15s12 19.833 15 29.5s5.16699 19.167 6.5 28.5h23l-64 -306h-23c0.666992 13.333 1 34.333 1 63c0 23.333 -3.16699 51.666 -9.5 84.999s-17.5 61 -33.5 83c-25.333 34 -59 51 -101 51c-40 0 -76 -12.167 -108 -36.5s-64 -66.166 -96 -125.499
c-22 -41.333 -40.5 -92.5 -55.5 -153.5s-22.5 -123.167 -22.5 -186.5c0 -32 2.83301 -59.5 8.5 -82.5s12.667 -40.667 21 -53s18.833 -22.166 31.5 -29.499s24.334 -12 35.001 -14s23 -3 37 -3c37.333 0 73.833 11 109.5 33s66.167 50 91.5 84s45 71 59 111l31 -11
c-8.66699 -26 -19.167 -50.667 -31.5 -74s-27.833 -45.833 -46.5 -67.5s-39 -40.334 -61 -56.001s-47.5 -28.167 -76.5 -37.5s-59.833 -14 -92.5 -14c-20 0 -39.667 3.16699 -59 9.5s-38.333 16.5 -57 30.5s-35 31.167 -49 51.5s-25.333 45.833 -34 76.5s-13 64.667 -13 102
z" />
    <glyph glyph-name="D" unicode="D" horiz-adv-x="750" 
d="M-10 0l8.00195 32h76c17.333 0 28.666 9 33.999 27l161 594c6 18 -0.333008 27 -19 27h-76l9 32h321c69.333 0 123.666 -24 162.999 -72s59 -110.333 59 -187c0 -52.667 -9.66699 -106 -29 -160s-46.333 -102.333 -81 -145c-79.333 -98.667 -173.333 -148 -282 -148h-344
zM199.002 59c-4.66699 -18 1.66699 -26.999 19 -26.999h126c86.667 0 157.667 49.333 213 148c22 38.667 39.667 86.334 53 143.001s20 115.667 20 177c0 25.333 -2.33301 48.166 -7 68.499s-12.667 39.166 -24 56.499s-26.833 30.833 -46.5 40.5s-43.167 14.5 -70.5 14.5
h-88c-18 0 -29.333 -9 -34 -27z" />
    <glyph glyph-name="E" unicode="E" horiz-adv-x="700" 
d="M-10 0l7.99902 31.999h76c17.333 0 28.666 9 33.999 27l161 594c6 18 -0.333008 27 -19 27h-76l8 32h552l-46 -228h-25c2 14 3 30 3 48c0 28.667 -2.33301 52.834 -7 72.501s-12 34.834 -22 45.501s-21.333 18.334 -34 23.001s-27.667 7 -45 7h-164
c-18 0 -29.333 -9 -34 -27l-72 -267h108c12 0 23 1.66699 33 5s18.333 7.5 25 12.5s13.334 11.833 20.001 20.5s11.834 16.5 15.501 23.5s7.5 16.167 11.5 27.5s6.83301 20.166 8.5 26.499s4.16699 15.166 7.5 26.499h25l-88 -328h-25c6.66699 29.333 10 54.333 10 75
c0 23.333 -4.5 41.666 -13.5 54.999s-24.5 20 -46.5 20h-101l-79 -291c-4.66699 -18 1.66602 -27 18.999 -27h186c17.333 0 37.666 4.33301 60.999 13s44.333 21.667 63 39c18.667 18.667 36.834 43.334 54.501 74.001s30.834 56.667 39.501 78l12 32h24l-84 -268h-584z" />
    <glyph glyph-name="F" unicode="F" horiz-adv-x="680" 
d="M-10 0l8.00293 32h76c17.333 0 28.666 9 33.999 27l161 594c6 18 -0.333008 27 -19 27h-76l8 32h552l-46 -228h-25c2 14 3 30 3 48c0 28.667 -2.33301 52.834 -7 72.501s-12 34.834 -22 45.501s-21.333 18.334 -34 23.001s-27.667 7 -45 7h-164c-18 0 -29.333 -9 -34 -27
l-72 -267h107c11.333 0 22 1.66699 32 5s18.667 7.5 26 12.5s14.166 11.833 20.499 20.5s11.333 16.5 15 23.5s7.5 16.167 11.5 27.5s7 20.166 9 26.499s4.33301 15.166 7 26.499h25l-88 -328h-25c6.66699 29.333 10 54.333 10 75c0 23.333 -4.5 41.666 -13.5 54.999
s-24.5 20 -46.5 20h-100l-79 -291c-4.66699 -18 1.66602 -27 18.999 -27h112l-8 -32h-332z" />
    <glyph glyph-name="G" unicode="G" horiz-adv-x="740" 
d="M92 252c0 38.667 4.99707 77.6689 14.9971 117.002s23.667 76.333 41 111s38.333 67.5 63 98.5s50.834 57.667 78.501 80s57.5 39.833 89.5 52.5s63.667 19 95 19c52.667 0 99.334 -18 140.001 -54c12 -10.667 20.667 -17.834 26 -21.501s11 -5.5 17 -5.5
c20.667 0 35.334 24.333 44.001 73h23l-64 -306h-23c0.666992 12.667 1 33.667 1 63c0 78.667 -14.333 134.667 -43 168c-15.333 18 -34.333 31 -57 39s-45.334 12 -68.001 12c-40 0 -76 -12 -108 -36s-64 -66 -96 -126c-22 -41.333 -40.5 -92.5 -55.5 -153.5
s-22.5 -123.167 -22.5 -186.5c0 -32 3 -60 9 -84s13 -42 21 -54s18.167 -21.5 30.5 -28.5s23.333 -11.333 33 -13s20.5 -2.5 32.5 -2.5c25.333 0 50 6.66699 74 20s44.833 30.333 62.5 51s32.667 43.167 45 67.5s20.833 48.166 25.5 71.499l11 53
c0.666992 2.66699 1 6.33398 1 11.001c0 10.667 -7 16 -21 16h-100l8 32h310l-8 -32h-64c-18.667 0 -30.334 -9 -35.001 -27l-61 -291h-25v70c0 27.333 -5 41 -15 41c-9.33301 0 -21.666 -9 -36.999 -27c-55.333 -58.667 -115.666 -88 -180.999 -88
c-60 0 -110.333 24.667 -151 74s-61 114.666 -61 195.999z" />
    <glyph glyph-name="H" unicode="H" horiz-adv-x="800" 
d="M-10 0l8 32h76c17.333 0 28.666 9 33.999 27l161 594c4.66699 18 -1.66602 27 -18.999 27h-76l8 32h296l-8 -32h-76c-17.333 0 -28.666 -9 -33.999 -27l-73 -267h309l73 267c4.66699 18 -1.66602 27 -18.999 27h-76l8 32h296l-8 -32h-76
c-17.333 0 -28.666 -9 -33.999 -27l-161 -594c-4.66699 -18 1.66602 -27 18.999 -27h76l-8 -32h-296l8 32h76c17.333 0 28.666 9 33.999 27l79 291h-309l-79 -291c-4.66699 -18 1.66602 -27 18.999 -27h76l-8 -32h-296z" />
    <glyph glyph-name="I" unicode="I" horiz-adv-x="400" 
d="M-10 0l8.00195 32h76c17.333 0 28.666 9 33.999 27l161 594c6 18 -0.333008 27 -19 27h-76l8 32h296l-8 -32h-76c-18 0 -29.333 -9 -34 -27l-161 -594c-4.66699 -18 1.66602 -27 18.999 -27h76l-8 -32h-296z" />
    <glyph glyph-name="J" unicode="J" horiz-adv-x="540" 
d="M14 110c0 32 8.66992 57.667 26.0029 77s38.666 29 63.999 29c17.333 0 32 -5.33301 44 -16s18 -24.334 18 -41.001c0 -20 -5.66699 -36.333 -17 -49s-27.666 -19 -48.999 -19c-6.66699 0 -11.667 -2.16699 -15 -6.5s-5 -9.83301 -5 -16.5
c0 -17.333 6.33301 -30.666 19 -39.999s31.667 -14 57 -14c32.667 0 61.167 12.167 85.5 36.5s41.166 53.833 50.499 88.5l139 514c1.33301 5.33301 2 9.33301 2 12c0 10 -7 15 -21 15h-112l8 32h332l-8 -32h-76c-18 0 -29.333 -9 -34 -27l-127 -468
c-16.667 -62 -48.334 -111.333 -95.001 -148s-97.334 -55 -152.001 -55c-41.333 0 -74 12 -98 36s-36 54.667 -36 92z" />
    <glyph glyph-name="K" unicode="K" horiz-adv-x="756" 
d="M-10 0l8.00293 32h76c17.333 0 28.666 9 33.999 27l161 594c6 18 -0.333008 27 -19 27h-76l8 32h296l-8 -32h-76c-18 0 -29.333 -9 -34 -27l-80 -297l298 224c22 16.667 37.833 30.167 47.5 40.5s14.5 21.5 14.5 33.5c0 17.333 -18 26 -54 26h-24l8 32h274l-8 -32
c-21.333 0 -43 -4 -65 -12s-48.667 -23.333 -80 -46l-243 -180l122 -366c6.66699 -16.667 14.667 -28.167 24 -34.5s24.666 -9.5 45.999 -9.5h42l-8 -32h-292l8 32h52c12 0 21.667 3.66699 29 11s8.33301 19 3 35l-99 309l-108 -80l-68 -248
c-4.66699 -18 1.66602 -27 18.999 -27h76l-8 -32h-296z" />
    <glyph glyph-name="L" unicode="L" horiz-adv-x="680" 
d="M-10 0l8.00098 31.999h76c17.333 0 28.666 9 33.999 27l161 594c6 18 -0.333008 27 -19 27h-76l9 32h295l-8 -32h-76c-18 0 -29.333 -9 -34 -27l-161 -594c-4.66699 -18 1.66602 -27 18.999 -27h186c17.333 0 37.666 4.33301 60.999 13s44.333 21.667 63 39
c18.667 18.667 36.834 43.334 54.501 74.001s30.834 56.667 39.501 78l12 32h24l-84 -268h-584z" />
    <glyph glyph-name="M" unicode="M" horiz-adv-x="894" 
d="M-10 0l8.00098 32h48c21.333 0 40 8.83301 56 26.5s27.667 40.167 35 67.5l143 527c5.33301 18 -1 27 -19 27h-87l8 32h254v-555l304 555h232l-8 -32h-76c-18 0 -29.333 -9 -34 -27l-161 -594c-4.66699 -18 2.33301 -27 21 -27h76l-8 -32h-298l8 32h76
c17.333 0 28.666 9 33.999 27l168 621h-15l-382 -692h-25v692h-20l-152 -554c-4 -14.667 -6 -28.667 -6 -42c0 -34.667 16.667 -52 50 -52h48l-8 -32h-270z" />
    <glyph glyph-name="N" unicode="N" horiz-adv-x="790" 
d="M-10 0l7.99805 32.001h48c21.333 0 40 9 56 27s27.667 40.333 35 67l143 527c2.66699 9.33301 2.33398 16.166 -0.999023 20.499s-9.33301 6.5 -18 6.5h-87l8 32h182l209 -583l125 457c4.66699 16 7 30.333 7 43c0 34 -17 51 -51 51h-48l8 32h270l-8 -32h-48
c-18.667 0 -36.667 -8.33301 -54 -25s-29.666 -39.667 -36.999 -69l-164 -604h-40l-221 621h-5l-131 -477c-4 -14.667 -6 -29 -6 -43c0 -34 16.667 -51 50 -51h48l-8 -32h-270z" />
    <glyph glyph-name="O" unicode="O" horiz-adv-x="710" 
d="M188 192c0 -58.667 10.667 -103 32 -133s52 -45 92 -45c24 0 47.333 5.16699 70 15.5s42 23.333 58 39s31.333 34.5 46 56.5s26.334 42.667 35.001 62s17 39.666 25 60.999c29.333 82.667 44 173.334 44 272.001c0 58.667 -10.667 103 -32 133s-52 45 -92 45
c-24 0 -47.333 -5.16699 -70 -15.5s-42 -23.333 -58 -39s-31.333 -34.5 -46 -56.5s-26.334 -42.667 -35.001 -62s-17 -39.666 -25 -60.999c-29.333 -82.667 -44 -173.334 -44 -272.001zM92 248c0 52 7.33301 103.001 22 153.001s34.667 94.5 60 133.5s54 73.333 86 103
s66.667 52.5 104 68.5s74 24 110 24c42.667 0 80.334 -12.333 113.001 -37s57.334 -57.334 74.001 -98.001s25 -85 25 -133c0 -52 -7.33301 -103 -22 -153s-34.667 -94.333 -60 -133s-54 -72.667 -86 -102s-66.667 -52 -104 -68s-74 -24 -110 -24
c-42.667 0 -80.334 12.333 -113.001 37s-57.334 57 -74.001 97s-25 84 -25 132z" />
    <glyph glyph-name="P" unicode="P" horiz-adv-x="654" 
d="M-10 0l8.00098 32h76c17.333 0 28.666 9 33.999 27l161 594c3.33301 8.66699 3.5 15.334 0.5 20.001s-9.5 7 -19.5 7h-76l9 32h341c49.333 0 89.333 -13.833 120 -41.5s46 -66.5 46 -116.5c0 -29.333 -7 -57.666 -21 -84.999s-33.5 -51.333 -58.5 -72
s-56.333 -37.334 -94 -50.001s-78.5 -19 -122.5 -19h-122l-73 -269c-2 -10.667 -1.66699 -17.834 1 -21.501s8.66699 -5.5 18 -5.5h112l-8 -32h-332zM281.001 360l134.001 -0.00195312c26 0 51.333 6.33301 76 19s45 30.334 61 53.001
c13.333 18.667 23.666 40.334 30.999 65.001s11 49.667 11 75c0 36 -8.83301 63 -26.5 81s-39.5 27 -65.5 27h-108c-18 0 -29.333 -9 -34 -27z" />
    <glyph glyph-name="Q" unicode="Q" horiz-adv-x="710" 
d="M188 192c0 -74.667 17.3359 -125.998 52.0029 -153.998h4c-8.66699 12 -13 26.667 -13 44c0 35.333 8.83301 61 26.5 77s39.167 24 64.5 24s45.666 -12.333 60.999 -37s24.666 -58.334 27.999 -101.001c56.667 40.667 100.667 104.167 132 190.5s47 181.166 47 284.499
c0 58.667 -10.667 103 -32 133s-52 45 -92 45s-77.667 -14.167 -113 -42.5s-64.833 -66 -88.5 -113s-42.334 -101 -56.001 -162s-20.5 -123.833 -20.5 -188.5zM92.0029 248.002c0 52 7.33496 103 22.002 153s34.667 94.5 60 133.5s54 73.333 86 103s66.667 52.5 104 68.5
s74 24 110 24c42.667 0 80.334 -12.333 113.001 -37s57.334 -57.334 74.001 -98.001s25 -85.667 25 -135c0 -46.667 -6 -92.334 -18 -137.001s-27.5 -84 -46.5 -118s-40.667 -65 -65 -93s-48.833 -50.667 -73.5 -68s-48.334 -30.333 -71.001 -39v-44v-23
c0 -5.33301 1 -13 3 -23s4.33301 -18 7 -24s7 -11.333 13 -16s13.333 -7 22 -7c38 0 68.333 40.667 91 122l24 -7c-6.66699 -27.333 -14.667 -51.166 -24 -71.499s-18.833 -36.333 -28.5 -48s-20.334 -21.167 -32.001 -28.5s-22.5 -12.333 -32.5 -15s-20.333 -4 -31 -4
c-29.333 0 -53.333 7.83301 -72 23.5s-28 38.834 -28 69.501c0 12 2.33301 29 7 51l6 25c-10 -2 -21 -3 -33 -3c-42.667 0 -80.334 12.333 -113.001 37s-57.334 57 -74.001 97s-25 84 -25 132zM259.005 82.002c0 -22.667 4.83496 -39.667 14.502 -51s22.167 -17 37.5 -17
c8.66699 0 19.667 1.33301 33 4l8 37c2 8 3 16.667 3 26s-0.5 17.5 -1.5 24.5s-2.83301 14.667 -5.5 23s-7.33398 14.833 -14.001 19.5s-15.334 7 -26.001 7c-15.333 0 -27.333 -6.16699 -36 -18.5s-13 -30.5 -13 -54.5z" />
    <glyph glyph-name="R" unicode="R" horiz-adv-x="720" 
d="M-10 0l8 31.9961h76c17.333 0 28.666 9 33.999 27l161 594c2 10 1.66699 17 -1 21s-8.66699 6 -18 6h-76l8 32h311c56.667 0 100.667 -13.667 132 -41s47 -67.666 47 -120.999c0 -42.667 -19.333 -81.167 -58 -115.5s-83.334 -56.166 -134.001 -65.499l-1 -4
c60.667 -29.333 91 -77.666 91 -144.999c0 -16 -3.66699 -41.667 -11 -77s-11 -59 -11 -71c0 -9.33301 2.33301 -17 7 -23s11.667 -9 21 -9c13.333 0 25.333 4 36 12s19.834 19.333 27.501 34s13.5 27.334 17.5 38.001s8 23.334 12 38.001l25 -7
c-12 -40.667 -23 -70.334 -33 -89.001c-27.333 -52 -65.666 -78 -114.999 -78c-26.667 0 -48.667 7 -66 21s-26 38 -26 72c0 24.667 6 60 18 106s18 76 18 90c0 26 -7 45.667 -21 59s-32.333 20 -55 20h-135l-80 -297c-2 -10 -1.66699 -17 1 -21s8.66699 -6 18 -6h100
l-8 -32h-320zM288 387.996l121.999 -0.000976562c50.667 0 91 16.333 121 49s45 78.334 45 137.001c0 35.333 -8.66699 61.833 -26 79.5s-42.666 26.5 -75.999 26.5h-80c-18 0 -29.333 -9 -34 -27z" />
    <glyph glyph-name="S" unicode="S" horiz-adv-x="620" 
d="M34 -10l79.9961 315.998h23c-8.66699 -48.667 -5.66699 -95.834 9 -141.501s37.667 -82.167 69 -109.5s66 -41 104 -41c56.667 0 99.5 11.667 128.5 35s43.5 57.666 43.5 102.999c0 26.667 -6.83301 48.5 -20.5 65.5s-33.834 33.833 -60.501 50.5l-116 71
c-41.333 24.667 -71.166 50 -89.499 76s-27.5 61 -27.5 105c0 36 5.5 67.5 16.5 94.5s26.5 48.833 46.5 65.5s43.167 29.167 69.5 37.5s55.166 12.5 86.499 12.5c24 0 47.833 -6.33301 71.5 -19s42.834 -25.667 57.501 -39c11.333 -10.667 21 -16 29 -16
c10.667 0 20.667 7.33301 30 22s16.333 29.334 21 44.001h23l-58 -260h-23c2 32 -3.5 66 -16.5 102s-32.333 67.333 -58 94s-54.167 40 -85.5 40c-26 0 -49.333 -4 -70 -12s-37 -18.333 -49 -31s-21.167 -26.667 -27.5 -42s-9.5 -31.333 -9.5 -48c0 -14 2.33301 -27 7 -39
s9.83398 -22 15.501 -30s13.834 -16.333 24.501 -25s19.667 -15.167 27 -19.5l28 -16.5l94 -55c18 -10.667 32.667 -20 44 -28s23 -17.667 35 -29s21.167 -22.666 27.5 -33.999s11.5 -24.666 15.5 -39.999s6 -32.333 6 -51c0 -66.667 -21.5 -119.334 -64.5 -158.001
s-102.833 -58 -179.5 -58c-22 0 -43.667 3 -65 9s-39.666 13.833 -54.999 23.5s-26.666 17.334 -33.999 23.001s-13.333 10.834 -18 15.501c-13.333 13.333 -23.333 20 -30 20c-7.33301 0 -15 -6 -23 -18s-14 -23.167 -18 -33.5s-7.66699 -20.833 -11 -31.5h-23z" />
    <glyph glyph-name="T" unicode="T" horiz-adv-x="690" 
d="M106 0l7.99805 31.999h100c17.333 0 28.333 9 33 27l161 594c5.33301 18 -0.666992 27 -18 27h-33c-22.667 0 -44.167 -5.66699 -64.5 -17s-37.166 -23.333 -50.499 -36c-19.333 -18.667 -37.5 -43.5 -54.5 -74.5s-29 -56.167 -36 -75.5s-10.5 -30.333 -10.5 -33h-25
l80 268h548l-63 -268h-25c8 33.333 12 68 12 104c0 21.333 -2.33301 40 -7 56s-10.334 28.667 -17.001 38s-14.667 17 -24 23s-18.166 10 -26.499 12s-16.833 3 -25.5 3h-33c-20.667 0 -32.667 -9 -36 -27l-161 -594c-2 -9.33301 -1.66699 -16.166 1 -20.499
s8.33398 -6.5 17.001 -6.5h100l-8 -32h-342z" />
    <glyph glyph-name="U" unicode="U" horiz-adv-x="784" 
d="M130 176c0 16 3 36.6689 9 62.002l112 415c2 9.33301 1.66699 16.166 -1 20.499s-8.66699 6.5 -18 6.5h-76l8 32h296l-8 -32h-76c-18 0 -29.333 -9 -34 -27l-119 -442c-6 -25.333 -9 -44.333 -9 -57c0 -44 14.333 -78.333 43 -103s66 -37 112 -37
c31.333 0 60 5.33301 86 16s47.5 25 64.5 43s31 37.333 42 58s19.833 43 26.5 67l107 390c4 16 6 30 6 42c0 14 -3.83301 25.833 -11.5 35.5s-20.834 14.5 -39.501 14.5h-48l8 32h270l-8 -32h-48c-20 0 -38.333 -8.83301 -55 -26.5s-28.667 -40.167 -36 -67.5l-104 -378
c-8.66699 -33.333 -19.667 -62.833 -33 -88.5s-30.333 -49.334 -51 -71.001s-46.5 -38.167 -77.5 -49.5s-66.5 -17 -106.5 -17c-38.667 0 -73 5.16699 -103 15.5s-54.167 24.333 -72.5 42s-32.166 38.167 -41.499 61.5s-14 48.333 -14 75z" />
    <glyph glyph-name="V" unicode="V" horiz-adv-x="752" 
d="M140 680l8.00098 32h304l-8 -32h-70c-15.333 0 -25.5 -4 -30.5 -12s-7.5 -19.667 -7.5 -35v-494l260 397c28 42.667 42 76.667 42 102c0 12 -3.83301 22 -11.5 30s-18.5 12 -32.5 12h-44l8 32h296l-8 -32h-39c-24.667 0 -48 -7.33301 -70 -22s-38.667 -31.667 -50 -51
l-414 -625h-25v654c-2 17.333 -6.83301 29 -14.5 35s-18.834 9 -33.501 9h-60z" />
    <glyph glyph-name="W" unicode="W" horiz-adv-x="1078" 
d="M140 680l8.00098 32h296l-8 -32h-68c-14.667 0 -24.334 -3.83301 -29.001 -11.5s-7 -19.5 -7 -35.5v-488l244 391c20.667 31.333 31 64.666 31 99.999c0 16.667 -4.16699 28.167 -12.5 34.5s-19.833 9.5 -34.5 9.5h-52l8 32h296l-8 -32h-57
c-16.667 0 -29.5 -5.66699 -38.5 -17s-13.5 -26.666 -13.5 -45.999v-461l238 375c25.333 39.333 38 74.333 38 105c0 10 -4 19.833 -12 29.5s-17.333 14.5 -28 14.5h-55l8 32h296l-8 -32h-44c-38.667 0 -73 -25 -103 -75l-393 -623h-25v535l-338 -535h-25v654
c-2 17.333 -6.66699 29 -14 35s-18.333 9 -33 9h-57z" />
    <glyph glyph-name="X" unicode="X" horiz-adv-x="840" 
d="M10 0l9.00293 31.998h43c28 0 52.667 6.66699 74 20s43 32 65 56l217 237l-129 285c-4.66699 10.667 -8.33398 18.167 -11.001 22.5s-6.66699 9 -12 14s-11.5 8.5 -18.5 10.5s-16.167 3 -27.5 3h-68l8 32h312l-8 -32h-45c-10.667 0 -20.334 -5 -29.001 -15
s-10 -21.667 -4 -35l97 -213l151 165c13.333 14.667 20 33.334 20 56.001c0 28 -17 42 -51 42h-37l8 32h312l-8 -32h-36c-48 0 -88 -17.333 -120 -52l-223 -247l143 -313c6.66699 -14.667 14.167 -24.334 22.5 -29.001s19.833 -7 34.5 -7h61l-8 -32h-320l8 32h64
c14.667 0 25.667 4.33301 33 13s7.66602 20.334 0.999023 35.001l-104 229l-153 -169c-10.667 -12 -18 -22.667 -22 -32s-6 -20.666 -6 -33.999c0 -28 17.333 -42 52 -42h34l-9 -32h-320z" />
    <glyph glyph-name="Y" unicode="Y" horiz-adv-x="720" 
d="M106 0l7.99805 31.999h100c17.333 0 28.333 8.66699 33 26l70 260l-79 318c-5.33301 16.667 -11.666 28.167 -18.999 34.5s-17.666 9.5 -30.999 9.5h-74l8 32h316l-8 -32h-59c-16.667 0 -29 -5 -37 -15s-9.66699 -20.667 -5 -32l66 -278l172 198l22.5 26.5
c5 5.66699 10.833 14.834 17.5 27.501s10 24 10 34c0 26 -16 39 -48 39h-43l8 32h296l-8 -32h-47c-38 0 -77.667 -24.333 -119 -73l-245 -278l-73 -271c-5.33301 -17.333 0.666992 -26 18 -26h100l-8 -32h-342z" />
    <glyph glyph-name="Z" unicode="Z" horiz-adv-x="680" 
d="M36 0l7.99902 31.001l508 649h-180c-29.333 0 -56 -6 -80 -18s-49.333 -32 -76 -60c-17.333 -17.333 -32.166 -36.333 -44.499 -57s-20.5 -36.334 -24.5 -47.001s-6 -16.667 -6 -18h-25l84 232h472l-8 -32l-506 -648h222c48 0 90 15.667 126 47
c20.667 18 40.5 42.667 59.5 74s33.167 58.333 42.5 81l13 34h25l-86 -268h-524z" />
    <glyph glyph-name="bracketleft" unicode="[" horiz-adv-x="380" 
d="M24 -198l248 910h210l-8 -30h-120c-8 -1.33301 -13.667 -3 -17 -5s-6.33301 -7 -9 -15l-217 -798c-2 -8 -1.83301 -15 0.5 -21s6.83301 -9.66699 13.5 -11h117l-8 -30h-210z" />
    <glyph glyph-name="backslash" unicode="\" 
d="M72 730h40l298 -928h-40z" />
    <glyph glyph-name="bracketright" unicode="]" horiz-adv-x="380" 
d="M-90 -198l8 30h120c8 1.33301 13.667 3 17 5s6.33301 7 9 15l217 798c2 8 1.83301 15 -0.5 21s-6.83301 9.66699 -13.5 11h-117l8 30h210l-248 -910h-210z" />
    <glyph glyph-name="asciicircum" unicode="^" horiz-adv-x="580" 
d="M88 336l228 364l228 -364h-48l-180 286l-180 -286h-48z" />
    <glyph glyph-name="underscore" unicode="_" horiz-adv-x="520" 
d="M-41 -158l10 40h520l-10 -40h-520z" />
    <glyph glyph-name="grave" unicode="`" 
d="M214 640c0 8 2.66602 16 7.99902 24s14.666 12 27.999 12c10.667 0 18.834 -3 24.501 -9s10.834 -16 15.501 -30l40 -119l-17 -10l-85 97c-9.33301 10 -14 21.667 -14 35z" />
    <glyph glyph-name="grave" unicode="&#x2cb;" 
d="M214 640c0 8 2.66602 16 7.99902 24s14.666 12 27.999 12c10.667 0 18.834 -3 24.501 -9s10.834 -16 15.501 -30l40 -119l-17 -10l-85 97c-9.33301 10 -14 21.667 -14 35z" />
    <glyph glyph-name="a" unicode="a" horiz-adv-x="536" 
d="M42 125c0 40.667 5.99902 80 17.999 118s25.667 68.667 41 92c23.333 36.667 50.5 66 81.5 88s62.5 33 94.5 33c20.667 0 39.334 -7.16699 56.001 -21.5s28.667 -36.5 36 -66.5l4 -2l22 78h66l-85 -315c-9.33301 -37.333 -14 -64 -14 -80c0 -18 6 -27 18 -27
c18.667 0 37.667 14.833 57 44.5s36.666 68.167 51.999 115.5l20 -6c-7.33301 -22.667 -15.666 -44.167 -24.999 -64.5s-20.333 -40.333 -33 -60s-26.667 -35.167 -42 -46.5s-31 -17 -47 -17c-38.667 0 -58 34 -58 102l1 27l-3 2
c-5.33301 -12.667 -12.666 -25.667 -21.999 -39s-20.333 -27.333 -33 -42s-27.334 -26.667 -44.001 -36s-33 -14 -49 -14c-35.333 0 -62.833 12.5 -82.5 37.5s-29.5 58.167 -29.5 99.5zM113.999 85c0 -19.333 3.66699 -36.332 11 -50.999s19 -22 35 -22
c24 0 47.667 12.333 71 37s44.333 58.334 63 101.001c13.333 30.667 25 64.167 35 100.5s15 66.166 15 89.499c0 29.333 -6 52 -18 68s-28.333 24 -49 24c-11.333 0 -22.333 -3.66699 -33 -11s-20.667 -16.833 -30 -28.5s-17.5 -23.334 -24.5 -35.001
s-13.5 -24.167 -19.5 -37.5c-17.333 -37.333 -31 -77 -41 -119s-15 -80.667 -15 -116z" />
    <glyph glyph-name="b" unicode="b" horiz-adv-x="480" 
d="M138 106c0 -8 0.168945 -15.001 0.501953 -21.001s1.66602 -14 3.99902 -24s5.5 -18.167 9.5 -24.5s10.333 -12 19 -17s19 -7.5 31 -7.5s23.667 3.33301 35 10s21.833 16 31.5 28s17.667 23 24 33s13.166 22.333 20.499 37c40.667 76.667 61 153 61 229
c0 19.333 -3.83301 38 -11.5 56s-18.5 27 -32.5 27c-22.667 0 -46 -11.167 -70 -33.5s-46 -53.166 -66 -92.499c-37.333 -76 -56 -142.667 -56 -200zM68.002 135.999c0 18.667 2.00293 35 6.00293 49l132 481c2.66699 8 2.66699 13.667 0 17s-7.66699 5 -15 5h-89l7 24h177
l-98 -359l5 -4c18 31.333 39.667 57 65 77s52 30 80 30c18 0 34.167 -4.33301 48.5 -13s25.666 -20 33.999 -34s14.666 -29.5 18.999 -46.5s6.5 -34.5 6.5 -52.5c0 -41.333 -11.5 -87.333 -34.5 -138s-48.5 -90.667 -76.5 -120c-20.667 -21.333 -42.667 -37.333 -66 -48
s-50.333 -16 -81 -16c-32.667 0 -60.834 13.333 -84.501 40s-35.5 62.667 -35.5 108z" />
    <glyph glyph-name="c" unicode="c" horiz-adv-x="424" 
d="M52 158c0 40 7.33203 79.6621 21.999 118.995s36.667 74 66 104c23.333 24.667 46.833 43.334 70.5 56.001s50.167 19 79.5 19c12 0 23.333 -1.66699 34 -5s20.667 -8.66602 30 -15.999s17 -17.833 23 -31.5s9 -29.5 9 -47.5c0 -20 -5.66699 -36.667 -17 -50
s-24.666 -20 -39.999 -20c-12.667 0 -22.334 4 -29.001 12s-10 16.667 -10 26c0 18.667 10.667 36 32 52c7.33301 6 11 14.667 11 26c0 6.66699 -3.66699 13.334 -11 20.001s-19.333 10 -36 10c-52 0 -97.333 -58 -136 -174c-7.33301 -21.333 -13.5 -48.666 -18.5 -81.999
s-7.5 -59.333 -7.5 -78c0 -29.333 6.66699 -51 20 -65s29 -21 47 -21s35.667 4.33301 53 13s31.333 18.834 42 30.501s20.834 25 30.501 40s16.5 26.833 20.5 35.5s7.33301 16.667 10 24l21 -7c-16 -45.333 -40.333 -83.333 -73 -114s-69 -46 -109 -46
s-72.333 16.5 -97 49.5s-37 73.167 -37 120.5z" />
    <glyph glyph-name="d" unicode="d" horiz-adv-x="530" 
d="M114 85c0 -19.333 3.66699 -36.332 11 -50.999s19 -22 35 -22c24 0 47.667 12.333 71 37s44.333 58.334 63 101.001c13.333 30.667 25 64.167 35 100.5s15 66.166 15 89.499c0 29.333 -6 52 -18 68s-28.333 24 -49 24c-11.333 0 -22.333 -3.66699 -33 -11
s-20.667 -16.833 -30 -28.5s-17.5 -23.334 -24.5 -35.001s-13.5 -24.167 -19.5 -37.5c-17.333 -37.333 -31 -77 -41 -119s-15 -80.667 -15 -116zM42 125.001c0 40 7.5 79.5 22.5 118.5s31.167 72.167 48.5 99.5c22 35.333 48.333 63 79 83s61 30 91 30
c20 0 38 -7.66699 54 -23s26.667 -37 32 -65l4 -2l81 300c2.66699 14.667 -2.66602 22 -15.999 22h-88l7 24h177l-158 -583c-9.33301 -37.333 -14 -64 -14 -80c0 -18 6 -27 18 -27c18.667 0 37.667 15 57 45s36.666 68.333 51.999 115l20 -6
c-44.667 -125.333 -93.667 -188 -147 -188c-38.667 0 -58 34 -58 102l1 27l-3 2c-5.33301 -12.667 -12.666 -25.667 -21.999 -39s-20.333 -27.333 -33 -42s-27.334 -26.667 -44.001 -36s-33 -14 -49 -14c-35.333 0 -62.833 12.5 -82.5 37.5s-29.5 58.167 -29.5 99.5z" />
    <glyph glyph-name="e" unicode="e" horiz-adv-x="410" 
d="M52 158c0 40 7.33203 79.666 21.999 118.999s36.667 74 66 104c48 50 98 75 150 75c26.667 0 48.5 -6.66699 65.5 -20s25.5 -34.666 25.5 -63.999c0 -52 -33.667 -93.667 -101 -125c-34.667 -16.667 -82 -27.334 -142 -32.001c-9.33301 -37.333 -14 -76.333 -14 -117
c0 -29.333 6.66699 -51 20 -65s29 -21 47 -21s35.667 4.33301 53 13s31.333 18.834 42 30.501s20.834 25 30.501 40s16.5 26.833 20.5 35.5s7.33301 16.667 10 24l21 -7c-16 -45.333 -40.333 -83.333 -73 -114s-69 -46 -109 -46s-72.333 16.5 -97 49.5s-37 73.167 -37 120.5
zM143.999 239.999c48.667 3.33301 87.666 11.666 116.999 24.999c20.667 9.33301 37.834 24 51.501 44s20.5 43 20.5 69c0 18.667 -3.83301 32.334 -11.5 41.001s-17.834 13 -30.501 13c-27.333 0 -52.666 -12.333 -75.999 -37s-40.333 -52 -51 -82
c-8 -22.667 -14.667 -47 -20 -73z" />
    <glyph glyph-name="f" unicode="f" horiz-adv-x="320" 
d="M-42 -238l180 654.002h-103l6 28h104l12 39c4.66699 15.333 12 34.666 22 57.999s19 41.666 27 54.999c49.333 82.667 108.333 124 177 124c23.333 0 42.666 -7 57.999 -21s23 -31 23 -51c0 -18 -5 -32.833 -15 -44.5s-22 -17.5 -36 -17.5c-10 0 -18 3 -24 9s-9 14 -9 24
c0 13.333 5.33301 24 16 32c10.667 5.33301 16 12.666 16 21.999c0 7.33301 -2.5 13 -7.5 17s-11.833 6 -20.5 6c-12 0 -23 -1.33301 -33 -4s-20.667 -8 -32 -16s-21.666 -18.667 -30.999 -32s-19 -31.666 -29 -54.999s-19.333 -51 -28 -83l-18 -62h112l-6 -28h-113
l-180 -654h-68z" />
    <glyph glyph-name="g" unicode="g" horiz-adv-x="480" 
d="M114 85c0 -19.333 3.66699 -36.332 11 -50.999s19 -22 35 -22c24 0 47.667 12.333 71 37s44.333 58.334 63 101.001c13.333 30.667 25 64.167 35 100.5s15 66.166 15 89.499c0 29.333 -6 52 -18 68s-28.333 24 -49 24c-11.333 0 -22.333 -3.66699 -33 -11
s-20.667 -16.833 -30 -28.5s-17.5 -23.334 -24.5 -35.001s-13.5 -24.167 -19.5 -37.5c-17.333 -37.333 -31 -77 -41 -119s-15 -80.667 -15 -116zM-17 -149.999c0 18.667 5.49902 33.333 16.499 44s23.5 16 37.5 16c12.667 0 22.5 -4 29.5 -12s10.5 -17.333 10.5 -28
c0 -16.667 -6.33301 -30 -19 -40c-6 -5.33301 -9 -12.666 -9 -21.999c0 -21.333 14.333 -32 43 -32c22.667 0 42.334 4 59.001 12s33.334 23 50.001 45c27.333 36.667 49.666 87 66.999 151c23.333 81.333 35.666 125.666 36.999 132.999l-3 2
c-5.33301 -12.667 -12.666 -25.667 -21.999 -39s-20.333 -27.333 -33 -42s-27.334 -26.667 -44.001 -36s-33 -14 -49 -14c-35.333 0 -62.833 12.5 -82.5 37.5s-29.5 58.167 -29.5 99.5c0 40 7.5 79.5 22.5 118.5s31.167 72.167 48.5 99.5c22 35.333 48.333 63 79 83
s61 30 91 30c20 0 38 -7.66699 54 -23s26.667 -37 32 -65l4 -2l22 78h66l-123 -451c-8.66699 -31.333 -22.334 -64.5 -41.001 -99.5s-40 -63.5 -64 -85.5c-20.667 -19.333 -42.667 -33.5 -66 -42.5s-45.666 -13.5 -66.999 -13.5c-35.333 0 -63.666 8.66699 -84.999 26
s-32 41.333 -32 72z" />
    <glyph glyph-name="h" unicode="h" horiz-adv-x="512" 
d="M24 0l182.001 665.998c2.66699 8 2.66699 13.667 0 17s-8 5 -16 5h-88l7 24h177l-132 -479l4 -3c2.66699 4 8.33398 14.5 17.001 31.5s16 30.833 22 41.5s14.333 24.5 25 41.5s21 31.167 31 42.5s21 22.833 33 34.5s24.333 20.334 37 26.001s25.667 8.5 39 8.5
c20 0 35.833 -8.16699 47.5 -24.5s17.5 -40.166 17.5 -71.499c0 -14.667 -2.16699 -32.334 -6.5 -53.001s-8.83301 -37 -13.5 -49l-64 -149c-10.667 -23.333 -16 -43 -16 -59c0 -9.33301 1.83301 -17 5.5 -23s9.5 -9 17.5 -9c12 0 24.333 5.83301 37 17.5
s24.334 27 35.001 46s19.5 36.333 26.5 52s13.5 31.834 19.5 48.501l20 -6c-12 -34 -24.833 -64.333 -38.5 -91s-30.334 -49.5 -50.001 -68.5s-39.834 -28.5 -60.501 -28.5c-18 0 -33.167 8 -45.5 24s-18.5 40 -18.5 72c0 14.667 2 32 6 52s8.66699 36.667 14 50l64 149
c10.667 23.333 16 43 16 59c0 21.333 -7.33301 32 -22 32c-40.667 0 -83 -37.667 -127 -113c-26.667 -44.667 -50.334 -89.5 -71.001 -134.5s-35.667 -82.5 -45 -112.5l-20 -66h-66z" />
    <glyph glyph-name="i" unicode="i" horiz-adv-x="334" 
d="M36 268c18.667 53.333 40.8369 98.001 66.5039 134.001s53.5 54 83.5 54c17.333 0 32.166 -8.33301 44.499 -25s18.5 -40.334 18.5 -71.001c0 -14.667 -2.16699 -32.334 -6.5 -53.001s-8.83301 -37 -13.5 -49l-64 -149c-10.667 -23.333 -16 -43 -16 -59
c0 -9.33301 1.83301 -17 5.5 -23s9.5 -9 17.5 -9c12 0 24.333 5.83301 37 17.5s24.334 27 35.001 46s19.5 36.333 26.5 52s13.5 31.834 19.5 48.501l20 -6c-12 -34 -24.833 -64.333 -38.5 -91s-30.334 -49.5 -50.001 -68.5s-39.834 -28.5 -60.501 -28.5
c-18 0 -33.167 8 -45.5 24s-18.5 40 -18.5 72c0 14.667 2 32 6 52s8.66699 36.667 14 50l64 149c10.667 23.333 16 43 16 59c0 21.333 -7.33301 32 -22 32c-12.667 0 -25.334 -5.83301 -38.001 -17.5s-24.334 -27 -35.001 -46s-19.5 -36.5 -26.5 -52.5s-13.5 -32 -19.5 -48z
M216.003 638.001c0 14.667 5 27 15 37s22.333 15 37 15s27 -5 37 -15s15 -22.333 15 -37s-5 -27 -15 -37s-22.333 -15 -37 -15s-27 5 -37 15s-15 22.333 -15 37z" />
    <glyph glyph-name="j" unicode="j" horiz-adv-x="326" 
d="M-97 -163c0 18.667 6.16895 34.666 18.502 47.999s26.166 20 41.499 20c12 0 21.333 -3.5 28 -10.5s10 -16.167 10 -27.5c0 -17.333 -7.66699 -30.666 -23 -39.999c-10.667 -6.66699 -16 -14.334 -16 -23.001c0 -18.667 10.333 -28 31 -28c19.333 0 37.333 7.33301 54 22
s30 39.667 40 75c2 8 6 25.167 12 51.5s10.333 44.5 13 54.5l92 339l5 18c3.33301 12 5.66602 22.333 6.99902 31s2 17 2 25s-1.83301 15 -5.5 21s-9.16699 9 -16.5 9c-14.667 0 -30 -9.33301 -46 -28s-30 -40 -42 -64s-22.667 -49.333 -32 -76l-20 6
c5.33301 17.333 11.666 34 18.999 50s16 33.333 26 52s20.667 34.667 32 48s24.333 24.333 39 33s29.334 13 44.001 13c12.667 0 23.5 -2.66699 32.5 -8s15.667 -12 20 -20s7.33301 -15.833 9 -23.5s2.5 -15.167 2.5 -22.5c0 -19.333 -3.66699 -44.666 -11 -75.999l-96 -352
c-7.33301 -25.333 -17 -49.833 -29 -73.5s-26 -45.167 -42 -64.5s-34 -34.833 -54 -46.5s-40.333 -17.5 -61 -17.5c-20 0 -39 7.33301 -57 22s-27 35.667 -27 63zM240.002 637.999c0 14.667 5 27 15 37s22.333 15 37 15s27 -5 37 -15s15 -22.333 15 -37s-5 -27 -15 -37
s-22.333 -15 -37 -15s-27 5 -37 15s-15 22.333 -15 37z" />
    <glyph glyph-name="k" unicode="k" horiz-adv-x="490" 
d="M24 0l182.002 666.003c2.66699 8 2.66699 13.667 0 17s-8 5 -16 5h-88l7 24h177l-126 -462h63c30.667 0 59.334 43 86.001 129c8.66699 28.667 20.667 48.667 36 60s31.666 17 48.999 17c9.33301 0 18.333 -2.33301 27 -7s15 -9.66699 19 -15
c10.667 -14.667 16 -31.334 16 -50.001s-4.66699 -33.667 -14 -45s-21.333 -17 -36 -17c-9.33301 0 -17.666 3 -24.999 9s-11 14.333 -11 25c0 9.33301 3 18.333 9 27c4.66699 7.33301 7 13 7 17c0 10.667 -6.33301 16 -19 16c-9.33301 0 -16.666 -3.33301 -21.999 -10
s-10 -16.334 -14 -29.001c-8.66699 -28.667 -19.667 -57 -33 -85s-26.333 -44.333 -39 -49l-1 -5c17.333 -1.33301 32.666 -8.83301 45.999 -22.5s20 -31.5 20 -53.5c0 -16 -3.33301 -36.167 -10 -60.5s-10 -40.5 -10 -48.5c0 -7.33301 1.66699 -14.166 5 -20.499
s8.66602 -9.5 15.999 -9.5s15.666 3.66699 24.999 11c4 3.33301 8.16699 7.16602 12.5 11.499s8.33301 9.33301 12 15l10.5 16c3.33301 5 6.83301 11.167 10.5 18.5l9 18c2.33301 4.66699 5.16602 11 8.49902 19l7 17c1.33301 3.33301 3.5 9.33301 6.5 18
s4.83301 13.667 5.5 15l20 -6c-43.333 -125.333 -91.333 -188 -144 -188c-20 0 -37 6.33301 -51 19s-21 33 -21 61c0 17.333 4 38 12 62s12 41 12 51c0 15.333 -3 26.666 -9 33.999s-18.333 11 -37 11h-60l-64 -226h-66z" />
    <glyph glyph-name="l" unicode="l" horiz-adv-x="290" 
d="M54 90c0 13.333 3.33496 33.333 10.002 60l142 516c2.66699 8 2.66699 13.667 0 17s-8 5 -16 5h-88l7 24h175l-156 -574c-10.667 -42.667 -16 -72.334 -16 -89.001c0 -18 6.33301 -27 19 -27s26 8.33301 40 25s26.5 36.334 37.5 59.001s21.167 48 30.5 76l20 -6
c-6 -17.333 -11.667 -32.333 -17 -45s-13 -28.667 -23 -48s-19.833 -35.333 -29.5 -48s-21.334 -23.667 -35.001 -33s-27.834 -14 -42.501 -14c-38.667 0 -58 34 -58 102z" />
    <glyph glyph-name="m" unicode="m" horiz-adv-x="806" 
d="M36 268c44 125.333 92.667 187.999 146 187.999c39.333 0 59 -34.333 59 -103c0 -11.333 -3 -31 -9 -59s-12 -48.333 -18 -61l4 -3c2.66699 4 7.16699 12.333 13.5 25l16 31l18 32c7.66699 13.333 14.667 24.666 21 33.999l21.5 31c8 11.333 15.667 21 23 29
s14.833 15.667 22.5 23s15.334 12.666 23.001 15.999s15.167 5 22.5 5c51.333 0 77 -31.667 77 -95c0 -24 -9 -66.667 -27 -128l3 -3c2.66699 4 8.33398 14.5 17.001 31.5s16 30.833 22 41.5s14.333 24.5 25 41.5s21 31.167 31 42.5s21 22.833 33 34.5
s24.333 20.334 37 26.001s25.667 8.5 39 8.5c20 0 35.833 -8.16699 47.5 -24.5s17.5 -40.166 17.5 -71.499c0 -14.667 -2.16699 -32.334 -6.5 -53.001s-8.83301 -37 -13.5 -49l-64 -149c-10.667 -23.333 -16 -43 -16 -59c0 -9.33301 1.83301 -17 5.5 -23s9.5 -9 17.5 -9
c12 0 24.333 5.83301 37 17.5s24.334 27 35.001 46s19.5 36.333 26.5 52s13.5 31.834 19.5 48.501l20 -6c-12 -34 -24.833 -64.333 -38.5 -91s-30.334 -49.5 -50.001 -68.5s-39.834 -28.5 -60.501 -28.5c-18 0 -33.167 8 -45.5 24s-18.5 40 -18.5 72c0 14.667 2 32 6 52
s8.66699 36.667 14 50l64 149c10.667 23.333 16 43 16 59c0 21.333 -7.33301 32 -22 32c-40.667 0 -83 -37.667 -127 -113c-26.667 -44.667 -50.334 -89.5 -71.001 -134.5s-35.667 -82.5 -45 -112.5l-20 -66h-66l83 309c0.666992 2.66699 2.16699 8 4.5 16l6 20.5
c1.66699 5.66699 3.16699 12.5 4.5 20.5s2 15 2 21c0 26 -10.667 39 -32 39c-17.333 0 -42 -24 -74 -72s-61 -99.667 -87 -155s-44.333 -99.666 -55 -132.999l-20 -66h-66l84 309c10 40 15 68.333 15 85c0 18.667 -6.33301 28 -19 28c-33.333 0 -69.333 -53.333 -108 -160z
" />
    <glyph glyph-name="n" unicode="n" horiz-adv-x="572" 
d="M36 268c44 125.333 93.001 187.999 147.001 187.999c38.667 0 58 -34 58 -102c0 -13.333 -3.16699 -33.833 -9.5 -61.5s-11.833 -47.5 -16.5 -59.5l3 -3c2.66699 4 8.33398 14.5 17.001 31.5s16 30.833 22 41.5s14.333 24.5 25 41.5s21 31.167 31 42.5s21 22.833 33 34.5
s24.333 20.334 37 26.001s25.667 8.5 39 8.5c20 0 35.833 -8.16699 47.5 -24.5s17.5 -40.166 17.5 -71.499c0 -14.667 -2.16699 -32.334 -6.5 -53.001s-8.83301 -37 -13.5 -49l-64 -149c-10.667 -23.333 -16 -43 -16 -59c0 -9.33301 1.83301 -17 5.5 -23s9.5 -9 17.5 -9
c12 0 24.333 5.83301 37 17.5s24.334 27 35.001 46s19.5 36.333 26.5 52s13.5 31.834 19.5 48.501l20 -6c-12 -34 -24.833 -64.333 -38.5 -91s-30.334 -49.5 -50.001 -68.5s-39.834 -28.5 -60.501 -28.5c-18 0 -33.167 8 -45.5 24s-18.5 40 -18.5 72c0 14.667 2 32 6 52
s8.66699 36.667 14 50l64 149c10.667 23.333 16 43 16 59c0 21.333 -7.33301 32 -22 32c-40.667 0 -83 -37.667 -127 -113c-26.667 -44.667 -50.334 -89.5 -71.001 -134.5s-35.667 -82.5 -45 -112.5l-20 -66h-66l84 310c10 40 15 68.333 15 85c0 18 -6.33301 27 -19 27
c-13.333 0 -27 -8.33301 -41 -25s-26.333 -36.334 -37 -59.001s-20.667 -48 -30 -76z" />
    <glyph glyph-name="o" unicode="o" horiz-adv-x="462" 
d="M124 104c0 -27.333 5.66992 -49.5039 17.0029 -66.5039s27.666 -25.5 48.999 -25.5c14.667 0 28 3.33301 40 10s22.833 16.334 32.5 29.001s17.667 24.834 24 36.501s13.166 25.834 20.499 42.501c14 32 25.333 67.167 34 105.5s13 73.166 13 104.499
c0 27.333 -5.33301 49.5 -16 66.5s-26.667 25.5 -48 25.5c-14.667 0 -28.167 -3.33301 -40.5 -10s-23.333 -16.167 -33 -28.5s-17.834 -24.666 -24.501 -36.999s-13.667 -26.5 -21 -42.5c-14 -32 -25.333 -67.167 -34 -105.5s-13 -73.166 -13 -104.499zM52.0029 163.996
c0 34.667 6.66797 69.667 20.001 105s30.666 66.666 51.999 93.999s47.166 49.666 77.499 66.999s61.166 26 92.499 26c16 0 31.833 -3.66699 47.5 -11s29.834 -18 42.501 -32s22.834 -32.5 30.501 -55.5s11.5 -48.833 11.5 -77.5c0 -34.667 -6.5 -69.667 -19.5 -105
s-30.167 -66.666 -51.5 -93.999s-47 -49.666 -77 -66.999s-60.667 -26 -92 -26c-35.333 0 -66.5 15.333 -93.5 46s-40.5 74 -40.5 130z" />
    <glyph glyph-name="p" unicode="p" horiz-adv-x="540" 
d="M200 104c0 -29.333 6 -52.001 18 -68.001s28.333 -24 49 -24c11.333 0 22.333 3.66699 33 11s20.667 16.833 30 28.5s17.5 23.334 24.5 35.001s13.5 24.167 19.5 37.5c17.333 37.333 31 77 41 119s15 80.667 15 116c0 19.333 -3.66699 36.333 -11 51s-19 22 -35 22
c-24 0 -47.667 -12.333 -71 -37s-44.333 -58.334 -63 -101.001c-13.333 -30.667 -25 -64.167 -35 -100.5s-15 -66.166 -15 -89.499zM-76 -238.001l8.00098 28h74c8 0 14 1.66699 18 5s7 9 9 17l137 509c8 32 12 56.667 12 74c0 10 -1.5 17 -4.5 21s-8.16699 6 -15.5 6
c-12 0 -25.167 -8.66699 -39.5 -26s-27 -37.5 -38 -60.5s-20.833 -47.5 -29.5 -73.5l-20 6c44 125.333 93.333 188 148 188c11.333 0 20.833 -3 28.5 -9s13.5 -14 17.5 -24s6.83301 -20 8.5 -30s2.5 -20.667 2.5 -32l-1 -34l3 -2c5.33301 12.667 12.666 25.667 21.999 39
s20.333 27.333 33 42s27.334 26.667 44.001 36s33 14 49 14c35.333 0 62.833 -12.5 82.5 -37.5s29.5 -58.167 29.5 -99.5c0 -40.667 -6 -80 -18 -118s-25.667 -68.667 -41 -92c-23.333 -36.667 -50.5 -66 -81.5 -88s-62.5 -33 -94.5 -33
c-20.667 0 -39.334 7.16699 -56.001 21.5s-28.667 36.5 -36 66.5l-4 2l-70 -266c-2 -8 -2 -13.667 0 -17s7 -5 15 -5h122l-8 -28h-306z" />
    <glyph glyph-name="q" unicode="q" horiz-adv-x="480" 
d="M114 85c0 -19.333 3.66699 -36.332 11 -50.999s19 -22 35 -22c24 0 47.667 12.333 71 37s44.333 58.334 63 101.001c13.333 30.667 25 64.167 35 100.5s15 66.166 15 89.499c0 29.333 -6 52 -18 68s-28.333 24 -49 24c-11.333 0 -22.333 -3.66699 -33 -11
s-20.667 -16.833 -30 -28.5s-17.5 -23.334 -24.5 -35.001s-13.5 -24.167 -19.5 -37.5c-17.333 -37.333 -31 -77 -41 -119s-15 -80.667 -15 -116zM42 125.001c0 40 7.50098 79.5 22.501 118.5s31.167 72.167 48.5 99.5c22 35.333 48.333 63 79 83s61 30 91 30
c20.667 0 39.334 -8.5 56.001 -25.5s28 -44.167 34 -81.5h5l66 95h18l-172 -632c-2 -8 -1.66699 -13.667 1 -17s8 -5 16 -5h74l-8 -28h-307l8 28h121c8 0 14 1.66699 18 5s7 9 9 17c54 196 81.667 297.667 83 305l-3 2c-6.66699 -15.333 -14.667 -30 -24 -44
s-20.333 -27.833 -33 -41.5s-26.834 -24.667 -42.501 -33s-31.834 -12.5 -48.501 -12.5c-35.333 0 -62.833 12.5 -82.5 37.5s-29.5 58.167 -29.5 99.5z" />
    <glyph glyph-name="r" unicode="r" horiz-adv-x="430" 
d="M36 268c44 125.333 93 187.998 147 187.998c38.667 0 58 -34 58 -102c0 -18.667 -3 -38 -9 -58l7 -2c10 21.333 19.5 40 28.5 56s19.667 32.833 32 50.5s25.333 31.334 39 41.001s27.167 14.5 40.5 14.5c22 0 38.667 -6.66699 50 -20s17 -29.666 17 -48.999
c0 -17.333 -5.66699 -32.833 -17 -46.5s-26.333 -20.5 -45 -20.5c-11.333 0 -20.666 4 -27.999 12s-11 18 -11 30s4 22.667 12 32c6.66699 6.66699 10 11.667 10 15c0 2 -0.166992 3.83301 -0.5 5.5s-1.5 3.16699 -3.5 4.5s-5 2 -9 2c-15.333 0 -36 -22.667 -62 -68
s-49.833 -94.833 -71.5 -148.5s-38.834 -101.167 -51.501 -142.5l-19 -62h-66l84 310c10 40 15 68.333 15 85c0 18 -6.33301 27 -19 27c-18.667 0 -37.667 -15.833 -57 -47.5s-36.333 -69.167 -51 -112.5z" />
    <glyph glyph-name="s" unicode="s" horiz-adv-x="420" 
d="M24 106c0 16 4.66992 30.9951 14.0029 44.9951s23 21 41 21c10 0 18.667 -3.5 26 -10.5s11 -16.5 11 -28.5c0 -16.667 -7 -27.334 -21 -32.001c-8.66699 -2 -15.167 -5.5 -19.5 -10.5s-6.5 -12.833 -6.5 -23.5c0 -10 3.5 -19 10.5 -27s16.167 -13.833 27.5 -17.5
s22.333 -6.33398 33 -8.00098s21 -2.5 31 -2.5c35.333 0 62.333 8 81 24s28 36 28 60c0 29.333 -10.667 51.666 -32 66.999l-83 63c-31.333 20 -47 50.333 -47 91c0 22 4.66699 42 14 60s21.333 32.667 36 44s31 20 49 26s36.333 9 55 9c20 0 38.667 -4 56 -12
s30.666 -18.167 39.999 -30.5s16.666 -24.666 21.999 -36.999s8 -23.166 8 -32.499c0 -15.333 -4.33301 -28.666 -13 -39.999s-21.667 -17 -39 -17c-10.667 0 -20 3.5 -28 10.5s-12 15.833 -12 26.5c0 13.333 4.33301 23.333 13 30c2.66699 2.66699 7.33398 6 14.001 10
c8 4.66699 12 10 12 16c0 15.333 -8.5 27.833 -25.5 37.5s-34.833 14.5 -53.5 14.5c-26.667 0 -50 -7.66699 -70 -23s-30 -36.666 -30 -63.999c0 -11.333 1.33301 -20.666 4 -27.999s5.66699 -12.666 9 -15.999s8.66602 -7.33301 15.999 -12l93 -70
c9.33301 -7.33301 17 -14 23 -20s11.667 -14.667 17 -26s8 -23.666 8 -36.999c0 -18 -3.83301 -35.667 -11.5 -53s-18.5 -33.166 -32.5 -47.499s-32.167 -25.833 -54.5 -34.5s-46.5 -13 -72.5 -13c-44.667 0 -79.334 11.833 -104.001 35.5s-37 51.167 -37 82.5z" />
    <glyph glyph-name="t" unicode="t" horiz-adv-x="320" 
d="M52 72c0 25.333 3.66504 52.6641 10.998 81.9971l72 262h-69l7 28h70l65 240h66l-65 -240h113l-7 -28h-114l-83 -308c-5.33301 -17.333 -8 -36 -8 -56c0 -6.66699 2.33301 -13.167 7 -19.5s12 -9.5 22 -9.5c8.66699 0 17.334 2.66699 26.001 8
c15.333 10.667 28.333 28.834 39 54.501s21.667 57.834 33 96.501l20 -6c-4.66699 -20 -9.66699 -38.167 -15 -54.5s-11.666 -33.166 -18.999 -50.499s-15.5 -31.833 -24.5 -43.5s-19.667 -21.167 -32 -28.5s-25.833 -11 -40.5 -11c-22 0 -39.833 7.5 -53.5 22.5
s-20.5 35.5 -20.5 61.5z" />
    <glyph glyph-name="u" unicode="u" horiz-adv-x="572" 
d="M36 268c12 34 24.832 64.334 38.499 91.001s30.334 49.5 50.001 68.5s39.834 28.5 60.501 28.5c18 0 33.167 -8 45.5 -24s18.5 -40 18.5 -72c0 -14.667 -2 -32 -6 -52s-8.66699 -36.667 -14 -50l-64 -149c-10.667 -23.333 -16 -43 -16 -59c0 -21.333 7.33301 -32 22 -32
c40.667 0 83 37.667 127 113c26.667 44.667 50.334 89.5 71.001 134.5s35.667 82.5 45 112.5l20 66h66l-84 -310c-10 -40 -15 -68.333 -15 -85c0 -18 6.33301 -27 19 -27c13.333 0 27 8.33301 41 25s26.333 36.334 37 59.001s20.667 48 30 76l20 -6
c-44 -125.333 -93 -188 -147 -188c-38.667 0 -58 34 -58 102c0 13.333 3.16699 33.833 9.5 61.5s11.833 47.5 16.5 59.5l-3 3c-2.66699 -4 -8.33398 -14.5 -17.001 -31.5s-16 -30.833 -22 -41.5s-14.333 -24.5 -25 -41.5s-21 -31.167 -31 -42.5s-21 -22.833 -33 -34.5
s-24.333 -20.334 -37 -26.001s-25.667 -8.5 -39 -8.5c-20 0 -35.833 8.16699 -47.5 24.5s-17.5 40.166 -17.5 71.499c0 14.667 2.16699 32.334 6.5 53.001s8.83301 37 13.5 49l64 149c10.667 23.333 16 43 16 59c0 9.33301 -1.83301 17 -5.5 23s-9.5 9 -17.5 9
c-12 0 -24.333 -5.83301 -37 -17.5s-24.334 -27 -35.001 -46s-19.5 -36.333 -26.5 -52s-13.5 -31.834 -19.5 -48.501z" />
    <glyph glyph-name="v" unicode="v" horiz-adv-x="472" 
d="M36 268c12 34 24.8301 64.333 38.4971 91s30.334 49.5 50.001 68.5s39.834 28.5 60.501 28.5c18 0 33.167 -8 45.5 -24s18.5 -40 18.5 -72c0 -14.667 -2 -32 -6 -52s-8.66699 -36.667 -14 -50l-64 -149c-10.667 -23.333 -16 -43 -16 -59c0 -13.333 3.16699 -23 9.5 -29
s16.833 -9 31.5 -9c25.333 0 50.166 7.33301 74.499 22s45.333 33.667 63 57s33.5 48.333 47.5 75s24.333 52.667 31 78s10 47.333 10 66c0 13.333 -2.66699 22.5 -8 27.5s-12.666 8.5 -21.999 10.5c-13.333 2.66699 -25.666 9 -36.999 19s-17 23 -17 39
c0 15.333 4.5 27.5 13.5 36.5s20.833 13.5 35.5 13.5c16.667 0 30.667 -6 42 -18s19 -26 23 -42s6 -33.333 6 -52c0 -12 -1.66699 -27 -5 -45s-8.5 -38.333 -15.5 -61s-15.5 -45.5 -25.5 -68.5s-22.667 -45.333 -38 -67s-32 -41 -50 -58s-39.167 -30.667 -63.5 -41
s-49.833 -15.5 -76.5 -15.5c-21.333 0 -40.166 8.5 -56.499 25.5s-24.5 40.5 -24.5 70.5c0 14.667 2.16699 32.334 6.5 53.001s8.83301 37 13.5 49l64 149c10.667 23.333 16 43 16 59c0 9.33301 -1.83301 17 -5.5 23s-9.5 9 -17.5 9c-12 0 -24.333 -5.83301 -37 -17.5
s-24.334 -27 -35.001 -46s-19.5 -36.333 -26.5 -52s-13.5 -31.834 -19.5 -48.501z" />
    <glyph glyph-name="w" unicode="w" horiz-adv-x="716" 
d="M36 268c12 34 24.8291 64.3311 38.4961 90.998s30.334 49.5 50.001 68.5s39.834 28.5 60.501 28.5c18 0 33.167 -8 45.5 -24s18.5 -40 18.5 -72c0 -14.667 -2 -32 -6 -52s-8.66699 -36.667 -14 -50l-64 -149c-10.667 -23.333 -16 -43 -16 -59
c0 -25.333 11.667 -38 35 -38c18.667 0 39.334 10.5 62.001 31.5s44 47.333 64 79s38.167 65.5 54.5 101.5s28.833 69.333 37.5 100l32 120h66l-91 -336c-5.33301 -20 -8 -40.667 -8 -62c0 -9.33301 2.83301 -17.333 8.5 -24s13.834 -10 24.501 -10
c25.333 0 50.166 7.33301 74.499 22s45.333 33.667 63 57s33.5 48.333 47.5 75s24.333 52.667 31 78s10 47.333 10 66c0 13.333 -2.66699 22.5 -8 27.5s-12.666 8.5 -21.999 10.5c-13.333 2.66699 -25.666 9 -36.999 19s-17 23 -17 39c0 15.333 4.5 27.5 13.5 36.5
s20.833 13.5 35.5 13.5c16.667 0 30.667 -6 42 -18s19 -26 23 -42s6 -33.333 6 -52c0 -12 -1.66699 -27 -5 -45s-8.5 -38.333 -15.5 -61s-15.5 -45.5 -25.5 -68.5s-22.667 -45.333 -38 -67s-32 -41 -50 -58s-39.167 -30.667 -63.5 -41s-49.833 -15.5 -76.5 -15.5
c-23.333 0 -42.333 7 -57 21s-22 37 -22 69c0 22.667 3 45 9 67l-6 2c-21.333 -43.333 -48 -80.666 -80 -111.999s-62.667 -47 -92 -47c-22 0 -40.333 8.33301 -55 25s-22 40.334 -22 71.001c0 14.667 2.16699 32.334 6.5 53.001s8.83301 37 13.5 49l64 149
c10.667 23.333 16 43 16 59c0 9.33301 -1.83301 17 -5.5 23s-9.5 9 -17.5 9c-12 0 -24.333 -5.83301 -37 -17.5s-24.334 -27 -35.001 -46s-19.5 -36.333 -26.5 -52s-13.5 -31.834 -19.5 -48.501z" />
    <glyph glyph-name="x" unicode="x" horiz-adv-x="564" 
d="M25 59c0 22 5.99707 40.3291 17.9971 54.9961c12.667 16 28 24 46 24c8.66699 0 16.667 -2.66699 24 -8c9.33301 -6.66699 14 -17.334 14 -32.001c0 -22.667 -10.333 -38.667 -31 -48c-6.66699 -3.33301 -11.167 -6.16602 -13.5 -8.49902s-3.5 -6.83301 -3.5 -13.5
c0 -5.33301 2 -9.33301 6 -12s9.33301 -4 16 -4c31.333 0 59.333 17.833 84 53.5s44.334 81.167 59.001 136.5l25 92c5.33301 19.333 8 41.333 8 66c0 21.333 -4.16699 38.666 -12.5 51.999s-21.5 20 -39.5 20c-26 0 -52.167 -14.667 -78.5 -44s-47.166 -62.333 -62.499 -99
l-21 7c7.33301 19.333 16.5 37.833 27.5 55.5s23.667 34.667 38 51s30.5 29.333 48.5 39s36.667 14.5 56 14.5c28.667 0 50 -9.83301 64 -29.5s22 -43.5 24 -71.5l4 -2c44 68.667 92 103 144 103c11.333 0 22.333 -2.16699 33 -6.5s18.667 -9.5 24 -15.5
c12 -13.333 18 -29.666 18 -48.999c0 -22 -6 -40.333 -18 -55c-12 -16 -27.333 -24 -46 -24c-8.66699 0 -16.667 2.66699 -24 8c-9.33301 6.66699 -14 17.334 -14 32.001c0 20 9.66699 34.667 29 44c7.33301 3.33301 12.333 6.83301 15 10.5s4 8.83398 4 15.501
c0 5.33301 -2 9.33301 -6 12s-9.33301 4 -16 4c-16 0 -31.5 -5.16699 -46.5 -15.5s-28.333 -24.666 -40 -42.999s-22.167 -38.166 -31.5 -59.499s-17.666 -45.333 -24.999 -72l-25 -92c-5.33301 -18 -8 -40 -8 -66c0 -21.333 4.33301 -38.666 13 -51.999s21.667 -20 39 -20
c26 0 52.167 14.667 78.5 44s47.166 62.333 62.499 99l21 -7c-8 -19.333 -17.333 -37.833 -28 -55.5s-23 -34.667 -37 -51s-30.167 -29.333 -48.5 -39s-37.166 -14.5 -56.499 -14.5c-28 0 -49.333 9.83301 -64 29.5s-22.667 43.5 -24 71.5l-4 2
c-44 -68.667 -92 -103 -144 -103c-11.333 0 -22.5 2.16699 -33.5 6.5s-18.833 9.5 -23.5 15.5c-12 13.333 -18 29.666 -18 48.999z" />
    <glyph glyph-name="y" unicode="y" horiz-adv-x="512" 
d="M24 -150c0 18.667 5.32812 33.3291 15.9951 43.9961s23.334 16 38.001 16c13.333 0 23.333 -4 30 -12s10 -17.333 10 -28c0 -16.667 -6.33301 -30 -19 -40c-6 -5.33301 -9 -12.666 -9 -21.999c0 -21.333 14.333 -32 43 -32c23.333 0 43.333 3.83301 60 11.5
s33.334 21.834 50.001 42.501c24.667 30.667 46.667 82 66 154l43 161l-6 2c-21.333 -43.333 -48 -80.666 -80 -111.999s-62.667 -47 -92 -47c-22 0 -40.333 8.33301 -55 25s-22 40.334 -22 71.001c0 14.667 2.16699 32.334 6.5 53.001s8.83301 37 13.5 49l64 149
c10.667 23.333 16 43 16 59c0 9.33301 -1.83301 17 -5.5 23s-9.5 9 -17.5 9c-12 0 -24.333 -5.83301 -37 -17.5s-24.334 -27 -35.001 -46s-19.5 -36.333 -26.5 -52s-13.5 -31.834 -19.5 -48.501l-20 6c12 34 24.833 64.333 38.5 91s30.334 49.5 50.001 68.5
s39.834 28.5 60.501 28.5c18 0 33.167 -8 45.5 -24s18.5 -40 18.5 -72c0 -14.667 -2 -32 -6 -52s-8.66699 -36.667 -14 -50l-64 -149c-10.667 -23.333 -16 -43 -16 -59c0 -25.333 11.667 -38 35 -38c18.667 0 39.334 10.5 62.001 31.5s44 47.333 64 79
s38.167 65.5 54.5 101.5s28.833 69.333 37.5 100l33 120h66l-118 -444c-7.33301 -28.667 -19.666 -60.5 -36.999 -95.5s-38.333 -65.167 -63 -90.5c-20.667 -22 -43.5 -37.833 -68.5 -47.5s-48.5 -14.5 -70.5 -14.5c-36 0 -65 8.66699 -87 26s-33 41.333 -33 72z" />
    <glyph glyph-name="z" unicode="z" 
d="M26 30c0 24 5.33789 47.3271 16.0049 69.9941s24.667 42.667 42 60s35.5 32.333 54.5 45s38.5 23.334 58.5 32.001c58.667 24 100.167 43.833 124.5 59.5s40.833 34.167 49.5 55.5c-1.33301 2 -2 3.33301 -2 4c-18 -13.333 -35 -20 -51 -20c-10 0 -19.5 1.33301 -28.5 4
s-15.833 5.66699 -20.5 9l-18 13c-18 14.667 -34.333 22 -49 22c-16 0 -30.167 -3.16699 -42.5 -9.5s-22.833 -15.333 -31.5 -27s-15.334 -21.834 -20.001 -30.501s-9.33398 -19 -14.001 -31l-16 7c4 15.333 9.66699 31.333 17 48s16.666 34 27.999 52s25.333 33 42 45
s33.667 18 51 18c30 0 58.333 -19 85 -57c8.66699 -11.333 15.834 -19.666 21.501 -24.999s11.5 -8 17.5 -8c19.333 0 29 6 29 18c0 6.66699 -3 11.334 -9 14.001c-10.667 5.33301 -16 14 -16 26c0 9.33301 2.33301 17 7 23s11.667 9 21 9c12.667 0 22.167 -4.5 28.5 -13.5
s9.5 -20.5 9.5 -34.5c0 -33.333 -16.667 -68.666 -50 -105.999s-73.666 -66 -120.999 -86c-67.333 -28 -110.833 -48.667 -130.5 -62s-31.5 -29 -35.5 -47c28 -7.33301 53.333 -17 76 -29c34 -17.333 65.667 -26 95 -26c16 0 30.833 3.83301 44.5 11.5s25 18 34 31
s16.5 25.5 22.5 37.5s11.333 25 16 39l19 -8l-15 -45c-4.66699 -13.333 -11.5 -28.666 -20.5 -45.999s-18.333 -31.666 -28 -42.999s-21.834 -21 -36.501 -29s-30.334 -12 -47.001 -12c-17.333 0 -33.5 3.33301 -48.5 10s-26.5 13.5 -34.5 20.5s-17 16.167 -27 27.5
c-18 20 -32 30 -42 30c-14 0 -21 -5.33301 -21 -16c0 -7.33301 5 -12.666 15 -15.999c11.333 -4.66699 17 -13 17 -25c0 -8.66699 -2.33301 -16 -7 -22s-12.334 -9 -23.001 -9s-19.334 4 -26.001 12s-10 18 -10 30z" />
    <glyph glyph-name="braceleft" unicode="{" horiz-adv-x="420" 
d="M106 -71c0 21.333 5.33105 45.501 15.998 72.501s22.334 51.167 35.001 72.5s24.334 44.333 35.001 69s16 46 16 64c0 20 -7.33301 33.5 -22 40.5s-36.667 10.5 -66 10.5l5 18c14 0 25.667 0.5 35 1.5s19.833 3 31.5 6s21.167 7.83301 28.5 14.5
s14.166 15.334 20.499 26.001s11.166 24.5 14.499 41.5s5 36.833 5 59.5v48c0 37.333 4.66699 70.333 14 99s23.333 53 42 73s40 36.667 64 50s52.667 25 86 35l6 -24c-18.667 -5.33301 -33.667 -10.333 -45 -15s-22.666 -10.334 -33.999 -17.001s-20 -13.667 -26 -21
s-11.667 -16.5 -17 -27.5s-9.16602 -23.667 -11.499 -38s-3.83301 -31.5 -4.5 -51.5v-61c-4 -111.333 -50.667 -180.333 -140 -207l-1 -2c42 -14.667 63 -45.334 63 -92.001c0 -22.667 -5.33301 -48 -16 -76s-22.334 -52.333 -35.001 -73s-24.334 -42.667 -35.001 -66
s-16 -42.666 -16 -57.999c0 -10 2 -18.667 6 -26s10.333 -14 19 -20s16.834 -10.833 24.501 -14.5s17.834 -7.83398 30.501 -12.501l-19 -24c-72.667 26 -109 67.667 -109 125z" />
    <glyph glyph-name="bar" unicode="|" horiz-adv-x="284" 
d="M144 -198v928h44v-928h-44z" />
    <glyph glyph-name="braceright" unicode="}" horiz-adv-x="420" 
d="M-8 -172c18.667 5.33301 33.6689 10.332 45.002 14.999s22.666 10.334 33.999 17.001s20 13.667 26 21s11.667 16.5 17 27.5s9.16602 23.667 11.499 38s3.83301 31.5 4.5 51.5v61c4 111.333 50.667 180.333 140 207l1 2c-42 14.667 -63 45.334 -63 92.001
c0 22.667 5.33301 48 16 76s22.334 52.333 35.001 73s24.334 42.667 35.001 66s16 42.666 16 57.999c0 10 -2 18.667 -6 26s-10.333 14 -19 20s-16.834 10.833 -24.501 14.5s-17.834 7.83398 -30.501 12.501l19 24c72.667 -26 109 -67.667 109 -125
c0 -21.333 -5.33301 -45.5 -16 -72.5s-22.334 -51.167 -35.001 -72.5s-24.334 -44.333 -35.001 -69s-16 -46 -16 -64c0 -20 7.33301 -33.5 22 -40.5s36.667 -10.5 66 -10.5l-5 -18c-14 0 -25.667 -0.5 -35 -1.5s-19.833 -3 -31.5 -6s-21.167 -7.83301 -28.5 -14.5
s-14.166 -15.334 -20.499 -26.001s-11.166 -24.5 -14.499 -41.5s-5 -36.833 -5 -59.5v-48c0 -37.333 -4.66699 -70.333 -14 -99s-23.333 -53 -42 -73s-40 -36.667 -64 -50s-52.667 -25 -86 -35z" />
    <glyph glyph-name="asciitilde" unicode="~" horiz-adv-x="660" 
d="M60 253c0 26 10 48.999 30 68.999s48 30 84 30c20 0 43 -3.66699 69 -11s48 -14.666 66 -21.999l73 -31l64.5 -28.5c15 -6.33301 32.667 -12.5 53 -18.5s37.166 -9 50.499 -9c10.667 0 20 4.16699 28 12.5s12 19.5 12 33.5c0 25.333 -14 45.333 -42 60l12 21
c20.667 -9.33301 36.5 -21.833 47.5 -37.5s16.5 -33.167 16.5 -52.5c0 -26 -10 -49 -30 -69s-48 -30 -84 -30c-20 0 -43.167 3.66699 -69.5 11s-48 14.5 -65 21.5l-73.5 31.5c-61.333 26.667 -102.666 43 -123.999 49c-17.333 4.66699 -32 7 -44 7
c-10.667 0 -20 -4.16699 -28 -12.5s-12 -19.5 -12 -33.5c0 -25.333 14 -45.333 42 -60l-12 -21c-20.667 9.33301 -36.5 21.833 -47.5 37.5s-16.5 33.167 -16.5 52.5z" />
    <glyph glyph-name="nonbreakingspace" unicode="&#xa0;" horiz-adv-x="280" 
 />
    <glyph glyph-name="exclamdown" unicode="&#xa1;" horiz-adv-x="280" 
d="M142 396c0 18 5.83301 32.833 17.5 44.5s26.5 17.5 44.5 17.5s32.833 -5.83301 44.5 -17.5s17.5 -26.5 17.5 -44.5s-5.83301 -32.833 -17.5 -44.5s-26.5 -17.5 -44.5 -17.5s-32.833 5.83301 -44.5 17.5s-17.5 26.5 -17.5 44.5zM-4 -178c0 25.333 19.332 82 57.999 170
c21.333 49.333 36 85.333 44 108l70 188h24l-36 -203c-8 -46 -14.333 -90 -19 -132c-6 -50 -12.333 -93.667 -19 -131c-9.33301 -46.667 -32.666 -70 -69.999 -70c-17.333 0 -30.333 6.16699 -39 18.5s-13 29.5 -13 51.5z" />
    <glyph glyph-name="cent" unicode="&#xa2;" horiz-adv-x="580" 
d="M136 158c0 86.667 29.3291 161.003 87.9961 223.003c22.667 24 45 42.167 67 54.5s46.667 19.166 74 20.499l33 120h24l-32 -120c24.667 0 47.5 -9 68.5 -27s31.5 -42.333 31.5 -73c0 -20 -5.66699 -36.667 -17 -50s-24.666 -20 -39.999 -20
c-12.667 0 -22.334 3.5 -29.001 10.5s-10 15.167 -10 24.5c0 16.667 10.667 33 32 49c7.33301 6 11 13.667 11 23c0 11.333 -4.66699 20.666 -14 27.999s-22.666 11 -39.999 11l-115 -420h7c32.667 0 62.334 10.667 89.001 32s48.334 48.666 65.001 81.999l21 -7
c-7.33301 -15.333 -16.166 -30 -26.499 -44s-22.833 -28 -37.5 -42s-32 -25 -52 -33s-41.333 -12 -64 -12h-8l-30 -108h-24l31 112c-31.333 8 -56.333 27.5 -75 58.5s-28 66.833 -28 107.5zM207.996 98.0029c0 -41.333 12.667 -68 38 -80l112 414
c-7.33301 0 -16.5 -3.5 -27.5 -10.5s-21.833 -16.833 -32.5 -29.5c-24 -29.333 -45.333 -74 -64 -134c-17.333 -56 -26 -109.333 -26 -160z" />
    <glyph glyph-name="sterling" unicode="&#xa3;" horiz-adv-x="720" 
d="M-32 41c0 20.667 7.5 38.335 22.5 53.002s33.167 25.334 54.5 32.001s43.666 10 66.999 10c34.667 0 70.334 -5 107.001 -15c26 45.333 49.667 111.666 71 198.999c-38.667 5.33301 -68.667 8 -90 8c-20 0 -36 -1.66699 -48 -5s-26.667 -9 -44 -17l-8 22
c26.667 18.667 60 28 100 28c28.667 0 61 -3 97 -9c60 235.333 152.333 353 277 353c18.667 0 35.334 -2.66699 50.001 -8s26.334 -12.333 35.001 -21s16 -18.167 22 -28.5s10 -20 12 -29s3 -17.5 3 -25.5c0 -24 -6.66699 -43 -20 -57s-28.666 -21 -45.999 -21
c-15.333 0 -29.333 4 -42 12s-19 21 -19 39c0 12.667 4 22.334 12 29.001s16.333 10 25 10c8 0 14.667 -1.33301 20 -4s11.333 -4 18 -4c5.33301 0 9.33301 1.16699 12 3.5s4 6.83301 4 13.5c0 18 -7 34 -21 48s-36 21 -66 21c-16.667 0 -32.334 -3.16699 -47.001 -9.5
s-27.334 -14.333 -38.001 -24s-20.667 -22.5 -30 -38.5s-17 -31.333 -23 -46s-12 -32.334 -18 -53.001s-10.667 -38.334 -14 -53.001s-7 -32.667 -11 -54c-4 -24 -9.33301 -46.667 -16 -68c36 -6.66699 70.667 -10 104 -10s64 7.33301 92 22l8 -22
c-9.33301 -7.33301 -23.333 -13.833 -42 -19.5s-38 -8.5 -58 -8.5c-32 0 -69.333 3.66699 -112 11c-25.333 -80 -59 -146.333 -101 -199l50 -19c30 -11.333 54.833 -20 74.5 -26s38.5 -9 56.5 -9c26 0 49.833 3.5 71.5 10.5s39.834 16 54.501 27s27.834 24.167 39.501 39.5
s20.667 30.833 27 46.5s11.5 32.167 15.5 49.5l20 -6c-6 -32 -16.167 -64 -30.5 -96s-32.833 -58 -55.5 -78c-24 -22 -48.833 -37.667 -74.5 -47s-58.5 -14 -98.5 -14c-18 0 -37.333 3 -58 9s-38.334 12.5 -53.001 19.5s-33.334 16.833 -56.001 29.5l-29 15
c-52.667 -48.667 -110.334 -73 -173.001 -73c-21.333 0 -40 4.66699 -56 14s-24 23.666 -24 42.999zM-4 43.001c0 -8 1.66797 -14.5 5.00098 -19.5s8.33301 -8.5 15 -10.5s12.5 -3.33301 17.5 -4s11.167 -1 18.5 -1c52 0 97 21.667 135 65c-43.333 19.333 -83 29 -119 29
c-18.667 0 -35.334 -5.66699 -50.001 -17s-22 -25.333 -22 -42z" />
    <glyph glyph-name="currency" unicode="&#xa4;" horiz-adv-x="580" 
d="M138 342c0 -52 17 -95 51 -129s77 -51 129 -51s95 17 129 51s51 77 51 129s-17 95.333 -51 130s-77 52 -129 52s-95 -17.333 -129 -52s-51 -78 -51 -130zM80 136l67 67c-32.667 40 -49 86.333 -49 139c0 52 16.667 98.667 50 140l-68 68l31 31l67 -67
c41.333 33.333 88 50 140 50s98.667 -16.667 140 -50l67 67l31 -31l-68 -68c33.333 -41.333 50 -88 50 -140c0 -52.667 -16.333 -99 -49 -139l67 -67l-31 -31l-67 67c-41.333 -33.333 -88 -50 -140 -50s-98.667 16.667 -140 50l-67 -67z" />
    <glyph glyph-name="yen" unicode="&#xa5;" horiz-adv-x="580" 
d="M64 0l9 32.002h76c18 0 29.667 9.33301 35 28l40 146h-140l9 32h140l16 60h-140l9 32h134l-62 283c-2 8.66699 -3.83301 15.334 -5.5 20.001s-4.83398 9 -9.50098 13s-11 6 -19 6h-63l9 32h260l-9 -32h-41c-18 0 -28.333 -5.66699 -31 -17
c-2 -6.66699 -1.66699 -15 1 -25l53 -252l168 204c14 18 21 34.667 21 50c0 5.33301 -0.666992 10.666 -2 15.999s-4.66602 10.666 -9.99902 15.999s-12.333 8 -21 8h-42l9 32h232l-9 -32h-38c-13.333 0 -25.5 -4.33301 -36.5 -13s-24.167 -22.334 -39.5 -41.001l-221 -268
h140l-9 -32h-140l-16 -60h140l-9 -32h-140l-40 -146c-5.33301 -18.667 1.66699 -28 21 -28h76l-9 -32h-296z" />
    <glyph glyph-name="brokenbar" unicode="&#xa6;" horiz-adv-x="284" 
d="M144 370v360h44v-360h-44zM144 -168v360h44v-360h-44z" />
    <glyph glyph-name="section" unicode="&#xa7;" horiz-adv-x="620" 
d="M72 -54c0 24 7.33496 44.333 22.002 61s33.334 25 56.001 25c10.667 0 20.667 -3.66699 30 -11s14 -18.333 14 -33c0 -12 -4 -22.167 -12 -30.5s-17 -12.5 -27 -12.5c-4.66699 0 -10.334 1.33301 -17.001 4c-4 2 -7.66699 3 -11 3c-2 0 -4 -0.666992 -6 -2
c-3.33301 -2.66699 -5 -10.667 -5 -24c0 -22 9.33301 -41.167 28 -57.5s42.667 -24.5 72 -24.5c13.333 0 26.666 2.5 39.999 7.5s26.166 12.333 38.499 22s22.333 23.167 30 40.5s11.5 37.333 11.5 60c0 14 -3.33301 27.167 -10 39.5s-13.5 21.5 -20.5 27.5
s-17.5 14.333 -31.5 25l-110 83c-40 31.333 -60 68.333 -60 111c0 32 13 65.333 39 100s55.667 60.334 89 77.001c-13.333 20.667 -20 48.667 -20 84c0 28.667 5.66699 55 17 79s26.333 43.167 45 57.5s38.334 25.333 59.001 33s41 11.5 61 11.5
c21.333 0 40.666 -4 57.999 -12s31.333 -18.667 42 -32s19 -27.666 25 -42.999s9 -30.333 9 -45c0 -24 -7.33301 -44.333 -22 -61s-33.334 -25 -56.001 -25c-10.667 0 -20.667 3.66699 -30 11s-14 18.333 -14 33c0 12 4 22.167 12 30.5s17 12.5 27 12.5
c5.33301 0 10 -0.666992 14 -2c5.33301 -1.33301 8.66602 -2 9.99902 -2c4 0 7 1 9 3c4 4 6 10.667 6 20c0 22 -9.33301 41.167 -28 57.5s-42.667 24.5 -72 24.5c-13.333 0 -26.666 -2.66699 -39.999 -8s-26.166 -13.333 -38.499 -24s-22.333 -25 -30 -43
s-11.5 -38 -11.5 -60c0 -10 1.33301 -19 4 -27s7 -15.5 13 -22.5s11.5 -12.667 16.5 -17s12.5 -9.83301 22.5 -16.5l116 -87c40 -30.667 60 -67.667 60 -111c0 -32 -13 -65.333 -39 -100s-55.667 -60.334 -89 -77.001c13.333 -20.667 20 -48.667 20 -84
c0 -28.667 -5.66699 -55 -17 -79s-26.333 -43.167 -45 -57.5s-38.334 -25.333 -59.001 -33s-41 -11.5 -61 -11.5c-21.333 0 -40.666 4 -57.999 12s-31.333 18.667 -42 32s-19 27.666 -25 42.999s-9 30.333 -9 45zM156.002 290c0 -26 13.333 -49.333 40 -70l135 -102
c10 -8 19 -16.333 27 -25c24.667 14 45.167 33.333 61.5 58s24.5 49.667 24.5 75c0 26 -13.333 49.333 -40 70l-135 102c-10 8 -19 16.333 -27 25c-24.667 -14 -45.167 -33.333 -61.5 -58s-24.5 -49.667 -24.5 -75z" />
    <glyph glyph-name="dieresis" unicode="&#xa8;" 
d="M374 596c0 14.667 5 27 15 37s22.333 15 37 15s27 -5 37 -15s15 -22.333 15 -37s-5 -27 -15 -37s-22.333 -15 -37 -15s-27 5 -37 15s-15 22.333 -15 37zM186 596c0 14.667 5 27 15 37s22.333 15 37 15s27 -5 37 -15s15 -22.333 15 -37s-5 -27 -15 -37
s-22.333 -15 -37 -15s-27 5 -37 15s-15 22.333 -15 37z" />
    <glyph glyph-name="copyright" unicode="&#xa9;" horiz-adv-x="820" 
d="M100 356c0 -46.667 8.66699 -91.167 26 -133.5s40.666 -79 69.999 -110s64.833 -55.833 106.5 -74.5s85.5 -28 131.5 -28s89.833 9.33301 131.5 28s77.167 43.5 106.5 74.5s52.666 67.667 69.999 110s26 86.833 26 133.5s-8.66699 91.167 -26 133.5
s-40.666 79 -69.999 110s-64.833 55.833 -106.5 74.5s-85.5 28 -131.5 28s-89.833 -9.33301 -131.5 -28s-77.167 -43.5 -106.5 -74.5s-52.666 -67.667 -69.999 -110s-26 -86.833 -26 -133.5zM72 356c0 50.667 9.33301 99 28 145s44 85.667 76 119s70.333 60 115 80
s92.334 30 143.001 30s98.334 -10 143.001 -30s83 -46.667 115 -80s57.333 -73 76 -119s28 -94.333 28 -145s-9.33301 -99 -28 -145s-44 -85.667 -76 -119s-70.333 -60 -115 -80s-92.334 -30 -143.001 -30s-98.334 10 -143.001 30s-83 46.667 -115 80s-57.333 73 -76 119
s-28 94.333 -28 145zM244 338c0 74.667 18.1719 135.33 54.5049 181.997s86.166 70 149.499 70c26.667 0 54 -11 82 -33c6.66699 -4.66699 13.334 -7 20.001 -7c5.33301 0 10.333 3.66699 15 11s7 15 7 23h18v-164h-18c-4 38.667 -19.333 72.667 -46 102s-52.667 44 -78 44
c-77.333 0 -116 -76 -116 -228c0 -17.333 1 -34.666 3 -51.999s5.83301 -35.333 11.5 -54s12.667 -35 21 -49s19.166 -25.667 32.499 -35s28.666 -14 45.999 -14c21.333 0 40.166 4.33301 56.499 13s29.166 20.334 38.499 35.001s16.5 29.834 21.5 45.501
s8.83301 32.5 11.5 50.5h24c-1.33301 -20 -5.16602 -39.333 -11.499 -58s-15.333 -36.5 -27 -53.5s-27.334 -30.667 -47.001 -41s-41.834 -15.5 -66.501 -15.5c-32 0 -61.333 6.66699 -88 20s-48 31 -64 53s-28.333 46.333 -37 73s-13 54 -13 82z" />
    <glyph glyph-name="ordfeminine" unicode="&#xaa;" horiz-adv-x="380" 
d="M88 362l7 24h241l-7 -24h-241zM160 475c0 -12.667 2.33105 -23.332 6.99805 -31.999s12.334 -13 23.001 -13c17.333 0 35.333 13.667 54 41s32.334 58 41.001 92l8 31c3.33301 10.667 5 24.667 5 42c0 12 -3.33301 22.667 -10 32s-17.667 14 -33 14
c-17.333 0 -33.5 -10.833 -48.5 -32.5s-26.5 -48.334 -34.5 -80.001s-12 -63.167 -12 -94.5zM107.998 503.002c0 20.667 3.50098 42.168 10.501 64.501s16.5 43.5 28.5 63.5s27.5 36.5 46.5 49.5s39.167 19.5 60.5 19.5c13.333 0 25 -4.5 35 -13.5s16.333 -18.5 19 -28.5h3
l9 36h50l-55 -197c-6 -20 -9 -34.667 -9 -44s3.66699 -14 11 -14c12.667 0 25.667 9.83301 39 29.5s24.333 41.5 33 65.5l12 -5c-10.667 -28.667 -24.834 -55.334 -42.501 -80.001s-35.5 -37 -53.5 -37c-17.333 0 -29.833 4.66699 -37.5 14s-11.5 18.666 -11.5 27.999
c0 6.66699 1 12.334 3 17.001l-2 1c-7.33301 -14 -18 -27.5 -32 -40.5s-27.667 -19.5 -41 -19.5c-24 0 -42.667 8.33301 -56 25s-20 38.667 -20 66z" />
    <glyph glyph-name="guillemotleft" unicode="&#xab;" 
d="M202 228c46.667 37.333 101 88.667 163 154l11 -10l-107 -144l29 -144l-17 -10c-26 66.667 -52.333 118 -79 154zM54 228.001c66.667 49.333 146.999 119.334 240.999 210.001l11 -10l-162 -200l54 -200l-17 -10c-23.333 47.333 -44.666 87.166 -63.999 119.499
s-40.333 62.5 -63 90.5z" />
    <glyph glyph-name="logicalnot" unicode="&#xac;" horiz-adv-x="580" 
d="M72 406v40h484v-40v-166h-44v166h-440z" />
    <glyph glyph-name="softhyphen" unicode="&#xad;" horiz-adv-x="370" 
d="M56 196c0 23.333 6 43.166 18 59.499s28.667 24.5 50 24.5h176c10 0 17.167 2.16699 21.5 6.5s6.5 11.5 6.5 21.5h18c0 -23.333 -6 -43.166 -18 -59.499s-28.667 -24.5 -50 -24.5h-176c-10 0 -17.167 -2.16699 -21.5 -6.5s-6.5 -11.5 -6.5 -21.5h-18z" />
    <glyph glyph-name="registered" unicode="&#xae;" horiz-adv-x="820" 
d="M224 130l0.00195312 23.998h42c8 0 13.667 1.66699 17 5s5 9 5 17v364c0 8 -1.66699 13.667 -5 17s-9 5 -17 5h-42v24h228c42 0 76.833 -9.5 104.5 -28.5s41.5 -46.167 41.5 -81.5c0 -14.667 -3 -28.167 -9 -40.5s-13 -22.166 -21 -29.499s-17.5 -13.833 -28.5 -19.5
s-20.333 -9.5 -28 -11.5s-14.834 -3.66699 -21.501 -5v-4c9.33301 -2 18 -4.83301 26 -8.5s16.833 -9.5 26.5 -17.5s18 -19.667 25 -35s11.5 -33.333 13.5 -54c0.666992 -4.66699 1.33398 -11.334 2.00098 -20.001l1.5 -20c0.333008 -4.66699 1 -10.5 2 -17.5
s2.16699 -12.5 3.5 -16.5s3.33301 -7.83301 6 -11.5s5.66699 -6.5 9 -8.5s7.66602 -3 12.999 -3c8.66699 0 16 3.33301 22 10s10.333 15.334 13 26.001s4.5 20.334 5.5 29.001s1.5 17 1.5 25h18c0 -10 -0.333008 -19.5 -1 -28.5s-2.83398 -19.833 -6.50098 -32.5
s-8.33398 -23.5 -14.001 -32.5s-14 -16.667 -25 -23s-23.833 -9.5 -38.5 -9.5c-20.667 0 -37.667 4.66699 -51 14c-24.667 17.333 -37 46.333 -37 87v54c0 16.667 -2.16699 31 -6.5 43s-10.166 20.833 -17.499 26.5s-14.5 9.66699 -21.5 12s-14.167 3.5 -21.5 3.5h-78v-182
c0 -8 1.66699 -13.667 5 -17s9 -5 17 -5h44v-24h-202zM360.002 381.998h77c22 0 39.667 7.66699 53 23s20 37 20 65c0 61.333 -24.667 92 -74 92h-54c-8 0 -13.667 -1.66699 -17 -5s-5 -9 -5 -17v-158zM100.002 355.998c0 -46.667 8.66699 -91.167 26 -133.5
s40.666 -79 69.999 -110s64.833 -55.833 106.5 -74.5s85.5 -28 131.5 -28s89.833 9.33301 131.5 28s77.167 43.5 106.5 74.5s52.666 67.667 69.999 110s26 86.833 26 133.5s-8.66699 91.167 -26 133.5s-40.666 79 -69.999 110s-64.833 55.833 -106.5 74.5
s-85.5 28 -131.5 28s-89.833 -9.33301 -131.5 -28s-77.167 -43.5 -106.5 -74.5s-52.666 -67.667 -69.999 -110s-26 -86.833 -26 -133.5zM72.002 355.998c0 50.667 9.33301 99 28 145s44 85.667 76 119s70.333 60 115 80s92.334 30 143.001 30s98.334 -10 143.001 -30
s83 -46.667 115 -80s57.333 -73 76 -119s28 -94.333 28 -145s-9.33301 -99 -28 -145s-44 -85.667 -76 -119s-70.333 -60 -115 -80s-92.334 -30 -143.001 -30s-98.334 10 -143.001 30s-83 46.667 -115 80s-57.333 73 -76 119s-28 94.333 -28 145z" />
    <glyph glyph-name="degree" unicode="&#xb0;" horiz-adv-x="580" 
d="M266 462c0 -26.667 5.66699 -47 17 -61s24.333 -21 39 -21c38.667 0 71.334 21.333 98.001 64s40 92.667 40 150c0 26.667 -5.66699 47 -17 61s-24.333 21 -39 21c-38.667 0 -71.334 -21.333 -98.001 -64s-40 -92.667 -40 -150zM194 462c0 19.333 3 39.833 9 61.5
s14.667 42.834 26 63.501s24.666 39.5 39.999 56.5s33.666 30.667 54.999 41s43.333 15.5 66 15.5c29.333 0 53 -11.333 71 -34s27 -52 27 -88c0 -19.333 -3 -39.833 -9 -61.5s-14.667 -42.834 -26 -63.501s-24.666 -39.5 -39.999 -56.5s-33.666 -30.667 -54.999 -41
s-43.333 -15.5 -66 -15.5c-29.333 0 -53 11.333 -71 34s-27 52 -27 88z" />
    <glyph glyph-name="plusminus" unicode="&#xb1;" horiz-adv-x="940" 
d="M64 338v40h400v274h44v-274h400v-40h-400v-274h-44v274h-400zM64 0h836v-40h-836v40z" />
    <glyph glyph-name="twosuperior" unicode="&#xb2;" 
d="M96 294c0 30.667 8.33105 55.6709 24.998 75.0039s40.667 36.333 72 51l84 45c28 14 52.5 32.833 73.5 56.5s31.5 49.167 31.5 76.5c0 22.667 -6 41.667 -18 57s-31.333 23 -58 23c-22.667 0 -43.667 -8 -63 -24s-29 -32 -29 -48c0 -10 2.66699 -15 8 -15
c4 0 7.66699 1.33301 11 4c4 2.66699 8.33301 4 13 4c8 0 14.667 -2.5 20 -7.5s8 -11.833 8 -20.5c0 -11.333 -4.16699 -21.333 -12.5 -30s-18.5 -13 -30.5 -13c-14.667 0 -26.167 5.16699 -34.5 15.5s-12.5 23.5 -12.5 39.5c0 31.333 13.667 59 41 83s58.666 36 93.999 36
c38.667 0 69.5 -10 92.5 -30s34.5 -46 34.5 -78c0 -8 -1 -16 -3 -24s-4.66699 -15.333 -8 -22s-7.66602 -13.334 -12.999 -20.001s-10.333 -12.334 -15 -17.001s-11 -9.66699 -19 -15l-19.5 -13c-5 -3.33301 -12 -7.33301 -21 -12l-19.5 -10c-4 -2 -10.5 -5 -19.5 -9
s-14.5 -6.66699 -16.5 -8l-68 -32c-26 -12.667 -40.333 -20.334 -43 -23.001c-3.33301 -2.66699 -5 -6.66699 -5 -12c0 -8.66699 14.333 -17.5 43 -26.5s56 -13.5 82 -13.5c14 0 27.667 4.16699 41 12.5s23.333 17.833 30 28.5l12 25h11
c-4 -11.333 -7.5 -20.833 -10.5 -28.5s-7.16699 -17.334 -12.5 -29.001s-10.666 -21.5 -15.999 -29.5s-11.666 -15.667 -18.999 -23s-15.166 -13 -23.499 -17s-17.166 -6 -26.499 -6c-12.667 0 -24.334 2.66699 -35.001 8s-19.667 12 -27 20l-21 24
c-6.66699 8 -13.334 14.667 -20.001 20s-13.667 8 -21 8c-6 0 -11 -0.333008 -15 -1s-8.33301 -3 -13 -7s-7 -9.66699 -7 -17c0 -4.66699 2 -9.66699 6 -15c4 -6 6 -11.333 6 -16c0 -15.333 -7 -23 -21 -23c-15.333 0 -23 7.66699 -23 23z" />
    <glyph glyph-name="threesuperior" unicode="&#xb3;" 
d="M112 368c0 20 5.99902 35.499 17.999 46.499s24.667 16.5 38 16.5c24 0 36 -12.667 36 -38c0 -9.33301 -3.16699 -17 -9.5 -23s-14.833 -9 -25.5 -9c-14.667 0 -22 -3.33301 -22 -10c0 -17.333 6.83301 -31.166 20.5 -41.499s31.167 -15.5 52.5 -15.5
c33.333 0 60.333 12.833 81 38.5s31 56.167 31 91.5c0 26.667 -4.16699 44.667 -12.5 54s-24.166 14 -47.499 14c-9.33301 0 -18 -3 -26 -9c-9.33301 -6.66699 -18.666 -10 -27.999 -10c-6.66699 0 -12 2 -16 6s-6 9 -6 15c0 5.33301 1.83301 10.333 5.5 15
s9.16699 7 16.5 7h74c22.667 0 42.667 10.333 60 31s26 44.334 26 71.001c0 24 -5.5 40.667 -16.5 50s-28.167 14 -51.5 14c-21.333 0 -40.5 -4.83301 -57.5 -14.5s-25.5 -21.5 -25.5 -35.5c0 -6.66699 1.66699 -10 5 -10c2 0 5 0.666992 9 2s6.66699 2 8 2
c16.667 0 25 -8.66699 25 -26c0 -10.667 -3 -19.667 -9 -27s-15 -11 -27 -11c-13.333 0 -23.666 4.33301 -30.999 13s-11 19.334 -11 32.001c0 27.333 12 50 36 68s51.333 27 82 27c36 0 65.333 -7.83301 88 -23.5s34 -38.5 34 -68.5c0 -16 -3.83301 -30.667 -11.5 -44
s-17.334 -24 -29.001 -32s-23.5 -14.333 -35.5 -19s-23.333 -7.66699 -34 -9l-1 -4c20.667 -6.66699 37.667 -16.334 51 -29.001s20 -31.334 20 -56.001c0 -28 -9 -53.5 -27 -76.5s-40.333 -40.5 -67 -52.5s-54.334 -18 -83.001 -18c-32.667 0 -58.667 9 -78 27
s-29 41.667 -29 71z" />
    <glyph glyph-name="acute" unicode="&#xb4;" 
d="M292 520l106 123c15.333 18 31.333 27 48 27c10 0 17.167 -2.83301 21.5 -8.5s6.5 -12.5 6.5 -20.5c0 -16.667 -10.667 -32 -32 -46l-138 -87z" />
    <glyph glyph-name="acute" unicode="&#x2ca;" 
d="M292 520l106 123c15.333 18 31.333 27 48 27c10 0 17.167 -2.83301 21.5 -8.5s6.5 -12.5 6.5 -20.5c0 -16.667 -10.667 -32 -32 -46l-138 -87z" />
    <glyph glyph-name="mu1" unicode="&#xb5;" horiz-adv-x="572" 
d="M30 -182c0 92.667 17.332 201.335 51.999 326.002l84 300h66l-54 -200c-12.667 -66.667 -19 -109.334 -19 -128.001c0 -61.333 16.333 -92 49 -92c28 0 54.333 16.333 79 49s43.667 73 57 121l68 250h68l-92 -343c-4.66699 -16.667 -7 -29.667 -7 -39
c0 -5.33301 0.333008 -10 1 -14s1.83398 -8 3.50098 -12s4.83398 -7 9.50098 -9s10 -3 16 -3c30.667 0 72.667 50.667 126 152l15 -9c-8 -16.667 -15.333 -31.334 -22 -44.001s-16 -28 -28 -46s-23.667 -33 -35 -45s-24.5 -22.333 -39.5 -31s-29.833 -13 -44.5 -13
c-20.667 0 -36.834 7.16699 -48.501 21.5s-17.5 31.833 -17.5 52.5c0 8 1 15.333 3 22l-7 2c-39.333 -65.333 -80.666 -98 -123.999 -98c-26 0 -46.667 11 -62 33s-23 47.333 -23 76l-7 3l-18 -85c-2.66699 -12.667 -4 -25.667 -4 -39c0 -36 3.16699 -66.167 9.5 -90.5
s15.166 -47.833 26.499 -70.5c11.333 -23.333 17 -42 17 -56c0 -11.333 -3 -21 -9 -29s-15 -12 -27 -12c-14 0 -25.833 5.5 -35.5 16.5s-16.5 23.667 -20.5 38s-6 29.5 -6 45.5z" />
    <glyph glyph-name="paragraph" unicode="&#xb6;" horiz-adv-x="540" 
d="M148 -156l147 542c-40 0 -71.833 10 -95.5 30s-35.5 47.667 -35.5 83c0 24 5.5 48.5 16.5 73.5s26 47.833 45 68.5s42.5 37.667 70.5 51s57.333 20 88 20h244l-10 -34h-68l-226 -834h-38l226 834h-100l-226 -834h-38z" />
    <glyph glyph-name="periodcentered" unicode="&#xb7;" horiz-adv-x="280" 
d="M132 316c0 18 5.83301 32.833 17.5 44.5s26.5 17.5 44.5 17.5s32.833 -5.83301 44.5 -17.5s17.5 -26.5 17.5 -44.5s-5.83301 -32.833 -17.5 -44.5s-26.5 -17.5 -44.5 -17.5s-32.833 5.83301 -44.5 17.5s-17.5 26.5 -17.5 44.5z" />
    <glyph glyph-name="cedilla" unicode="&#xb8;" 
d="M56 -148c0 12 4.00098 23.501 12.001 34.501s18 16.5 30 16.5c9.33301 0 16.333 -2.83301 21 -8.5s7 -13.167 7 -22.5c0 -6.66699 -2.5 -12.667 -7.5 -18s-10.5 -8 -16.5 -8c-2.66699 0 -4.83398 -1 -6.50098 -3s-2.5 -4.66699 -2.5 -8c0 -16.667 13 -25 39 -25
c18.667 0 32.5 5.5 41.5 16.5s13.5 23.5 13.5 37.5s-4.66699 31.667 -14 53c-6.66699 14 -10 26 -10 36c0 11.333 3 22.666 9 33.999l15 25l19 -12l-13 -21c-2.66699 -4.66699 -4 -9.66699 -4 -15c0 -10.667 6.66699 -22.667 20 -36c18.667 -18.667 28 -36.667 28 -54
c0 -24 -10.167 -44.333 -30.5 -61s-45.833 -25 -76.5 -25c-18.667 0 -35.667 5.66699 -51 17s-23 27 -23 47z" />
    <glyph glyph-name="onesuperior" unicode="&#xb9;" 
d="M130 280l7 23.999h55c11.333 0 18.333 5 21 15l80 282c-18 -10 -42.667 -18.333 -74 -25l-3 21c25.333 4.66699 51.333 15 78 31s48.667 37.333 66 64h22l-105 -373c-1.33301 -5.33301 -1 -9.16602 1 -11.499s6 -3.5 12 -3.5h55l-7 -24h-208z" />
    <glyph glyph-name="ordmasculine" unicode="&#xba;" horiz-adv-x="380" 
d="M88 362l7 24h241l-7 -24h-241zM186 484c0 -37.333 13.333 -56 40 -56c20 0 38.667 11 56 33s30.666 47.667 39.999 77s14 57 14 83c0 39.333 -14 59 -42 59c-19.333 0 -37.666 -11.333 -54.999 -34s-30.5 -49 -39.5 -79s-13.5 -57.667 -13.5 -83zM134 508
c0 27.333 7.16602 55.5 21.499 84.5s34.5 53.833 60.5 74.5s53.667 31 83 31c27.333 0 49 -9.33301 65 -28s24 -42.667 24 -72c0 -26.667 -7.33301 -54.5 -22 -83.5s-35.167 -53.667 -61.5 -74s-54.166 -30.5 -83.499 -30.5c-26 0 -47 9.16699 -63 27.5s-24 41.833 -24 70.5
z" />
    <glyph glyph-name="guillemotright" unicode="&#xbb;" 
d="M72 84l107 143.999l-29 144l17 10c26 -66.667 52.333 -118 79 -154c-46.667 -37.333 -101 -88.666 -163 -153.999zM142 27.999l162.001 199.999l-54 200l17 10c23.333 -47.333 44.666 -87.166 63.999 -119.499s40.333 -62.5 63 -90.5
c-66.667 -49.333 -147 -119.333 -241 -210z" />
    <glyph glyph-name="onequarter" unicode="&#xbc;" horiz-adv-x="876" 
d="M248 0l440 702l26 -18l-440 -702zM130 280l7 23.999h55c11.333 0 18.333 5 21 15l80 282c-18 -10 -42.667 -18.333 -74 -25l-3 21c25.333 4.66699 51.333 15 78 31s48.667 37.333 66 64h22l-105 -373c-1.33301 -5.33301 -1 -9.16602 1 -11.499s6 -3.5 12 -3.5h55l-7 -24
h-208zM508 111.999l8.00098 25.999l130 121c26 24.667 47.833 51 65.5 79s28.167 54 31.5 78h72c-5.33301 -20 -12.833 -37.667 -22.5 -53s-27.167 -34.333 -52.5 -57l-188 -168h123l29 100c33.333 20.667 57.666 48.334 72.999 83.001h11l-48 -183h100l-8 -26h-100l-19 -72
c-2 -6 -2.33301 -10.167 -1 -12.5s5 -3.5 11 -3.5h59l-6 -24h-212l6 24h57c11.333 0 18.333 5.33301 21 16l20 72h-160z" />
    <glyph glyph-name="onehalf" unicode="&#xbd;" horiz-adv-x="876" 
d="M248 0l440 702l26 -18l-440 -702zM130 280l7 23.999h55c11.333 0 18.333 5 21 15l80 282c-18 -10 -42.667 -18.333 -74 -25l-3 21c25.333 4.66699 51.333 15 78 31s48.667 37.333 66 64h22l-105 -373c-1.33301 -5.33301 -1 -9.16602 1 -11.499s6 -3.5 12 -3.5h55l-7 -24
h-208zM496 13.999c0 30.667 8.33105 55.6709 24.998 75.0039s40.667 36.333 72 51l84 45c28 14 52.5 32.833 73.5 56.5s31.5 49.167 31.5 76.5c0 22.667 -6 41.667 -18 57s-31.333 23 -58 23c-22.667 0 -43.667 -8 -63 -24s-29 -32 -29 -48c0 -10 2.66699 -15 8 -15
c4 0 7.66699 1.33301 11 4c4 2.66699 8.33301 4 13 4c8 0 14.667 -2.5 20 -7.5s8 -11.833 8 -20.5c0 -11.333 -4.16699 -21.333 -12.5 -30s-18.5 -13 -30.5 -13c-14.667 0 -26.167 5.16699 -34.5 15.5s-12.5 23.5 -12.5 39.5c0 31.333 13.667 59 41 83s58.666 36 93.999 36
c38.667 0 69.5 -10 92.5 -30s34.5 -46 34.5 -78c0 -8 -1 -16 -3 -24s-4.66699 -15.333 -8 -22s-7.66602 -13.334 -12.999 -20.001s-10.333 -12.334 -15 -17.001s-11 -9.66699 -19 -15l-19.5 -13c-5 -3.33301 -12 -7.33301 -21 -12l-19.5 -10c-4 -2 -10.5 -5 -19.5 -9
s-14.5 -6.66699 -16.5 -8l-68 -32c-26 -12.667 -40.333 -20.334 -43 -23.001c-3.33301 -2.66699 -5 -6.66699 -5 -12c0 -8.66699 14.333 -17.5 43 -26.5s56 -13.5 82 -13.5c14 0 27.667 4.16699 41 12.5s23.333 17.833 30 28.5l12 25h11
c-4 -11.333 -7.5 -20.833 -10.5 -28.5s-7.16699 -17.334 -12.5 -29.001s-10.666 -21.5 -15.999 -29.5s-11.666 -15.667 -18.999 -23s-15.166 -13 -23.499 -17s-17.166 -6 -26.499 -6c-12.667 0 -24.334 2.66699 -35.001 8s-19.667 12 -27 20l-21 24
c-6.66699 8 -13.334 14.667 -20.001 20s-13.667 8 -21 8c-6 0 -11 -0.333008 -15 -1s-8.33301 -3 -13 -7s-7 -9.66699 -7 -17c0 -4.66699 2 -9.66699 6 -15c4 -6 6 -11.333 6 -16c0 -15.333 -7 -23 -21 -23c-15.333 0 -23 7.66699 -23 23z" />
    <glyph glyph-name="threequarters" unicode="&#xbe;" horiz-adv-x="876" 
d="M248 0l440 702l26 -18l-440 -702zM112 368c0 20 5.99902 35.499 17.999 46.499s24.667 16.5 38 16.5c24 0 36 -12.667 36 -38c0 -9.33301 -3.16699 -17 -9.5 -23s-14.833 -9 -25.5 -9c-14.667 0 -22 -3.33301 -22 -10c0 -17.333 6.83301 -31.166 20.5 -41.499
s31.167 -15.5 52.5 -15.5c33.333 0 60.333 12.833 81 38.5s31 56.167 31 91.5c0 26.667 -4.16699 44.667 -12.5 54s-24.166 14 -47.499 14c-9.33301 0 -18 -3 -26 -9c-9.33301 -6.66699 -18.666 -10 -27.999 -10c-6.66699 0 -12 2 -16 6s-6 9 -6 15
c0 5.33301 1.83301 10.333 5.5 15s9.16699 7 16.5 7h74c22.667 0 42.667 10.333 60 31s26 44.334 26 71.001c0 24 -5.5 40.667 -16.5 50s-28.167 14 -51.5 14c-21.333 0 -40.5 -4.83301 -57.5 -14.5s-25.5 -21.5 -25.5 -35.5c0 -6.66699 1.66699 -10 5 -10
c2 0 5 0.666992 9 2s6.66699 2 8 2c16.667 0 25 -8.66699 25 -26c0 -10.667 -3 -19.667 -9 -27s-15 -11 -27 -11c-13.333 0 -23.666 4.33301 -30.999 13s-11 19.334 -11 32.001c0 27.333 12 50 36 68s51.333 27 82 27c36 0 65.333 -7.83301 88 -23.5s34 -38.5 34 -68.5
c0 -16 -3.83301 -30.667 -11.5 -44s-17.334 -24 -29.001 -32s-23.5 -14.333 -35.5 -19s-23.333 -7.66699 -34 -9l-1 -4c20.667 -6.66699 37.667 -16.334 51 -29.001s20 -31.334 20 -56.001c0 -28 -9 -53.5 -27 -76.5s-40.333 -40.5 -67 -52.5s-54.334 -18 -83.001 -18
c-32.667 0 -58.667 9 -78 27s-29 41.667 -29 71zM507.999 111.999l8.00098 25.999l130 121c26 24.667 47.833 51 65.5 79s28.167 54 31.5 78h72c-5.33301 -20 -12.833 -37.667 -22.5 -53s-27.167 -34.333 -52.5 -57l-188 -168h123l29 100
c33.333 20.667 57.666 48.334 72.999 83.001h11l-48 -183h100l-8 -26h-100l-19 -72c-2 -6 -2.33301 -10.167 -1 -12.5s5 -3.5 11 -3.5h59l-6 -24h-212l6 24h57c11.333 0 18.333 5.33301 21 16l20 72h-160z" />
    <glyph glyph-name="questiondown" unicode="&#xbf;" horiz-adv-x="436" 
d="M252 396c0 18 5.83301 32.833 17.5 44.5s26.5 17.5 44.5 17.5s32.833 -5.83301 44.5 -17.5s17.5 -26.5 17.5 -44.5s-5.83301 -32.833 -17.5 -44.5s-26.5 -17.5 -44.5 -17.5s-32.833 5.83301 -44.5 17.5s-17.5 26.5 -17.5 44.5zM-4 -88
c0 29.333 10.3291 57.1641 30.9961 83.4971s47 47.166 79 62.499l133 64c22 12 39.333 25.667 52 41s19 31 19 47c0 17.333 -5 30.333 -15 39s-22.333 13 -37 13c-27.333 0 -47.5 -7.66699 -60.5 -23s-19.5 -33.666 -19.5 -54.999c0 -12 3.33301 -21.667 10 -29l-12 -9
c-12 12 -18 27.333 -18 46c0 28 10 51.667 30 71s44.667 29 74 29c25.333 0 46.666 -8 63.999 -24s26 -37.333 26 -64c0 -24 -7.66699 -46.667 -23 -68s-35 -39.333 -59 -54l-124 -74c-52 -28 -78 -63.333 -78 -106c0 -35.333 8.33301 -64.166 25 -86.499
s40.334 -33.5 71.001 -33.5c20.667 0 39.334 2 56.001 6s29.834 9.16699 39.501 15.5s17.834 13.333 24.501 21s11.334 14.834 14.001 21.501s4 13 4 19c0 4.66699 -1.16699 8.66699 -3.5 12s-4 5.33301 -5 6s-3.83301 2.33398 -8.5 5.00098c-12 6.66699 -19.5 13 -22.5 19
s-4.5 15.333 -4.5 28c0 8.66699 3.5 16.334 10.5 23.001s16.5 10 28.5 10c16.667 0 29.667 -5.33301 39 -16s14 -26.334 14 -47.001c0 -27.333 -10.333 -53 -31 -77s-46 -42.667 -76 -56s-59.333 -20 -88 -20c-52 0 -91.5 15 -118.5 45s-40.5 68.333 -40.5 115z" />
    <glyph glyph-name="Agrave" unicode="&#xc0;" horiz-adv-x="728" 
d="M288 280h184v269zM-44 0l8.00195 32h37c27.333 0 51.666 7 72.999 21s38.333 31 51 51l411 608h24v-637c1.33301 -16.667 6 -28 14 -34s19.333 -9 34 -9h56l-8 -32h-296l8 32h62c13.333 0 23.666 3 30.999 9s11 18.333 11 37v166h-209l-68 -100
c-22.667 -32 -34 -58 -34 -78c0 -22.667 13.333 -34 40 -34h55l-8 -32h-292zM444.002 895c0 4.66699 0.666992 9.33203 2 13.999s5 9.33398 11 14.001s13.333 7 22 7c19.333 0 33.333 -12.333 42 -37l41 -122l-15 -9l-88 97c-10 11.333 -15 23.333 -15 36z" />
    <glyph glyph-name="Aacute" unicode="&#xc1;" horiz-adv-x="728" 
d="M288 280h184v269zM-44 0l8.00195 32h37c27.333 0 51.666 7 72.999 21s38.333 31 51 51l411 608h24v-637c1.33301 -16.667 6 -28 14 -34s19.333 -9 34 -9h56l-8 -32h-296l8 32h62c13.333 0 23.666 3 30.999 9s11 18.333 11 37v166h-209l-68 -100
c-22.667 -32 -34 -58 -34 -78c0 -22.667 13.333 -34 40 -34h55l-8 -32h-292zM538.002 774l106 123c15.333 18 31.333 27 48 27c18.667 0 28 -9.66699 28 -29c0 -18 -10.667 -33.333 -32 -46l-138 -87z" />
    <glyph glyph-name="Acircumflex" unicode="&#xc2;" horiz-adv-x="728" 
d="M288 280h184v269zM-44 0l8.00195 32h37c27.333 0 51.666 7 72.999 21s38.333 31 51 51l411 608h24v-637c1.33301 -16.667 6 -28 14 -34s19.333 -9 34 -9h56l-8 -32h-296l8 32h62c13.333 0 23.666 3 30.999 9s11 18.333 11 37v166h-209l-68 -100
c-22.667 -32 -34 -58 -34 -78c0 -22.667 13.333 -34 40 -34h55l-8 -32h-292zM396.002 778c70.667 34.667 129.333 82 176 142h40c16 -60 49.333 -107.333 100 -142l-14 -16c-16 6 -36.5 18.833 -61.5 38.5s-45.167 38.834 -60.5 57.501
c-26.667 -18.667 -57.667 -37.834 -93 -57.501s-62.333 -32.5 -81 -38.5z" />
    <glyph glyph-name="Atilde" unicode="&#xc3;" horiz-adv-x="728" 
d="M288 280h184v269zM-44 0l8.00195 32h37c27.333 0 51.666 7 72.999 21s38.333 31 51 51l411 608h24v-637c1.33301 -16.667 6 -28 14 -34s19.333 -9 34 -9h56l-8 -32h-296l8 32h62c13.333 0 23.666 3 30.999 9s11 18.333 11 37v166h-209l-68 -100
c-22.667 -32 -34 -58 -34 -78c0 -22.667 13.333 -34 40 -34h55l-8 -32h-292zM422.002 810c0 26 7 48.167 21 66.5s33.667 27.5 59 27.5c21.333 0 49.666 -6.66699 84.999 -20s61 -20 77 -20c11.333 0 19.5 3.33301 24.5 10s8.83301 16.667 11.5 30h22
c0 -26 -7 -48.167 -21 -66.5s-33.667 -27.5 -59 -27.5c-21.333 0 -49.666 6.66699 -84.999 20s-61 20 -77 20c-11.333 0 -19.5 -3.33301 -24.5 -10s-8.83301 -16.667 -11.5 -30h-22z" />
    <glyph glyph-name="Adieresis" unicode="&#xc4;" horiz-adv-x="728" 
d="M288 280h184v269zM-44 0l8.00195 32h37c27.333 0 51.666 7 72.999 21s38.333 31 51 51l411 608h24v-637c1.33301 -16.667 6 -28 14 -34s19.333 -9 34 -9h56l-8 -32h-296l8 32h62c13.333 0 23.666 3 30.999 9s11 18.333 11 37v166h-209l-68 -100
c-22.667 -32 -34 -58 -34 -78c0 -22.667 13.333 -34 40 -34h55l-8 -32h-292zM628.002 850c0 14.667 5 27 15 37s22.333 15 37 15s27 -5 37 -15s15 -22.333 15 -37s-5 -27 -15 -37s-22.333 -15 -37 -15s-27 5 -37 15s-15 22.333 -15 37zM424.002 850c0 14.667 5 27 15 37
s22.333 15 37 15s27 -5 37 -15s15 -22.333 15 -37s-5 -27 -15 -37s-22.333 -15 -37 -15s-27 5 -37 15s-15 22.333 -15 37z" />
    <glyph glyph-name="Aring" unicode="&#xc5;" horiz-adv-x="728" 
d="M288 280h184v269zM-44 0l8.00195 32h37c27.333 0 51.666 7 72.999 21s38.333 31 51 51l411 608h24v-637c1.33301 -16.667 6 -28 14 -34s19.333 -9 34 -9h56l-8 -32h-296l8 32h62c13.333 0 23.666 3 30.999 9s11 18.333 11 37v166h-209l-68 -100
c-22.667 -32 -34 -58 -34 -78c0 -22.667 13.333 -34 40 -34h55l-8 -32h-292zM456.002 852c0 26.667 9.33301 49.334 28 68.001s41.667 28 69 28s50.333 -9.33301 69 -28s28 -41.334 28 -68.001s-9.33301 -49.667 -28 -69s-41.667 -29 -69 -29s-50.333 9.66699 -69 29
s-28 42.333 -28 69zM480.002 852c0 -21.333 7 -39 21 -53s31.333 -21 52 -21s38 7 52 21s21 31.667 21 53s-7 38.666 -21 51.999s-31.333 20 -52 20s-38 -6.66699 -52 -20s-21 -30.666 -21 -51.999z" />
    <glyph glyph-name="AE" unicode="&#xc6;" horiz-adv-x="1010" 
d="M-44 0l7.99609 31.998h39c43.333 0 83.666 24 120.999 72l390 487l10.5 13l10 12l9 10.5c3.66699 4.33301 6.33398 8 8.00098 11l5.5 9.5c2 3.33301 3.5 6.5 4.5 9.5s1.5 5.83301 1.5 8.5c0 10 -7.66699 15 -23 15h-46l8 32h552l-46 -228h-25c2 14 3 30 3 48
c0 28.667 -2.33301 52.834 -7 72.501s-12 34.834 -22 45.501s-21.333 18.334 -34 23.001s-27.667 7 -45 7h-164c-18 0 -29.333 -9 -34 -27l-72 -267h108c12 0 23 1.66699 33 5s18.333 7.5 25 12.5s13.334 11.833 20.001 20.5s11.834 16.5 15.501 23.5s7.5 16.167 11.5 27.5
s6.83301 20.166 8.5 26.499s4.16699 15.166 7.5 26.499h25l-88 -328h-25c6.66699 29.333 10 54.333 10 75c0 23.333 -4.5 41.666 -13.5 54.999s-24.5 20 -46.5 20h-101l-79 -291c-2.66699 -9.33301 -2.5 -16.166 0.5 -20.499s9.16699 -6.5 18.5 -6.5h186
c17.333 0 37.666 4.33301 60.999 13s44.333 21.667 63 39c18.667 18.667 36.834 43.334 54.501 74.001s30.834 56.667 39.501 78l12 32h24l-84 -268h-584l8 32h75c18 0 29.667 9 35 27l50 186h-197l-81 -101c-0.666992 -1.33301 -3.16699 -4.83301 -7.5 -10.5
s-8 -10.667 -11 -15s-6.33301 -10 -10 -17s-6.66699 -14 -9 -21s-3.5 -13.5 -3.5 -19.5c0 -8.66699 2.83301 -15.667 8.5 -21s14.834 -8 27.501 -8h48l-8 -32h-279zM307.996 280.998h179l92 339z" />
    <glyph glyph-name="Ccedilla" unicode="&#xc7;" horiz-adv-x="670" 
d="M92 252c0 45.333 7.00098 91.666 21.001 138.999s33.667 91 59 131s53.833 75.667 85.5 107s66.334 56 104.001 74s75.167 27 112.5 27c43.333 0 80.333 -15.333 111 -46l18 -18c5.33301 -5.33301 9.16602 -8.66602 11.499 -9.99902l7.5 -4.5
c2.66699 -1.66699 6 -2.5 10 -2.5s8 0.833008 12 2.5s7.33301 4.5 10 8.5s5 7.66699 7 11s4 8 6 14s3.33301 10.333 4 13s1.66699 7.33398 3 14.001l3 10h23l-64 -306h-23c0 6 0.166992 16 0.5 30s0.5 25 0.5 33c0 23.333 -3.16699 51.666 -9.5 84.999s-17.5 61 -33.5 83
c-25.333 34 -59 51 -101 51c-40 0 -76 -12.167 -108 -36.5s-64 -66.166 -96 -125.499c-22 -41.333 -40.5 -92.5 -55.5 -153.5s-22.5 -123.167 -22.5 -186.5c0 -32 2.83301 -59.5 8.5 -82.5s12.667 -40.667 21 -53s18.833 -22.166 31.5 -29.499s24.334 -12 35.001 -14
s23 -3 37 -3c37.333 0 73.833 11 109.5 33s66.167 50 91.5 84s45 71 59 111l31 -11c-8.66699 -26 -19.167 -50.667 -31.5 -74s-27.833 -45.833 -46.5 -67.5s-39 -40.334 -61 -56.001s-47.5 -28.167 -76.5 -37.5s-59.833 -14 -92.5 -14h-4l-2 -3
c-3.33301 -6 -5 -11.667 -5 -17c0 -11.333 7 -22 21 -32c12 -9.33301 21.333 -18.666 28 -27.999s10 -20.333 10 -33c0 -30.667 -13.333 -56.167 -40 -76.5s-58.334 -30.5 -95.001 -30.5c-20.667 0 -39 6.83301 -55 20.5s-24 31.5 -24 53.5c0 13.333 4.33301 25 13 35
s18.667 15 30 15c21.333 0 32 -9.66699 32 -29c0 -16.667 -8 -27.667 -24 -33c-5.33301 -2.66699 -8 -7 -8 -13c0 -8.66699 2.83301 -15 8.5 -19s16.167 -6 31.5 -6c19.333 0 36.5 7.66699 51.5 23s22.5 32.666 22.5 51.999c0 18.667 -4.66699 35.667 -14 51
c-12 19.333 -18 33.666 -18 42.999c0 10 2.33301 20 7 30c-22.667 4.66699 -44.334 13.167 -65.001 25.5s-39.667 29 -57 50s-31 48 -41 81s-15 69.833 -15 110.5z" />
    <glyph glyph-name="Egrave" unicode="&#xc8;" horiz-adv-x="700" 
d="M-10 0l7.99902 31.999h76c17.333 0 28.666 9 33.999 27l161 594c6 18 -0.333008 27 -19 27h-76l8 32h552l-46 -228h-25c2 14 3 30 3 48c0 28.667 -2.33301 52.834 -7 72.501s-12 34.834 -22 45.501s-21.333 18.334 -34 23.001s-27.667 7 -45 7h-164
c-18 0 -29.333 -9 -34 -27l-72 -267h108c12 0 23 1.66699 33 5s18.333 7.5 25 12.5s13.334 11.833 20.001 20.5s11.834 16.5 15.501 23.5s7.5 16.167 11.5 27.5s6.83301 20.166 8.5 26.499s4.16699 15.166 7.5 26.499h25l-88 -328h-25c6.66699 29.333 10 54.333 10 75
c0 23.333 -4.5 41.666 -13.5 54.999s-24.5 20 -46.5 20h-101l-79 -291c-4.66699 -18 1.66602 -27 18.999 -27h186c17.333 0 37.666 4.33301 60.999 13s44.333 21.667 63 39c18.667 18.667 36.834 43.334 54.501 74.001s30.834 56.667 39.501 78l12 32h24l-84 -268h-584z
M371.999 894.999c0 4.66699 0.666992 9.33203 2 13.999s5 9.33398 11 14.001s13.333 7 22 7c19.333 0 33.333 -12.333 42 -37l41 -122l-15 -9l-88 97c-10 11.333 -15 23.333 -15 36z" />
    <glyph glyph-name="Eacute" unicode="&#xc9;" horiz-adv-x="700" 
d="M-10 0l7.99902 31.999h76c17.333 0 28.666 9 33.999 27l161 594c6 18 -0.333008 27 -19 27h-76l8 32h552l-46 -228h-25c2 14 3 30 3 48c0 28.667 -2.33301 52.834 -7 72.501s-12 34.834 -22 45.501s-21.333 18.334 -34 23.001s-27.667 7 -45 7h-164
c-18 0 -29.333 -9 -34 -27l-72 -267h108c12 0 23 1.66699 33 5s18.333 7.5 25 12.5s13.334 11.833 20.001 20.5s11.834 16.5 15.501 23.5s7.5 16.167 11.5 27.5s6.83301 20.166 8.5 26.499s4.16699 15.166 7.5 26.499h25l-88 -328h-25c6.66699 29.333 10 54.333 10 75
c0 23.333 -4.5 41.666 -13.5 54.999s-24.5 20 -46.5 20h-101l-79 -291c-4.66699 -18 1.66602 -27 18.999 -27h186c17.333 0 37.666 4.33301 60.999 13s44.333 21.667 63 39c18.667 18.667 36.834 43.334 54.501 74.001s30.834 56.667 39.501 78l12 32h24l-84 -268h-584z
M465.999 773.999l106 123c15.333 18 31.333 27 48 27c18.667 0 28 -9.66699 28 -29c0 -18 -10.667 -33.333 -32 -46l-138 -87z" />
    <glyph glyph-name="Ecircumflex" unicode="&#xca;" horiz-adv-x="700" 
d="M-10 0l7.99902 31.999h76c17.333 0 28.666 9 33.999 27l161 594c6 18 -0.333008 27 -19 27h-76l8 32h552l-46 -228h-25c2 14 3 30 3 48c0 28.667 -2.33301 52.834 -7 72.501s-12 34.834 -22 45.501s-21.333 18.334 -34 23.001s-27.667 7 -45 7h-164
c-18 0 -29.333 -9 -34 -27l-72 -267h108c12 0 23 1.66699 33 5s18.333 7.5 25 12.5s13.334 11.833 20.001 20.5s11.834 16.5 15.501 23.5s7.5 16.167 11.5 27.5s6.83301 20.166 8.5 26.499s4.16699 15.166 7.5 26.499h25l-88 -328h-25c6.66699 29.333 10 54.333 10 75
c0 23.333 -4.5 41.666 -13.5 54.999s-24.5 20 -46.5 20h-101l-79 -291c-4.66699 -18 1.66602 -27 18.999 -27h186c17.333 0 37.666 4.33301 60.999 13s44.333 21.667 63 39c18.667 18.667 36.834 43.334 54.501 74.001s30.834 56.667 39.501 78l12 32h24l-84 -268h-584z
M323.999 777.999c70.667 34.667 129.333 82 176 142h40c16 -60 49.333 -107.333 100 -142l-14 -16c-16 6 -36.5 18.833 -61.5 38.5s-45.167 38.834 -60.5 57.501c-26.667 -18.667 -57.667 -37.834 -93 -57.501s-62.333 -32.5 -81 -38.5z" />
    <glyph glyph-name="Edieresis" unicode="&#xcb;" horiz-adv-x="700" 
d="M-10 0l7.99902 31.999h76c17.333 0 28.666 9 33.999 27l161 594c6 18 -0.333008 27 -19 27h-76l8 32h552l-46 -228h-25c2 14 3 30 3 48c0 28.667 -2.33301 52.834 -7 72.501s-12 34.834 -22 45.501s-21.333 18.334 -34 23.001s-27.667 7 -45 7h-164
c-18 0 -29.333 -9 -34 -27l-72 -267h108c12 0 23 1.66699 33 5s18.333 7.5 25 12.5s13.334 11.833 20.001 20.5s11.834 16.5 15.501 23.5s7.5 16.167 11.5 27.5s6.83301 20.166 8.5 26.499s4.16699 15.166 7.5 26.499h25l-88 -328h-25c6.66699 29.333 10 54.333 10 75
c0 23.333 -4.5 41.666 -13.5 54.999s-24.5 20 -46.5 20h-101l-79 -291c-4.66699 -18 1.66602 -27 18.999 -27h186c17.333 0 37.666 4.33301 60.999 13s44.333 21.667 63 39c18.667 18.667 36.834 43.334 54.501 74.001s30.834 56.667 39.501 78l12 32h24l-84 -268h-584z
M555.999 849.999c0 14.667 5 27 15 37s22.333 15 37 15s27 -5 37 -15s15 -22.333 15 -37s-5 -27 -15 -37s-22.333 -15 -37 -15s-27 5 -37 15s-15 22.333 -15 37zM351.999 849.999c0 14.667 5 27 15 37s22.333 15 37 15s27 -5 37 -15s15 -22.333 15 -37s-5 -27 -15 -37
s-22.333 -15 -37 -15s-27 5 -37 15s-15 22.333 -15 37z" />
    <glyph glyph-name="Igrave" unicode="&#xcc;" horiz-adv-x="400" 
d="M-10 0l8.00195 32h76c17.333 0 28.666 9 33.999 27l161 594c6 18 -0.333008 27 -19 27h-76l8 32h296l-8 -32h-76c-18 0 -29.333 -9 -34 -27l-161 -594c-4.66699 -18 1.66602 -27 18.999 -27h76l-8 -32h-296zM240.002 895c0 4.66699 0.666992 9.33203 2 13.999
s5 9.33398 11 14.001s13.333 7 22 7c19.333 0 33.333 -12.333 42 -37l41 -122l-15 -9l-88 97c-10 11.333 -15 23.333 -15 36z" />
    <glyph glyph-name="Iacute" unicode="&#xcd;" horiz-adv-x="400" 
d="M-10 0l8.00195 32h76c17.333 0 28.666 9 33.999 27l161 594c6 18 -0.333008 27 -19 27h-76l8 32h296l-8 -32h-76c-18 0 -29.333 -9 -34 -27l-161 -594c-4.66699 -18 1.66602 -27 18.999 -27h76l-8 -32h-296zM334.002 774l106 123c15.333 18 31.333 27 48 27
c18.667 0 28 -9.66699 28 -29c0 -18 -10.667 -33.333 -32 -46l-138 -87z" />
    <glyph glyph-name="Icircumflex" unicode="&#xce;" horiz-adv-x="400" 
d="M-10 0l8.00195 32h76c17.333 0 28.666 9 33.999 27l161 594c6 18 -0.333008 27 -19 27h-76l8 32h296l-8 -32h-76c-18 0 -29.333 -9 -34 -27l-161 -594c-4.66699 -18 1.66602 -27 18.999 -27h76l-8 -32h-296zM192.002 778c70.667 34.667 129.333 82 176 142h40
c16 -60 49.333 -107.333 100 -142l-14 -16c-16 6 -36.5 18.833 -61.5 38.5s-45.167 38.834 -60.5 57.501c-26.667 -18.667 -57.667 -37.834 -93 -57.501s-62.333 -32.5 -81 -38.5z" />
    <glyph glyph-name="Idieresis" unicode="&#xcf;" horiz-adv-x="400" 
d="M-10 0l8.00195 32h76c17.333 0 28.666 9 33.999 27l161 594c6 18 -0.333008 27 -19 27h-76l8 32h296l-8 -32h-76c-18 0 -29.333 -9 -34 -27l-161 -594c-4.66699 -18 1.66602 -27 18.999 -27h76l-8 -32h-296zM424.002 850c0 14.667 5 27 15 37s22.333 15 37 15
s27 -5 37 -15s15 -22.333 15 -37s-5 -27 -15 -37s-22.333 -15 -37 -15s-27 5 -37 15s-15 22.333 -15 37zM220.002 850c0 14.667 5 27 15 37s22.333 15 37 15s27 -5 37 -15s15 -22.333 15 -37s-5 -27 -15 -37s-22.333 -15 -37 -15s-27 5 -37 15s-15 22.333 -15 37z" />
    <glyph glyph-name="Ntilde" unicode="&#xd1;" horiz-adv-x="790" 
d="M-10 0l7.99805 32.001h48c21.333 0 40 9 56 27s27.667 40.333 35 67l143 527c2.66699 9.33301 2.33398 16.166 -0.999023 20.499s-9.33301 6.5 -18 6.5h-87l8 32h182l209 -583l125 457c4.66699 16 7 30.333 7 43c0 34 -17 51 -51 51h-48l8 32h270l-8 -32h-48
c-18.667 0 -36.667 -8.33301 -54 -25s-29.666 -39.667 -36.999 -69l-164 -604h-40l-221 621h-5l-131 -477c-4 -14.667 -6 -29 -6 -43c0 -34 16.667 -51 50 -51h48l-8 -32h-270zM417.998 810.001c0 26 7 48.167 21 66.5s33.667 27.5 59 27.5
c21.333 0 49.666 -6.66699 84.999 -20s61 -20 77 -20c11.333 0 19.5 3.33301 24.5 10s8.83301 16.667 11.5 30h22c0 -26 -7 -48.167 -21 -66.5s-33.667 -27.5 -59 -27.5c-21.333 0 -49.666 6.66699 -84.999 20s-61 20 -77 20c-11.333 0 -19.5 -3.33301 -24.5 -10
s-8.83301 -16.667 -11.5 -30h-22z" />
    <glyph glyph-name="Ograve" unicode="&#xd2;" horiz-adv-x="710" 
d="M188 192c0 -58.667 10.667 -103 32 -133s52 -45 92 -45c24 0 47.333 5.16699 70 15.5s42 23.333 58 39s31.333 34.5 46 56.5s26.334 42.667 35.001 62s17 39.666 25 60.999c29.333 82.667 44 173.334 44 272.001c0 58.667 -10.667 103 -32 133s-52 45 -92 45
c-24 0 -47.333 -5.16699 -70 -15.5s-42 -23.333 -58 -39s-31.333 -34.5 -46 -56.5s-26.334 -42.667 -35.001 -62s-17 -39.666 -25 -60.999c-29.333 -82.667 -44 -173.334 -44 -272.001zM92 248c0 52 7.33301 103.001 22 153.001s34.667 94.5 60 133.5s54 73.333 86 103
s66.667 52.5 104 68.5s74 24 110 24c42.667 0 80.334 -12.333 113.001 -37s57.334 -57.334 74.001 -98.001s25 -85 25 -133c0 -52 -7.33301 -103 -22 -153s-34.667 -94.333 -60 -133s-54 -72.667 -86 -102s-66.667 -52 -104 -68s-74 -24 -110 -24
c-42.667 0 -80.334 12.333 -113.001 37s-57.334 57 -74.001 97s-25 84 -25 132zM388 895.001c0 4.66699 0.666992 9.33203 2 13.999s5 9.33398 11 14.001s13.333 7 22 7c19.333 0 33.333 -12.333 42 -37l41 -122l-15 -9l-88 97c-10 11.333 -15 23.333 -15 36z" />
    <glyph glyph-name="Oacute" unicode="&#xd3;" horiz-adv-x="710" 
d="M188 192c0 -58.667 10.667 -103 32 -133s52 -45 92 -45c24 0 47.333 5.16699 70 15.5s42 23.333 58 39s31.333 34.5 46 56.5s26.334 42.667 35.001 62s17 39.666 25 60.999c29.333 82.667 44 173.334 44 272.001c0 58.667 -10.667 103 -32 133s-52 45 -92 45
c-24 0 -47.333 -5.16699 -70 -15.5s-42 -23.333 -58 -39s-31.333 -34.5 -46 -56.5s-26.334 -42.667 -35.001 -62s-17 -39.666 -25 -60.999c-29.333 -82.667 -44 -173.334 -44 -272.001zM92 248c0 52 7.33301 103.001 22 153.001s34.667 94.5 60 133.5s54 73.333 86 103
s66.667 52.5 104 68.5s74 24 110 24c42.667 0 80.334 -12.333 113.001 -37s57.334 -57.334 74.001 -98.001s25 -85 25 -133c0 -52 -7.33301 -103 -22 -153s-34.667 -94.333 -60 -133s-54 -72.667 -86 -102s-66.667 -52 -104 -68s-74 -24 -110 -24
c-42.667 0 -80.334 12.333 -113.001 37s-57.334 57 -74.001 97s-25 84 -25 132zM482 774.001l106 123c15.333 18 31.333 27 48 27c18.667 0 28 -9.66699 28 -29c0 -18 -10.667 -33.333 -32 -46l-138 -87z" />
    <glyph glyph-name="Ocircumflex" unicode="&#xd4;" horiz-adv-x="710" 
d="M188 192c0 -58.667 10.667 -103 32 -133s52 -45 92 -45c24 0 47.333 5.16699 70 15.5s42 23.333 58 39s31.333 34.5 46 56.5s26.334 42.667 35.001 62s17 39.666 25 60.999c29.333 82.667 44 173.334 44 272.001c0 58.667 -10.667 103 -32 133s-52 45 -92 45
c-24 0 -47.333 -5.16699 -70 -15.5s-42 -23.333 -58 -39s-31.333 -34.5 -46 -56.5s-26.334 -42.667 -35.001 -62s-17 -39.666 -25 -60.999c-29.333 -82.667 -44 -173.334 -44 -272.001zM92 248c0 52 7.33301 103.001 22 153.001s34.667 94.5 60 133.5s54 73.333 86 103
s66.667 52.5 104 68.5s74 24 110 24c42.667 0 80.334 -12.333 113.001 -37s57.334 -57.334 74.001 -98.001s25 -85 25 -133c0 -52 -7.33301 -103 -22 -153s-34.667 -94.333 -60 -133s-54 -72.667 -86 -102s-66.667 -52 -104 -68s-74 -24 -110 -24
c-42.667 0 -80.334 12.333 -113.001 37s-57.334 57 -74.001 97s-25 84 -25 132zM340 778.001c70.667 34.667 129.333 82 176 142h40c16 -60 49.333 -107.333 100 -142l-14 -16c-16 6 -36.5 18.833 -61.5 38.5s-45.167 38.834 -60.5 57.501
c-26.667 -18.667 -57.667 -37.834 -93 -57.501s-62.333 -32.5 -81 -38.5z" />
    <glyph glyph-name="Otilde" unicode="&#xd5;" horiz-adv-x="710" 
d="M188 192c0 -58.667 10.667 -103 32 -133s52 -45 92 -45c24 0 47.333 5.16699 70 15.5s42 23.333 58 39s31.333 34.5 46 56.5s26.334 42.667 35.001 62s17 39.666 25 60.999c29.333 82.667 44 173.334 44 272.001c0 58.667 -10.667 103 -32 133s-52 45 -92 45
c-24 0 -47.333 -5.16699 -70 -15.5s-42 -23.333 -58 -39s-31.333 -34.5 -46 -56.5s-26.334 -42.667 -35.001 -62s-17 -39.666 -25 -60.999c-29.333 -82.667 -44 -173.334 -44 -272.001zM92 248c0 52 7.33301 103.001 22 153.001s34.667 94.5 60 133.5s54 73.333 86 103
s66.667 52.5 104 68.5s74 24 110 24c42.667 0 80.334 -12.333 113.001 -37s57.334 -57.334 74.001 -98.001s25 -85 25 -133c0 -52 -7.33301 -103 -22 -153s-34.667 -94.333 -60 -133s-54 -72.667 -86 -102s-66.667 -52 -104 -68s-74 -24 -110 -24
c-42.667 0 -80.334 12.333 -113.001 37s-57.334 57 -74.001 97s-25 84 -25 132zM372 810.001c0 26 7 48.167 21 66.5s33.667 27.5 59 27.5c21.333 0 49.666 -6.66699 84.999 -20s61 -20 77 -20c11.333 0 19.5 3.33301 24.5 10s8.83301 16.667 11.5 30h22
c0 -26 -7 -48.167 -21 -66.5s-33.667 -27.5 -59 -27.5c-21.333 0 -49.666 6.66699 -84.999 20s-61 20 -77 20c-11.333 0 -19.5 -3.33301 -24.5 -10s-8.83301 -16.667 -11.5 -30h-22z" />
    <glyph glyph-name="Odieresis" unicode="&#xd6;" horiz-adv-x="710" 
d="M188 192c0 -58.667 10.667 -103 32 -133s52 -45 92 -45c24 0 47.333 5.16699 70 15.5s42 23.333 58 39s31.333 34.5 46 56.5s26.334 42.667 35.001 62s17 39.666 25 60.999c29.333 82.667 44 173.334 44 272.001c0 58.667 -10.667 103 -32 133s-52 45 -92 45
c-24 0 -47.333 -5.16699 -70 -15.5s-42 -23.333 -58 -39s-31.333 -34.5 -46 -56.5s-26.334 -42.667 -35.001 -62s-17 -39.666 -25 -60.999c-29.333 -82.667 -44 -173.334 -44 -272.001zM92 248c0 52 7.33301 103.001 22 153.001s34.667 94.5 60 133.5s54 73.333 86 103
s66.667 52.5 104 68.5s74 24 110 24c42.667 0 80.334 -12.333 113.001 -37s57.334 -57.334 74.001 -98.001s25 -85 25 -133c0 -52 -7.33301 -103 -22 -153s-34.667 -94.333 -60 -133s-54 -72.667 -86 -102s-66.667 -52 -104 -68s-74 -24 -110 -24
c-42.667 0 -80.334 12.333 -113.001 37s-57.334 57 -74.001 97s-25 84 -25 132zM572 850.001c0 14.667 5 27 15 37s22.333 15 37 15s27 -5 37 -15s15 -22.333 15 -37s-5 -27 -15 -37s-22.333 -15 -37 -15s-27 5 -37 15s-15 22.333 -15 37zM368 850.001c0 14.667 5 27 15 37
s22.333 15 37 15s27 -5 37 -15s15 -22.333 15 -37s-5 -27 -15 -37s-22.333 -15 -37 -15s-27 5 -37 15s-15 22.333 -15 37z" />
    <glyph glyph-name="multiply" unicode="&#xd7;" horiz-adv-x="940" 
d="M164 -18l283 282l-283 282l32 32l282 -283l282 283l32 -32l-283 -282l283 -282l-32 -32l-282 283l-282 -283z" />
    <glyph glyph-name="Oslash" unicode="&#xd8;" horiz-adv-x="710" 
d="M44 6l83.001 90c-23.333 44 -35 94.667 -35 152c0 52 7.33301 103 22 153s34.667 94.5 60 133.5s54 73.333 86 103s66.667 52.5 104 68.5s74 24 110 24c33.333 0 63.666 -7.5 90.999 -22.5s50 -35.833 68 -62.5l79 85l24 -24l-84 -92c22.667 -44 34 -94.667 34 -152
c0 -52 -7.33301 -103 -22 -153s-34.667 -94.333 -60 -133s-54 -72.667 -86 -102s-66.667 -52 -104 -68s-74 -24 -110 -24c-66 0 -119 28 -159 84l-77 -84zM195.001 120c8 -34.667 21.999 -61 41.999 -79s45 -27 75 -27c24 0 47.333 5.16699 70 15.5s42 23.333 58 39
s31.333 34.5 46 56.5s26.334 42.667 35.001 62s17 39.666 25 60.999c29.333 82.667 44 173.334 44 272.001c0 12 -0.333008 21 -1 27zM188 192c0 -13.333 0.333984 -23 1.00098 -29l394 427c-15.333 72 -54.333 108 -117 108c-24 0 -47.333 -5.16699 -70 -15.5
s-42 -23.333 -58 -39s-31.333 -34.5 -46 -56.5s-26.334 -42.667 -35.001 -62s-17 -39.666 -25 -60.999c-29.333 -82.667 -44 -173.334 -44 -272.001z" />
    <glyph glyph-name="Ugrave" unicode="&#xd9;" horiz-adv-x="784" 
d="M130 176c0 16 3 36.6689 9 62.002l112 415c2 9.33301 1.66699 16.166 -1 20.499s-8.66699 6.5 -18 6.5h-76l8 32h296l-8 -32h-76c-18 0 -29.333 -9 -34 -27l-119 -442c-6 -25.333 -9 -44.333 -9 -57c0 -44 14.333 -78.333 43 -103s66 -37 112 -37
c31.333 0 60 5.33301 86 16s47.5 25 64.5 43s31 37.333 42 58s19.833 43 26.5 67l107 390c4 16 6 30 6 42c0 14 -3.83301 25.833 -11.5 35.5s-20.834 14.5 -39.501 14.5h-48l8 32h270l-8 -32h-48c-20 0 -38.333 -8.83301 -55 -26.5s-28.667 -40.167 -36 -67.5l-104 -378
c-8.66699 -33.333 -19.667 -62.833 -33 -88.5s-30.333 -49.334 -51 -71.001s-46.5 -38.167 -77.5 -49.5s-66.5 -17 -106.5 -17c-38.667 0 -73 5.16699 -103 15.5s-54.167 24.333 -72.5 42s-32.166 38.167 -41.499 61.5s-14 48.333 -14 75zM438 895.002
c0 4.66699 0.666992 9.33203 2 13.999s5 9.33398 11 14.001s13.333 7 22 7c19.333 0 33.333 -12.333 42 -37l41 -122l-15 -9l-88 97c-10 11.333 -15 23.333 -15 36z" />
    <glyph glyph-name="Uacute" unicode="&#xda;" horiz-adv-x="784" 
d="M130 176c0 16 3 36.6689 9 62.002l112 415c2 9.33301 1.66699 16.166 -1 20.499s-8.66699 6.5 -18 6.5h-76l8 32h296l-8 -32h-76c-18 0 -29.333 -9 -34 -27l-119 -442c-6 -25.333 -9 -44.333 -9 -57c0 -44 14.333 -78.333 43 -103s66 -37 112 -37
c31.333 0 60 5.33301 86 16s47.5 25 64.5 43s31 37.333 42 58s19.833 43 26.5 67l107 390c4 16 6 30 6 42c0 14 -3.83301 25.833 -11.5 35.5s-20.834 14.5 -39.501 14.5h-48l8 32h270l-8 -32h-48c-20 0 -38.333 -8.83301 -55 -26.5s-28.667 -40.167 -36 -67.5l-104 -378
c-8.66699 -33.333 -19.667 -62.833 -33 -88.5s-30.333 -49.334 -51 -71.001s-46.5 -38.167 -77.5 -49.5s-66.5 -17 -106.5 -17c-38.667 0 -73 5.16699 -103 15.5s-54.167 24.333 -72.5 42s-32.166 38.167 -41.499 61.5s-14 48.333 -14 75zM532 774.002l106 123
c15.333 18 31.333 27 48 27c18.667 0 28 -9.66699 28 -29c0 -18 -10.667 -33.333 -32 -46l-138 -87z" />
    <glyph glyph-name="Ucircumflex" unicode="&#xdb;" horiz-adv-x="784" 
d="M130 176c0 16 3 36.6689 9 62.002l112 415c2 9.33301 1.66699 16.166 -1 20.499s-8.66699 6.5 -18 6.5h-76l8 32h296l-8 -32h-76c-18 0 -29.333 -9 -34 -27l-119 -442c-6 -25.333 -9 -44.333 -9 -57c0 -44 14.333 -78.333 43 -103s66 -37 112 -37
c31.333 0 60 5.33301 86 16s47.5 25 64.5 43s31 37.333 42 58s19.833 43 26.5 67l107 390c4 16 6 30 6 42c0 14 -3.83301 25.833 -11.5 35.5s-20.834 14.5 -39.501 14.5h-48l8 32h270l-8 -32h-48c-20 0 -38.333 -8.83301 -55 -26.5s-28.667 -40.167 -36 -67.5l-104 -378
c-8.66699 -33.333 -19.667 -62.833 -33 -88.5s-30.333 -49.334 -51 -71.001s-46.5 -38.167 -77.5 -49.5s-66.5 -17 -106.5 -17c-38.667 0 -73 5.16699 -103 15.5s-54.167 24.333 -72.5 42s-32.166 38.167 -41.499 61.5s-14 48.333 -14 75zM390 778.002
c70.667 34.667 129.333 82 176 142h40c16 -60 49.333 -107.333 100 -142l-14 -16c-16 6 -36.5 18.833 -61.5 38.5s-45.167 38.834 -60.5 57.501c-26.667 -18.667 -57.667 -37.834 -93 -57.501s-62.333 -32.5 -81 -38.5z" />
    <glyph glyph-name="Udieresis" unicode="&#xdc;" horiz-adv-x="784" 
d="M130 176c0 16 3 36.6689 9 62.002l112 415c2 9.33301 1.66699 16.166 -1 20.499s-8.66699 6.5 -18 6.5h-76l8 32h296l-8 -32h-76c-18 0 -29.333 -9 -34 -27l-119 -442c-6 -25.333 -9 -44.333 -9 -57c0 -44 14.333 -78.333 43 -103s66 -37 112 -37
c31.333 0 60 5.33301 86 16s47.5 25 64.5 43s31 37.333 42 58s19.833 43 26.5 67l107 390c4 16 6 30 6 42c0 14 -3.83301 25.833 -11.5 35.5s-20.834 14.5 -39.501 14.5h-48l8 32h270l-8 -32h-48c-20 0 -38.333 -8.83301 -55 -26.5s-28.667 -40.167 -36 -67.5l-104 -378
c-8.66699 -33.333 -19.667 -62.833 -33 -88.5s-30.333 -49.334 -51 -71.001s-46.5 -38.167 -77.5 -49.5s-66.5 -17 -106.5 -17c-38.667 0 -73 5.16699 -103 15.5s-54.167 24.333 -72.5 42s-32.166 38.167 -41.499 61.5s-14 48.333 -14 75zM622 850.002c0 14.667 5 27 15 37
s22.333 15 37 15s27 -5 37 -15s15 -22.333 15 -37s-5 -27 -15 -37s-22.333 -15 -37 -15s-27 5 -37 15s-15 22.333 -15 37zM418 850.002c0 14.667 5 27 15 37s22.333 15 37 15s27 -5 37 -15s15 -22.333 15 -37s-5 -27 -15 -37s-22.333 -15 -37 -15s-27 5 -37 15
s-15 22.333 -15 37z" />
    <glyph glyph-name="Yacute" unicode="&#xdd;" horiz-adv-x="720" 
d="M106 0l7.99805 31.999h100c17.333 0 28.333 8.66699 33 26l70 260l-79 318c-5.33301 16.667 -11.666 28.167 -18.999 34.5s-17.666 9.5 -30.999 9.5h-74l8 32h316l-8 -32h-59c-16.667 0 -29 -5 -37 -15s-9.66699 -20.667 -5 -32l66 -278l172 198l22.5 26.5
c5 5.66699 10.833 14.834 17.5 27.501s10 24 10 34c0 26 -16 39 -48 39h-43l8 32h296l-8 -32h-47c-38 0 -77.667 -24.333 -119 -73l-245 -278l-73 -271c-5.33301 -17.333 0.666992 -26 18 -26h100l-8 -32h-342zM477.998 773.999l106 123c15.333 18 31.333 27 48 27
c18.667 0 28 -9.66699 28 -29c0 -18 -10.667 -33.333 -32 -46l-138 -87z" />
    <glyph glyph-name="Thorn" unicode="&#xde;" horiz-adv-x="678" 
d="M-10 0l8.00293 32h76c17.333 0 28.666 9 33.999 27l161 594c6 18 -0.333008 27 -19 27h-76l9 32h331l-8 -32h-112c-10.667 0 -18.334 -2 -23.001 -6s-8.33398 -11 -11.001 -21l-20 -75h148c48.667 2.66699 88.5 -10.333 119.5 -39s46.5 -68.334 46.5 -119.001
c0 -29.333 -7 -57.666 -21 -84.999s-33.5 -51.333 -58.5 -72s-56.333 -37.334 -94 -50.001s-78.5 -19 -122.5 -19h-122l-37 -135c-2.66699 -9.33301 -2.5 -16.166 0.5 -20.499s9.16699 -6.5 18.5 -6.5h112l-8 -32h-332zM245.003 226l134.001 -0.00195312
c26 0 51.333 6.33301 76 19s45 30.334 61 53.001c13.333 18.667 23.666 40.334 30.999 65.001s11 49.667 11 75c0 36 -8.83301 63 -26.5 81s-39.5 27 -65.5 27h-108c-18 0 -29.333 -9 -34 -27z" />
    <glyph glyph-name="germandbls" unicode="&#xdf;" horiz-adv-x="480" 
d="M-34 -205l197.002 729.999c9.33301 34 22.666 64 39.999 90s36.333 46.333 57 61s41.334 25.667 62.001 33s40.667 11 60 11c23.333 0 43.5 -3.16699 60.5 -9.5s29.833 -15 38.5 -26s15 -22.5 19 -34.5s6 -25 6 -39c0 -30 -8.66699 -58 -26 -84s-39.333 -47 -66 -63
s-54.334 -26 -83.001 -30l-1 -4c24.667 -3.33301 48.167 -21.166 70.5 -53.499s33.5 -73.166 33.5 -122.499c0 -28.667 -6 -60.667 -18 -96s-28.667 -66.666 -50 -93.999c-40 -50.667 -89.333 -76 -148 -76c-23.333 0 -42.666 7.5 -57.999 22.5s-23 33.5 -23 55.5
c0 7.33301 1 15.166 3 23.499s5.16699 16.833 9.5 25.5s11.166 15.667 20.499 21s20 8 32 8s21.167 -3.66699 27.5 -11s9.5 -15.666 9.5 -24.999c0 -10.667 -2.83301 -19.167 -8.5 -25.5s-16.167 -11.833 -31.5 -16.5c-12 -3.33301 -18 -11 -18 -23
c0 -9.33301 4.16699 -16.833 12.5 -22.5s19.166 -8.5 32.499 -8.5c24.667 0 47.667 13 69 39s37.833 58.667 49.5 98s17.5 79.666 17.5 120.999c0 98.667 -24.667 148 -74 148h-38l8 28h38c28 0 53.5 8.33301 76.5 25s40.333 37.167 52 61.5s17.5 49.166 17.5 74.499
c0 30 -5.33301 52.333 -16 67s-28 22 -52 22c-10.667 0 -21.667 -2.16699 -33 -6.5s-23.5 -11.333 -36.5 -21s-25.333 -24.5 -37 -44.5s-21.5 -43.667 -29.5 -71l-206 -758h-66z" />
    <glyph glyph-name="agrave" unicode="&#xe0;" horiz-adv-x="536" 
d="M42 125c0 40.667 5.99902 80 17.999 118s25.667 68.667 41 92c23.333 36.667 50.5 66 81.5 88s62.5 33 94.5 33c20.667 0 39.334 -7.16699 56.001 -21.5s28.667 -36.5 36 -66.5l4 -2l22 78h66l-85 -315c-9.33301 -37.333 -14 -64 -14 -80c0 -18 6 -27 18 -27
c18.667 0 37.667 14.833 57 44.5s36.666 68.167 51.999 115.5l20 -6c-7.33301 -22.667 -15.666 -44.167 -24.999 -64.5s-20.333 -40.333 -33 -60s-26.667 -35.167 -42 -46.5s-31 -17 -47 -17c-38.667 0 -58 34 -58 102l1 27l-3 2
c-5.33301 -12.667 -12.666 -25.667 -21.999 -39s-20.333 -27.333 -33 -42s-27.334 -26.667 -44.001 -36s-33 -14 -49 -14c-35.333 0 -62.833 12.5 -82.5 37.5s-29.5 58.167 -29.5 99.5zM113.999 85c0 -19.333 3.66699 -36.332 11 -50.999s19 -22 35 -22
c24 0 47.667 12.333 71 37s44.333 58.334 63 101.001c13.333 30.667 25 64.167 35 100.5s15 66.166 15 89.499c0 29.333 -6 52 -18 68s-28.333 24 -49 24c-11.333 0 -22.333 -3.66699 -33 -11s-20.667 -16.833 -30 -28.5s-17.5 -23.334 -24.5 -35.001
s-13.5 -24.167 -19.5 -37.5c-17.333 -37.333 -31 -77 -41 -119s-15 -80.667 -15 -116zM229.999 640.001c0 8 2.66602 16 7.99902 24s14.666 12 27.999 12c10.667 0 18.834 -3 24.501 -9s10.834 -16 15.501 -30l40 -119l-17 -10l-85 97c-9.33301 10 -14 21.667 -14 35z" />
    <glyph glyph-name="aacute" unicode="&#xe1;" horiz-adv-x="536" 
d="M42 125c0 40.667 5.99902 80 17.999 118s25.667 68.667 41 92c23.333 36.667 50.5 66 81.5 88s62.5 33 94.5 33c20.667 0 39.334 -7.16699 56.001 -21.5s28.667 -36.5 36 -66.5l4 -2l22 78h66l-85 -315c-9.33301 -37.333 -14 -64 -14 -80c0 -18 6 -27 18 -27
c18.667 0 37.667 14.833 57 44.5s36.666 68.167 51.999 115.5l20 -6c-7.33301 -22.667 -15.666 -44.167 -24.999 -64.5s-20.333 -40.333 -33 -60s-26.667 -35.167 -42 -46.5s-31 -17 -47 -17c-38.667 0 -58 34 -58 102l1 27l-3 2
c-5.33301 -12.667 -12.666 -25.667 -21.999 -39s-20.333 -27.333 -33 -42s-27.334 -26.667 -44.001 -36s-33 -14 -49 -14c-35.333 0 -62.833 12.5 -82.5 37.5s-29.5 58.167 -29.5 99.5zM113.999 85c0 -19.333 3.66699 -36.332 11 -50.999s19 -22 35 -22
c24 0 47.667 12.333 71 37s44.333 58.334 63 101.001c13.333 30.667 25 64.167 35 100.5s15 66.166 15 89.499c0 29.333 -6 52 -18 68s-28.333 24 -49 24c-11.333 0 -22.333 -3.66699 -33 -11s-20.667 -16.833 -30 -28.5s-17.5 -23.334 -24.5 -35.001
s-13.5 -24.167 -19.5 -37.5c-17.333 -37.333 -31 -77 -41 -119s-15 -80.667 -15 -116zM307.999 520.001l106 123c15.333 18 31.333 27 48 27c10 0 17.167 -2.83301 21.5 -8.5s6.5 -12.5 6.5 -20.5c0 -16.667 -10.667 -32 -32 -46l-138 -87z" />
    <glyph glyph-name="acircumflex" unicode="&#xe2;" horiz-adv-x="536" 
d="M42 125c0 40.667 5.99902 80 17.999 118s25.667 68.667 41 92c23.333 36.667 50.5 66 81.5 88s62.5 33 94.5 33c20.667 0 39.334 -7.16699 56.001 -21.5s28.667 -36.5 36 -66.5l4 -2l22 78h66l-85 -315c-9.33301 -37.333 -14 -64 -14 -80c0 -18 6 -27 18 -27
c18.667 0 37.667 14.833 57 44.5s36.666 68.167 51.999 115.5l20 -6c-7.33301 -22.667 -15.666 -44.167 -24.999 -64.5s-20.333 -40.333 -33 -60s-26.667 -35.167 -42 -46.5s-31 -17 -47 -17c-38.667 0 -58 34 -58 102l1 27l-3 2
c-5.33301 -12.667 -12.666 -25.667 -21.999 -39s-20.333 -27.333 -33 -42s-27.334 -26.667 -44.001 -36s-33 -14 -49 -14c-35.333 0 -62.833 12.5 -82.5 37.5s-29.5 58.167 -29.5 99.5zM113.999 85c0 -19.333 3.66699 -36.332 11 -50.999s19 -22 35 -22
c24 0 47.667 12.333 71 37s44.333 58.334 63 101.001c13.333 30.667 25 64.167 35 100.5s15 66.166 15 89.499c0 29.333 -6 52 -18 68s-28.333 24 -49 24c-11.333 0 -22.333 -3.66699 -33 -11s-20.667 -16.833 -30 -28.5s-17.5 -23.334 -24.5 -35.001
s-13.5 -24.167 -19.5 -37.5c-17.333 -37.333 -31 -77 -41 -119s-15 -80.667 -15 -116zM193.999 521.001c59.333 31.333 110 81.666 152 150.999h40c6 -69.333 29.333 -119.666 70 -150.999l-12 -13c-40 24 -72.333 54.667 -97 92c-47.333 -38 -96.333 -68.667 -147 -92z" />
    <glyph glyph-name="atilde" unicode="&#xe3;" horiz-adv-x="536" 
d="M42 125c0 40.667 5.99902 80 17.999 118s25.667 68.667 41 92c23.333 36.667 50.5 66 81.5 88s62.5 33 94.5 33c20.667 0 39.334 -7.16699 56.001 -21.5s28.667 -36.5 36 -66.5l4 -2l22 78h66l-85 -315c-9.33301 -37.333 -14 -64 -14 -80c0 -18 6 -27 18 -27
c18.667 0 37.667 14.833 57 44.5s36.666 68.167 51.999 115.5l20 -6c-7.33301 -22.667 -15.666 -44.167 -24.999 -64.5s-20.333 -40.333 -33 -60s-26.667 -35.167 -42 -46.5s-31 -17 -47 -17c-38.667 0 -58 34 -58 102l1 27l-3 2
c-5.33301 -12.667 -12.666 -25.667 -21.999 -39s-20.333 -27.333 -33 -42s-27.334 -26.667 -44.001 -36s-33 -14 -49 -14c-35.333 0 -62.833 12.5 -82.5 37.5s-29.5 58.167 -29.5 99.5zM113.999 85c0 -19.333 3.66699 -36.332 11 -50.999s19 -22 35 -22
c24 0 47.667 12.333 71 37s44.333 58.334 63 101.001c13.333 30.667 25 64.167 35 100.5s15 66.166 15 89.499c0 29.333 -6 52 -18 68s-28.333 24 -49 24c-11.333 0 -22.333 -3.66699 -33 -11s-20.667 -16.833 -30 -28.5s-17.5 -23.334 -24.5 -35.001
s-13.5 -24.167 -19.5 -37.5c-17.333 -37.333 -31 -77 -41 -119s-15 -80.667 -15 -116zM213.999 556.001c0 26 7 48.167 21 66.5s33.667 27.5 59 27.5c17.333 0 34 -3.33301 50 -10l46 -20c14.667 -6.66699 28.667 -10 42 -10c11.333 0 19.5 3.33301 24.5 10
s8.83301 16.667 11.5 30h22c0 -26 -7 -48.167 -21 -66.5s-33.667 -27.5 -59 -27.5c-17.333 0 -34 3.33301 -50 10l-46 20c-14.667 6.66699 -28.667 10 -42 10c-11.333 0 -19.5 -3.33301 -24.5 -10s-8.83301 -16.667 -11.5 -30h-22z" />
    <glyph glyph-name="adieresis" unicode="&#xe4;" horiz-adv-x="536" 
d="M42 125c0 40.667 5.99902 80 17.999 118s25.667 68.667 41 92c23.333 36.667 50.5 66 81.5 88s62.5 33 94.5 33c20.667 0 39.334 -7.16699 56.001 -21.5s28.667 -36.5 36 -66.5l4 -2l22 78h66l-85 -315c-9.33301 -37.333 -14 -64 -14 -80c0 -18 6 -27 18 -27
c18.667 0 37.667 14.833 57 44.5s36.666 68.167 51.999 115.5l20 -6c-7.33301 -22.667 -15.666 -44.167 -24.999 -64.5s-20.333 -40.333 -33 -60s-26.667 -35.167 -42 -46.5s-31 -17 -47 -17c-38.667 0 -58 34 -58 102l1 27l-3 2
c-5.33301 -12.667 -12.666 -25.667 -21.999 -39s-20.333 -27.333 -33 -42s-27.334 -26.667 -44.001 -36s-33 -14 -49 -14c-35.333 0 -62.833 12.5 -82.5 37.5s-29.5 58.167 -29.5 99.5zM113.999 85c0 -19.333 3.66699 -36.332 11 -50.999s19 -22 35 -22
c24 0 47.667 12.333 71 37s44.333 58.334 63 101.001c13.333 30.667 25 64.167 35 100.5s15 66.166 15 89.499c0 29.333 -6 52 -18 68s-28.333 24 -49 24c-11.333 0 -22.333 -3.66699 -33 -11s-20.667 -16.833 -30 -28.5s-17.5 -23.334 -24.5 -35.001
s-13.5 -24.167 -19.5 -37.5c-17.333 -37.333 -31 -77 -41 -119s-15 -80.667 -15 -116zM389.999 596.001c0 14.667 5 27 15 37s22.333 15 37 15s27 -5 37 -15s15 -22.333 15 -37s-5 -27 -15 -37s-22.333 -15 -37 -15s-27 5 -37 15s-15 22.333 -15 37zM201.999 596.001
c0 14.667 5 27 15 37s22.333 15 37 15s27 -5 37 -15s15 -22.333 15 -37s-5 -27 -15 -37s-22.333 -15 -37 -15s-27 5 -37 15s-15 22.333 -15 37z" />
    <glyph glyph-name="aring" unicode="&#xe5;" horiz-adv-x="536" 
d="M42 125c0 40.667 5.99902 80 17.999 118s25.667 68.667 41 92c23.333 36.667 50.5 66 81.5 88s62.5 33 94.5 33c20.667 0 39.334 -7.16699 56.001 -21.5s28.667 -36.5 36 -66.5l4 -2l22 78h66l-85 -315c-9.33301 -37.333 -14 -64 -14 -80c0 -18 6 -27 18 -27
c18.667 0 37.667 14.833 57 44.5s36.666 68.167 51.999 115.5l20 -6c-7.33301 -22.667 -15.666 -44.167 -24.999 -64.5s-20.333 -40.333 -33 -60s-26.667 -35.167 -42 -46.5s-31 -17 -47 -17c-38.667 0 -58 34 -58 102l1 27l-3 2
c-5.33301 -12.667 -12.666 -25.667 -21.999 -39s-20.333 -27.333 -33 -42s-27.334 -26.667 -44.001 -36s-33 -14 -49 -14c-35.333 0 -62.833 12.5 -82.5 37.5s-29.5 58.167 -29.5 99.5zM113.999 85c0 -19.333 3.66699 -36.332 11 -50.999s19 -22 35 -22
c24 0 47.667 12.333 71 37s44.333 58.334 63 101.001c13.333 30.667 25 64.167 35 100.5s15 66.166 15 89.499c0 29.333 -6 52 -18 68s-28.333 24 -49 24c-11.333 0 -22.333 -3.66699 -33 -11s-20.667 -16.833 -30 -28.5s-17.5 -23.334 -24.5 -35.001
s-13.5 -24.167 -19.5 -37.5c-17.333 -37.333 -31 -77 -41 -119s-15 -80.667 -15 -116zM249.999 598.001c0 26.667 9.33301 49.334 28 68.001s41.667 28 69 28s50.333 -9.33301 69 -28s28 -41.334 28 -68.001s-9.33301 -49.667 -28 -69s-41.667 -29 -69 -29
s-50.333 9.66699 -69 29s-28 42.333 -28 69zM273.999 598.001c0 -21.333 7 -39 21 -53s31.333 -21 52 -21s38 7 52 21s21 31.667 21 53s-7 38.666 -21 51.999s-31.333 20 -52 20s-38 -6.66699 -52 -20s-21 -30.666 -21 -51.999z" />
    <glyph glyph-name="ae" unicode="&#xe6;" horiz-adv-x="684" 
d="M114 85c0 -19.333 3.66699 -36.332 11 -50.999s19 -22 35 -22c24 0 47.667 12.333 71 37s44.333 58.334 63 101.001c13.333 30.667 25 64.167 35 100.5s15 66.166 15 89.499c0 29.333 -6 52 -18 68s-28.333 24 -49 24c-11.333 0 -22.333 -3.66699 -33 -11
s-20.667 -16.833 -30 -28.5s-17.5 -23.334 -24.5 -35.001s-13.5 -24.167 -19.5 -37.5c-17.333 -37.333 -31 -77 -41 -119s-15 -80.667 -15 -116zM408 240.001c58 4 101.001 12.334 129.001 25.001c20.667 9.33301 37.667 24.166 51 44.499s20 43.5 20 69.5
c0 35.333 -14.667 53 -44 53c-14 0 -27.833 -4 -41.5 -12s-26 -18.667 -37 -32s-20.333 -26.333 -28 -39s-14.834 -25.667 -21.501 -39c-4 -7.33301 -9.33301 -19.833 -16 -37.5s-10.667 -28.5 -12 -32.5zM42.001 125.002c0 40.667 5.99902 80 17.999 118
s25.667 68.667 41 92c23.333 36.667 50.5 66 81.5 88s62.5 33 94.5 33c20.667 0 39.334 -7.16699 56.001 -21.5s28.667 -36.5 36 -66.5l4 -2l22 78h66l-22 -78l7 2c41.333 58.667 84.333 88 129 88c24 0 43.5 -7.33301 58.5 -22s22.5 -34.334 22.5 -59.001
c0 -28 -9 -52.667 -27 -74s-42.333 -39 -73 -53c-38.667 -17.333 -90 -28.333 -154 -33c-15.333 -44.667 -23 -82.667 -23 -114c0 -59.333 26 -89 78 -89c16.667 0 33.167 4.33301 49.5 13s30.333 19 42 31s22.334 25.167 32.001 39.5s17 26.333 22 36s8.5 17.5 10.5 23.5
l21 -7c-15.333 -44 -40.5 -81.667 -75.5 -113s-70.5 -47 -106.5 -47c-24 0 -45 3.33301 -63 10s-31.833 14.5 -41.5 23.5s-17.834 20.167 -24.501 33.5s-11 24.333 -13 33s-3.66699 18.334 -5 29.001l-3 2c-5.33301 -12.667 -12.666 -25.667 -21.999 -39
s-20.333 -27.333 -33 -42s-27.334 -26.667 -44.001 -36s-33 -14 -49 -14c-35.333 0 -62.833 12.5 -82.5 37.5s-29.5 58.167 -29.5 99.5z" />
    <glyph glyph-name="ccedilla" unicode="&#xe7;" horiz-adv-x="424" 
d="M41 -148c0 12 3.99902 23.498 11.999 34.498s18 16.5 30 16.5c9.33301 0 16.333 -2.83301 21 -8.5s7 -13.167 7 -22.5c0 -6.66699 -2.5 -12.667 -7.5 -18s-10.5 -8 -16.5 -8c-2 0 -4 -1 -6 -3s-3 -4.66699 -3 -8c0 -16.667 13 -25 39 -25c18 0 31.667 5.5 41 16.5
s14 23.5 14 37.5s-4.66699 31.667 -14 53c-6.66699 14 -10 26 -10 36c0 11.333 3 22.666 9 33.999l2 4c-32.667 7.33301 -58.667 26.666 -78 57.999s-29 67.666 -29 108.999c0 40 7.33301 79.667 22 119s36.667 74 66 104c23.333 24.667 46.833 43.334 70.5 56.001
s50.167 19 79.5 19c12 0 23.333 -1.66699 34 -5s20.667 -8.66602 30 -15.999s17 -17.833 23 -31.5s9 -29.5 9 -47.5c0 -20 -5.66699 -36.667 -17 -50s-24.666 -20 -39.999 -20c-12.667 0 -22.334 4 -29.001 12s-10 16.667 -10 26c0 18.667 10.667 36 32 52
c7.33301 6 11 14.667 11 26c0 6.66699 -3.66699 13.334 -11 20.001s-19.333 10 -36 10c-52 0 -97.333 -58 -136 -174c-7.33301 -21.333 -13.5 -48.666 -18.5 -81.999s-7.5 -59.333 -7.5 -78c0 -29.333 6.66699 -51 20 -65s29 -21 47 -21s35.667 4.33301 53 13
s31.333 18.834 42 30.501s20.834 25 30.501 40s16.5 26.833 20.5 35.5s7.33301 16.667 10 24l21 -7c-16 -45.333 -40.333 -83.333 -73 -114s-69 -46 -109 -46h-2l-6 -9c-2.66699 -4.66699 -4 -9.66699 -4 -15c0 -10.667 6.66699 -22.667 20 -36
c18.667 -18.667 28 -36.667 28 -54c0 -24 -10.333 -44.333 -31 -61s-46 -25 -76 -25c-19.333 0 -36.5 5.66699 -51.5 17s-22.5 27 -22.5 47z" />
    <glyph glyph-name="egrave" unicode="&#xe8;" horiz-adv-x="410" 
d="M52 158c0 40 7.33203 79.666 21.999 118.999s36.667 74 66 104c48 50 98 75 150 75c26.667 0 48.5 -6.66699 65.5 -20s25.5 -34.666 25.5 -63.999c0 -52 -33.667 -93.667 -101 -125c-34.667 -16.667 -82 -27.334 -142 -32.001c-9.33301 -37.333 -14 -76.333 -14 -117
c0 -29.333 6.66699 -51 20 -65s29 -21 47 -21s35.667 4.33301 53 13s31.333 18.834 42 30.501s20.834 25 30.501 40s16.5 26.833 20.5 35.5s7.33301 16.667 10 24l21 -7c-16 -45.333 -40.333 -83.333 -73 -114s-69 -46 -109 -46s-72.333 16.5 -97 49.5s-37 73.167 -37 120.5
zM143.999 239.999c48.667 3.33301 87.666 11.666 116.999 24.999c20.667 9.33301 37.834 24 51.501 44s20.5 43 20.5 69c0 18.667 -3.83301 32.334 -11.5 41.001s-17.834 13 -30.501 13c-27.333 0 -52.666 -12.333 -75.999 -37s-40.333 -52 -51 -82
c-8 -22.667 -14.667 -47 -20 -73zM219.998 639.999c0 8 2.66602 16 7.99902 24s14.666 12 27.999 12c10.667 0 18.834 -3 24.501 -9s10.834 -16 15.501 -30l40 -119l-17 -10l-85 97c-9.33301 10 -14 21.667 -14 35z" />
    <glyph glyph-name="eacute" unicode="&#xe9;" horiz-adv-x="410" 
d="M52 158c0 40 7.33203 79.666 21.999 118.999s36.667 74 66 104c48 50 98 75 150 75c26.667 0 48.5 -6.66699 65.5 -20s25.5 -34.666 25.5 -63.999c0 -52 -33.667 -93.667 -101 -125c-34.667 -16.667 -82 -27.334 -142 -32.001c-9.33301 -37.333 -14 -76.333 -14 -117
c0 -29.333 6.66699 -51 20 -65s29 -21 47 -21s35.667 4.33301 53 13s31.333 18.834 42 30.501s20.834 25 30.501 40s16.5 26.833 20.5 35.5s7.33301 16.667 10 24l21 -7c-16 -45.333 -40.333 -83.333 -73 -114s-69 -46 -109 -46s-72.333 16.5 -97 49.5s-37 73.167 -37 120.5
zM143.999 239.999c48.667 3.33301 87.666 11.666 116.999 24.999c20.667 9.33301 37.834 24 51.501 44s20.5 43 20.5 69c0 18.667 -3.83301 32.334 -11.5 41.001s-17.834 13 -30.501 13c-27.333 0 -52.666 -12.333 -75.999 -37s-40.333 -52 -51 -82
c-8 -22.667 -14.667 -47 -20 -73zM297.998 519.999l106 123c15.333 18 31.333 27 48 27c10 0 17.167 -2.83301 21.5 -8.5s6.5 -12.5 6.5 -20.5c0 -16.667 -10.667 -32 -32 -46l-138 -87z" />
    <glyph glyph-name="ecircumflex" unicode="&#xea;" horiz-adv-x="410" 
d="M52 158c0 40 7.33203 79.666 21.999 118.999s36.667 74 66 104c48 50 98 75 150 75c26.667 0 48.5 -6.66699 65.5 -20s25.5 -34.666 25.5 -63.999c0 -52 -33.667 -93.667 -101 -125c-34.667 -16.667 -82 -27.334 -142 -32.001c-9.33301 -37.333 -14 -76.333 -14 -117
c0 -29.333 6.66699 -51 20 -65s29 -21 47 -21s35.667 4.33301 53 13s31.333 18.834 42 30.501s20.834 25 30.501 40s16.5 26.833 20.5 35.5s7.33301 16.667 10 24l21 -7c-16 -45.333 -40.333 -83.333 -73 -114s-69 -46 -109 -46s-72.333 16.5 -97 49.5s-37 73.167 -37 120.5
zM143.999 239.999c48.667 3.33301 87.666 11.666 116.999 24.999c20.667 9.33301 37.834 24 51.501 44s20.5 43 20.5 69c0 18.667 -3.83301 32.334 -11.5 41.001s-17.834 13 -30.501 13c-27.333 0 -52.666 -12.333 -75.999 -37s-40.333 -52 -51 -82
c-8 -22.667 -14.667 -47 -20 -73zM183.998 520.999c59.333 31.333 110 81.666 152 150.999h40c6 -69.333 29.333 -119.666 70 -150.999l-12 -13c-40 24 -72.333 54.667 -97 92c-47.333 -38 -96.333 -68.667 -147 -92z" />
    <glyph glyph-name="edieresis" unicode="&#xeb;" horiz-adv-x="410" 
d="M52 158c0 40 7.33203 79.666 21.999 118.999s36.667 74 66 104c48 50 98 75 150 75c26.667 0 48.5 -6.66699 65.5 -20s25.5 -34.666 25.5 -63.999c0 -52 -33.667 -93.667 -101 -125c-34.667 -16.667 -82 -27.334 -142 -32.001c-9.33301 -37.333 -14 -76.333 -14 -117
c0 -29.333 6.66699 -51 20 -65s29 -21 47 -21s35.667 4.33301 53 13s31.333 18.834 42 30.501s20.834 25 30.501 40s16.5 26.833 20.5 35.5s7.33301 16.667 10 24l21 -7c-16 -45.333 -40.333 -83.333 -73 -114s-69 -46 -109 -46s-72.333 16.5 -97 49.5s-37 73.167 -37 120.5
zM143.999 239.999c48.667 3.33301 87.666 11.666 116.999 24.999c20.667 9.33301 37.834 24 51.501 44s20.5 43 20.5 69c0 18.667 -3.83301 32.334 -11.5 41.001s-17.834 13 -30.501 13c-27.333 0 -52.666 -12.333 -75.999 -37s-40.333 -52 -51 -82
c-8 -22.667 -14.667 -47 -20 -73zM379.998 595.999c0 14.667 5 27 15 37s22.333 15 37 15s27 -5 37 -15s15 -22.333 15 -37s-5 -27 -15 -37s-22.333 -15 -37 -15s-27 5 -37 15s-15 22.333 -15 37zM191.998 595.999c0 14.667 5 27 15 37s22.333 15 37 15s27 -5 37 -15
s15 -22.333 15 -37s-5 -27 -15 -37s-22.333 -15 -37 -15s-27 5 -37 15s-15 22.333 -15 37z" />
    <glyph glyph-name="igrave" unicode="&#xec;" horiz-adv-x="334" 
d="M36 268c18.667 53.333 40.8369 98.001 66.5039 134.001s53.5 54 83.5 54c17.333 0 32.166 -8.33301 44.499 -25s18.5 -40.334 18.5 -71.001c0 -14.667 -2.16699 -32.334 -6.5 -53.001s-8.83301 -37 -13.5 -49l-64 -149c-10.667 -23.333 -16 -43 -16 -59
c0 -9.33301 1.83301 -17 5.5 -23s9.5 -9 17.5 -9c12 0 24.333 5.83301 37 17.5s24.334 27 35.001 46s19.5 36.333 26.5 52s13.5 31.834 19.5 48.501l20 -6c-12 -34 -24.833 -64.333 -38.5 -91s-30.334 -49.5 -50.001 -68.5s-39.834 -28.5 -60.501 -28.5
c-18 0 -33.167 8 -45.5 24s-18.5 40 -18.5 72c0 14.667 2 32 6 52s8.66699 36.667 14 50l64 149c10.667 23.333 16 43 16 59c0 21.333 -7.33301 32 -22 32c-12.667 0 -25.334 -5.83301 -38.001 -17.5s-24.334 -27 -35.001 -46s-19.5 -36.5 -26.5 -52.5s-13.5 -32 -19.5 -48z
M132.003 640.001c0 8 2.66602 16 7.99902 24s14.666 12 27.999 12c10.667 0 18.834 -3 24.501 -9s10.834 -16 15.501 -30l40 -119l-17 -10l-85 97c-9.33301 10 -14 21.667 -14 35z" />
    <glyph glyph-name="iacute" unicode="&#xed;" horiz-adv-x="334" 
d="M36 268c18.667 53.333 40.8369 98.001 66.5039 134.001s53.5 54 83.5 54c17.333 0 32.166 -8.33301 44.499 -25s18.5 -40.334 18.5 -71.001c0 -14.667 -2.16699 -32.334 -6.5 -53.001s-8.83301 -37 -13.5 -49l-64 -149c-10.667 -23.333 -16 -43 -16 -59
c0 -9.33301 1.83301 -17 5.5 -23s9.5 -9 17.5 -9c12 0 24.333 5.83301 37 17.5s24.334 27 35.001 46s19.5 36.333 26.5 52s13.5 31.834 19.5 48.501l20 -6c-12 -34 -24.833 -64.333 -38.5 -91s-30.334 -49.5 -50.001 -68.5s-39.834 -28.5 -60.501 -28.5
c-18 0 -33.167 8 -45.5 24s-18.5 40 -18.5 72c0 14.667 2 32 6 52s8.66699 36.667 14 50l64 149c10.667 23.333 16 43 16 59c0 21.333 -7.33301 32 -22 32c-12.667 0 -25.334 -5.83301 -38.001 -17.5s-24.334 -27 -35.001 -46s-19.5 -36.5 -26.5 -52.5s-13.5 -32 -19.5 -48z
M210.003 520.001l106 123c15.333 18 31.333 27 48 27c10 0 17.167 -2.83301 21.5 -8.5s6.5 -12.5 6.5 -20.5c0 -16.667 -10.667 -32 -32 -46l-138 -87z" />
    <glyph glyph-name="icircumflex" unicode="&#xee;" horiz-adv-x="334" 
d="M36 268c18.667 53.333 40.8369 98.001 66.5039 134.001s53.5 54 83.5 54c17.333 0 32.166 -8.33301 44.499 -25s18.5 -40.334 18.5 -71.001c0 -14.667 -2.16699 -32.334 -6.5 -53.001s-8.83301 -37 -13.5 -49l-64 -149c-10.667 -23.333 -16 -43 -16 -59
c0 -9.33301 1.83301 -17 5.5 -23s9.5 -9 17.5 -9c12 0 24.333 5.83301 37 17.5s24.334 27 35.001 46s19.5 36.333 26.5 52s13.5 31.834 19.5 48.501l20 -6c-12 -34 -24.833 -64.333 -38.5 -91s-30.334 -49.5 -50.001 -68.5s-39.834 -28.5 -60.501 -28.5
c-18 0 -33.167 8 -45.5 24s-18.5 40 -18.5 72c0 14.667 2 32 6 52s8.66699 36.667 14 50l64 149c10.667 23.333 16 43 16 59c0 21.333 -7.33301 32 -22 32c-12.667 0 -25.334 -5.83301 -38.001 -17.5s-24.334 -27 -35.001 -46s-19.5 -36.5 -26.5 -52.5s-13.5 -32 -19.5 -48z
M96.0029 521.001c59.333 31.333 110 81.666 152 150.999h40c6 -69.333 29.333 -119.666 70 -150.999l-12 -13c-40 24 -72.333 54.667 -97 92c-47.333 -38 -96.333 -68.667 -147 -92z" />
    <glyph glyph-name="idieresis" unicode="&#xef;" horiz-adv-x="334" 
d="M280 596c0 14.667 5 27 15 37s22.333 15 37 15s27 -5 37 -15s15 -22.333 15 -37s-5 -27 -15 -37s-22.333 -15 -37 -15s-27 5 -37 15s-15 22.333 -15 37zM116 596c0 14.667 5 27 15 37s22.333 15 37 15s27 -5 37 -15s15 -22.333 15 -37s-5 -27 -15 -37
s-22.333 -15 -37 -15s-27 5 -37 15s-15 22.333 -15 37zM36 268c18.667 53.333 40.8369 98.001 66.5039 134.001s53.5 54 83.5 54c17.333 0 32.166 -8.33301 44.499 -25s18.5 -40.334 18.5 -71.001c0 -14.667 -2.16699 -32.334 -6.5 -53.001s-8.83301 -37 -13.5 -49l-64 -149
c-10.667 -23.333 -16 -43 -16 -59c0 -9.33301 1.83301 -17 5.5 -23s9.5 -9 17.5 -9c12 0 24.333 5.83301 37 17.5s24.334 27 35.001 46s19.5 36.333 26.5 52s13.5 31.834 19.5 48.501l20 -6c-12 -34 -24.833 -64.333 -38.5 -91s-30.334 -49.5 -50.001 -68.5
s-39.834 -28.5 -60.501 -28.5c-18 0 -33.167 8 -45.5 24s-18.5 40 -18.5 72c0 14.667 2 32 6 52s8.66699 36.667 14 50l64 149c10.667 23.333 16 43 16 59c0 21.333 -7.33301 32 -22 32c-12.667 0 -25.334 -5.83301 -38.001 -17.5s-24.334 -27 -35.001 -46
s-19.5 -36.5 -26.5 -52.5s-13.5 -32 -19.5 -48z" />
    <glyph glyph-name="eth" unicode="&#xf0;" horiz-adv-x="494" 
d="M52 164c0 34.667 6.66992 69.668 20.0029 105.001s30.666 66.666 51.999 93.999s47.166 49.666 77.499 66.999s61.166 26 92.499 26c30 0 55.667 -10.667 77 -32l9 4c0 34.667 -7 70.667 -21 108c-4 10.667 -7 18.334 -9 23.001l-124 -46l-10 27l121 44
c-16 34.667 -40 74 -72 118h89c21.333 -30.667 38.333 -61.667 51 -93l121 44l10 -27l-120 -44l7 -18c8.66699 -22.667 15.667 -50.334 21 -83.001s8 -60.667 8 -84c0 -34.667 -4.66699 -72.5 -14 -113.5s-20 -75.5 -32 -103.5
c-24.667 -57.333 -56.5 -103.666 -95.5 -138.999s-80.5 -53 -124.5 -53c-35.333 0 -66.5 15.333 -93.5 46s-40.5 74 -40.5 130zM124.003 104.001c0 -27.333 5.66992 -49.5039 17.0029 -66.5039s27.666 -25.5 48.999 -25.5c14.667 0 28 3.33301 40 10
s22.833 16.334 32.5 29.001s17.667 24.834 24 36.501s13.166 25.834 20.499 42.501c14 32 25.333 67.167 34 105.5s13 73.166 13 104.499c0 27.333 -5.33301 49.5 -16 66.5s-26.667 25.5 -48 25.5c-14.667 0 -28.167 -3.33301 -40.5 -10s-23.333 -16.167 -33 -28.5
s-17.834 -24.666 -24.501 -36.999s-13.667 -26.5 -21 -42.5c-14 -32 -25.333 -67.167 -34 -105.5s-13 -73.166 -13 -104.499z" />
    <glyph glyph-name="ntilde" unicode="&#xf1;" horiz-adv-x="572" 
d="M36 268c44 125.333 93.001 187.999 147.001 187.999c38.667 0 58 -34 58 -102c0 -13.333 -3.16699 -33.833 -9.5 -61.5s-11.833 -47.5 -16.5 -59.5l3 -3c2.66699 4 8.33398 14.5 17.001 31.5s16 30.833 22 41.5s14.333 24.5 25 41.5s21 31.167 31 42.5s21 22.833 33 34.5
s24.333 20.334 37 26.001s25.667 8.5 39 8.5c20 0 35.833 -8.16699 47.5 -24.5s17.5 -40.166 17.5 -71.499c0 -14.667 -2.16699 -32.334 -6.5 -53.001s-8.83301 -37 -13.5 -49l-64 -149c-10.667 -23.333 -16 -43 -16 -59c0 -9.33301 1.83301 -17 5.5 -23s9.5 -9 17.5 -9
c12 0 24.333 5.83301 37 17.5s24.334 27 35.001 46s19.5 36.333 26.5 52s13.5 31.834 19.5 48.501l20 -6c-12 -34 -24.833 -64.333 -38.5 -91s-30.334 -49.5 -50.001 -68.5s-39.834 -28.5 -60.501 -28.5c-18 0 -33.167 8 -45.5 24s-18.5 40 -18.5 72c0 14.667 2 32 6 52
s8.66699 36.667 14 50l64 149c10.667 23.333 16 43 16 59c0 21.333 -7.33301 32 -22 32c-40.667 0 -83 -37.667 -127 -113c-26.667 -44.667 -50.334 -89.5 -71.001 -134.5s-35.667 -82.5 -45 -112.5l-20 -66h-66l84 310c10 40 15 68.333 15 85c0 18 -6.33301 27 -19 27
c-13.333 0 -27 -8.33301 -41 -25s-26.333 -36.334 -37 -59.001s-20.667 -48 -30 -76zM242.001 555.999c0 26 7 48.167 21 66.5s33.667 27.5 59 27.5c17.333 0 34 -3.33301 50 -10l46 -20c14.667 -6.66699 28.667 -10 42 -10c11.333 0 19.5 3.33301 24.5 10
s8.83301 16.667 11.5 30h22c0 -26 -7 -48.167 -21 -66.5s-33.667 -27.5 -59 -27.5c-17.333 0 -34 3.33301 -50 10l-46 20c-14.667 6.66699 -28.667 10 -42 10c-11.333 0 -19.5 -3.33301 -24.5 -10s-8.83301 -16.667 -11.5 -30h-22z" />
    <glyph glyph-name="ograve" unicode="&#xf2;" horiz-adv-x="462" 
d="M124 104c0 -27.333 5.66992 -49.5039 17.0029 -66.5039s27.666 -25.5 48.999 -25.5c14.667 0 28 3.33301 40 10s22.833 16.334 32.5 29.001s17.667 24.834 24 36.501s13.166 25.834 20.499 42.501c14 32 25.333 67.167 34 105.5s13 73.166 13 104.499
c0 27.333 -5.33301 49.5 -16 66.5s-26.667 25.5 -48 25.5c-14.667 0 -28.167 -3.33301 -40.5 -10s-23.333 -16.167 -33 -28.5s-17.834 -24.666 -24.501 -36.999s-13.667 -26.5 -21 -42.5c-14 -32 -25.333 -67.167 -34 -105.5s-13 -73.166 -13 -104.499zM52.0029 163.996
c0 34.667 6.66797 69.667 20.001 105s30.666 66.666 51.999 93.999s47.166 49.666 77.499 66.999s61.166 26 92.499 26c16 0 31.833 -3.66699 47.5 -11s29.834 -18 42.501 -32s22.834 -32.5 30.501 -55.5s11.5 -48.833 11.5 -77.5c0 -34.667 -6.5 -69.667 -19.5 -105
s-30.167 -66.666 -51.5 -93.999s-47 -49.666 -77 -66.999s-60.667 -26 -92 -26c-35.333 0 -66.5 15.333 -93.5 46s-40.5 74 -40.5 130zM222.004 639.996c0 8 2.66602 16 7.99902 24s14.666 12 27.999 12c10.667 0 18.834 -3 24.501 -9s10.834 -16 15.501 -30l40 -119
l-17 -10l-85 97c-9.33301 10 -14 21.667 -14 35z" />
    <glyph glyph-name="oacute" unicode="&#xf3;" horiz-adv-x="462" 
d="M124 104c0 -27.333 5.66992 -49.5039 17.0029 -66.5039s27.666 -25.5 48.999 -25.5c14.667 0 28 3.33301 40 10s22.833 16.334 32.5 29.001s17.667 24.834 24 36.501s13.166 25.834 20.499 42.501c14 32 25.333 67.167 34 105.5s13 73.166 13 104.499
c0 27.333 -5.33301 49.5 -16 66.5s-26.667 25.5 -48 25.5c-14.667 0 -28.167 -3.33301 -40.5 -10s-23.333 -16.167 -33 -28.5s-17.834 -24.666 -24.501 -36.999s-13.667 -26.5 -21 -42.5c-14 -32 -25.333 -67.167 -34 -105.5s-13 -73.166 -13 -104.499zM52.0029 163.996
c0 34.667 6.66797 69.667 20.001 105s30.666 66.666 51.999 93.999s47.166 49.666 77.499 66.999s61.166 26 92.499 26c16 0 31.833 -3.66699 47.5 -11s29.834 -18 42.501 -32s22.834 -32.5 30.501 -55.5s11.5 -48.833 11.5 -77.5c0 -34.667 -6.5 -69.667 -19.5 -105
s-30.167 -66.666 -51.5 -93.999s-47 -49.666 -77 -66.999s-60.667 -26 -92 -26c-35.333 0 -66.5 15.333 -93.5 46s-40.5 74 -40.5 130zM300.004 519.996l106 123c15.333 18 31.333 27 48 27c10 0 17.167 -2.83301 21.5 -8.5s6.5 -12.5 6.5 -20.5
c0 -16.667 -10.667 -32 -32 -46l-138 -87z" />
    <glyph glyph-name="ocircumflex" unicode="&#xf4;" horiz-adv-x="462" 
d="M124 104c0 -27.333 5.66992 -49.5039 17.0029 -66.5039s27.666 -25.5 48.999 -25.5c14.667 0 28 3.33301 40 10s22.833 16.334 32.5 29.001s17.667 24.834 24 36.501s13.166 25.834 20.499 42.501c14 32 25.333 67.167 34 105.5s13 73.166 13 104.499
c0 27.333 -5.33301 49.5 -16 66.5s-26.667 25.5 -48 25.5c-14.667 0 -28.167 -3.33301 -40.5 -10s-23.333 -16.167 -33 -28.5s-17.834 -24.666 -24.501 -36.999s-13.667 -26.5 -21 -42.5c-14 -32 -25.333 -67.167 -34 -105.5s-13 -73.166 -13 -104.499zM52.0029 163.996
c0 34.667 6.66797 69.667 20.001 105s30.666 66.666 51.999 93.999s47.166 49.666 77.499 66.999s61.166 26 92.499 26c16 0 31.833 -3.66699 47.5 -11s29.834 -18 42.501 -32s22.834 -32.5 30.501 -55.5s11.5 -48.833 11.5 -77.5c0 -34.667 -6.5 -69.667 -19.5 -105
s-30.167 -66.666 -51.5 -93.999s-47 -49.666 -77 -66.999s-60.667 -26 -92 -26c-35.333 0 -66.5 15.333 -93.5 46s-40.5 74 -40.5 130zM186.004 520.996c59.333 31.333 110 81.666 152 150.999h40c6 -69.333 29.333 -119.666 70 -150.999l-12 -13
c-40 24 -72.333 54.667 -97 92c-47.333 -38 -96.333 -68.667 -147 -92z" />
    <glyph glyph-name="otilde" unicode="&#xf5;" horiz-adv-x="462" 
d="M124 104c0 -27.333 5.66992 -49.5039 17.0029 -66.5039s27.666 -25.5 48.999 -25.5c14.667 0 28 3.33301 40 10s22.833 16.334 32.5 29.001s17.667 24.834 24 36.501s13.166 25.834 20.499 42.501c14 32 25.333 67.167 34 105.5s13 73.166 13 104.499
c0 27.333 -5.33301 49.5 -16 66.5s-26.667 25.5 -48 25.5c-14.667 0 -28.167 -3.33301 -40.5 -10s-23.333 -16.167 -33 -28.5s-17.834 -24.666 -24.501 -36.999s-13.667 -26.5 -21 -42.5c-14 -32 -25.333 -67.167 -34 -105.5s-13 -73.166 -13 -104.499zM52.0029 163.996
c0 34.667 6.66797 69.667 20.001 105s30.666 66.666 51.999 93.999s47.166 49.666 77.499 66.999s61.166 26 92.499 26c16 0 31.833 -3.66699 47.5 -11s29.834 -18 42.501 -32s22.834 -32.5 30.501 -55.5s11.5 -48.833 11.5 -77.5c0 -34.667 -6.5 -69.667 -19.5 -105
s-30.167 -66.666 -51.5 -93.999s-47 -49.666 -77 -66.999s-60.667 -26 -92 -26c-35.333 0 -66.5 15.333 -93.5 46s-40.5 74 -40.5 130zM206.004 555.996c0 26 7 48.167 21 66.5s33.667 27.5 59 27.5c17.333 0 34 -3.33301 50 -10l46 -20c14.667 -6.66699 28.667 -10 42 -10
c11.333 0 19.5 3.33301 24.5 10s8.83301 16.667 11.5 30h22c0 -26 -7 -48.167 -21 -66.5s-33.667 -27.5 -59 -27.5c-17.333 0 -34 3.33301 -50 10l-46 20c-14.667 6.66699 -28.667 10 -42 10c-11.333 0 -19.5 -3.33301 -24.5 -10s-8.83301 -16.667 -11.5 -30h-22z" />
    <glyph glyph-name="odieresis" unicode="&#xf6;" horiz-adv-x="462" 
d="M124 104c0 -27.333 5.66992 -49.5039 17.0029 -66.5039s27.666 -25.5 48.999 -25.5c14.667 0 28 3.33301 40 10s22.833 16.334 32.5 29.001s17.667 24.834 24 36.501s13.166 25.834 20.499 42.501c14 32 25.333 67.167 34 105.5s13 73.166 13 104.499
c0 27.333 -5.33301 49.5 -16 66.5s-26.667 25.5 -48 25.5c-14.667 0 -28.167 -3.33301 -40.5 -10s-23.333 -16.167 -33 -28.5s-17.834 -24.666 -24.501 -36.999s-13.667 -26.5 -21 -42.5c-14 -32 -25.333 -67.167 -34 -105.5s-13 -73.166 -13 -104.499zM52.0029 163.996
c0 34.667 6.66797 69.667 20.001 105s30.666 66.666 51.999 93.999s47.166 49.666 77.499 66.999s61.166 26 92.499 26c16 0 31.833 -3.66699 47.5 -11s29.834 -18 42.501 -32s22.834 -32.5 30.501 -55.5s11.5 -48.833 11.5 -77.5c0 -34.667 -6.5 -69.667 -19.5 -105
s-30.167 -66.666 -51.5 -93.999s-47 -49.666 -77 -66.999s-60.667 -26 -92 -26c-35.333 0 -66.5 15.333 -93.5 46s-40.5 74 -40.5 130zM382.004 595.996c0 14.667 5 27 15 37s22.333 15 37 15s27 -5 37 -15s15 -22.333 15 -37s-5 -27 -15 -37s-22.333 -15 -37 -15
s-27 5 -37 15s-15 22.333 -15 37zM194.004 595.996c0 14.667 5 27 15 37s22.333 15 37 15s27 -5 37 -15s15 -22.333 15 -37s-5 -27 -15 -37s-22.333 -15 -37 -15s-27 5 -37 15s-15 22.333 -15 37z" />
    <glyph glyph-name="divide" unicode="&#xf7;" horiz-adv-x="940" 
d="M416 518c0 18 5.83301 32.833 17.5 44.5s26.5 17.5 44.5 17.5s32.833 -5.83301 44.5 -17.5s17.5 -26.5 17.5 -44.5s-5.83301 -32.833 -17.5 -44.5s-26.5 -17.5 -44.5 -17.5s-32.833 5.83301 -44.5 17.5s-17.5 26.5 -17.5 44.5zM416 6c0 18 5.83301 32.833 17.5 44.5
s26.5 17.5 44.5 17.5s32.833 -5.83301 44.5 -17.5s17.5 -26.5 17.5 -44.5s-5.83301 -32.833 -17.5 -44.5s-26.5 -17.5 -44.5 -17.5s-32.833 5.83301 -44.5 17.5s-17.5 26.5 -17.5 44.5zM56 244v40h844v-40h-844z" />
    <glyph glyph-name="oslash" unicode="&#xf8;" horiz-adv-x="462" 
d="M24 4l51.002 56.001c-15.333 29.333 -23 64 -23 104c0 34.667 6.66699 69.667 20 105s30.666 66.666 51.999 93.999s47.166 49.666 77.499 66.999s61.166 26 92.499 26c40 0 72.667 -17.667 98 -53l48 53l18 -18l-53 -57c14 -28.667 21 -62.334 21 -101.001
c0 -34.667 -6.5 -69.667 -19.5 -105s-30.167 -66.666 -51.5 -93.999s-47 -49.666 -77 -66.999s-60.667 -26 -92 -26c-39.333 0 -71.666 17 -96.999 51l-47 -51zM124.002 113.001l229.002 247.999c-2.66699 22 -9.16699 39.333 -19.5 52s-24.833 19 -43.5 19
c-14.667 0 -28.167 -3.33301 -40.5 -10s-23.333 -16.167 -33 -28.5s-17.834 -24.666 -24.501 -36.999s-13.667 -26.5 -21 -42.5c-12.667 -30.667 -23.334 -64.167 -32.001 -100.5s-13.667 -69.833 -15 -100.5zM126.004 79c2.66699 -20.667 9.66895 -37.0029 21.002 -49.0029
s25.666 -18 42.999 -18c14.667 0 28 3.33301 40 10s22.833 16.334 32.5 29.001s17.667 24.834 24 36.501s13.166 25.834 20.499 42.501c28 65.333 43.667 130.333 47 195z" />
    <glyph glyph-name="ugrave" unicode="&#xf9;" horiz-adv-x="572" 
d="M36 268c12 34 24.832 64.334 38.499 91.001s30.334 49.5 50.001 68.5s39.834 28.5 60.501 28.5c18 0 33.167 -8 45.5 -24s18.5 -40 18.5 -72c0 -14.667 -2 -32 -6 -52s-8.66699 -36.667 -14 -50l-64 -149c-10.667 -23.333 -16 -43 -16 -59c0 -21.333 7.33301 -32 22 -32
c40.667 0 83 37.667 127 113c26.667 44.667 50.334 89.5 71.001 134.5s35.667 82.5 45 112.5l20 66h66l-84 -310c-10 -40 -15 -68.333 -15 -85c0 -18 6.33301 -27 19 -27c13.333 0 27 8.33301 41 25s26.333 36.334 37 59.001s20.667 48 30 76l20 -6
c-44 -125.333 -93 -188 -147 -188c-38.667 0 -58 34 -58 102c0 13.333 3.16699 33.833 9.5 61.5s11.833 47.5 16.5 59.5l-3 3c-2.66699 -4 -8.33398 -14.5 -17.001 -31.5s-16 -30.833 -22 -41.5s-14.333 -24.5 -25 -41.5s-21 -31.167 -31 -42.5s-21 -22.833 -33 -34.5
s-24.333 -20.334 -37 -26.001s-25.667 -8.5 -39 -8.5c-20 0 -35.833 8.16699 -47.5 24.5s-17.5 40.166 -17.5 71.499c0 14.667 2.16699 32.334 6.5 53.001s8.83301 37 13.5 49l64 149c10.667 23.333 16 43 16 59c0 9.33301 -1.83301 17 -5.5 23s-9.5 9 -17.5 9
c-12 0 -24.333 -5.83301 -37 -17.5s-24.334 -27 -35.001 -46s-19.5 -36.333 -26.5 -52s-13.5 -31.834 -19.5 -48.501zM255.999 640.001c0 8 2.66602 16 7.99902 24s14.666 12 27.999 12c10.667 0 18.834 -3 24.501 -9s10.834 -16 15.501 -30l40 -119l-17 -10l-85 97
c-9.33301 10 -14 21.667 -14 35z" />
    <glyph glyph-name="uacute" unicode="&#xfa;" horiz-adv-x="572" 
d="M36 268c12 34 24.832 64.334 38.499 91.001s30.334 49.5 50.001 68.5s39.834 28.5 60.501 28.5c18 0 33.167 -8 45.5 -24s18.5 -40 18.5 -72c0 -14.667 -2 -32 -6 -52s-8.66699 -36.667 -14 -50l-64 -149c-10.667 -23.333 -16 -43 -16 -59c0 -21.333 7.33301 -32 22 -32
c40.667 0 83 37.667 127 113c26.667 44.667 50.334 89.5 71.001 134.5s35.667 82.5 45 112.5l20 66h66l-84 -310c-10 -40 -15 -68.333 -15 -85c0 -18 6.33301 -27 19 -27c13.333 0 27 8.33301 41 25s26.333 36.334 37 59.001s20.667 48 30 76l20 -6
c-44 -125.333 -93 -188 -147 -188c-38.667 0 -58 34 -58 102c0 13.333 3.16699 33.833 9.5 61.5s11.833 47.5 16.5 59.5l-3 3c-2.66699 -4 -8.33398 -14.5 -17.001 -31.5s-16 -30.833 -22 -41.5s-14.333 -24.5 -25 -41.5s-21 -31.167 -31 -42.5s-21 -22.833 -33 -34.5
s-24.333 -20.334 -37 -26.001s-25.667 -8.5 -39 -8.5c-20 0 -35.833 8.16699 -47.5 24.5s-17.5 40.166 -17.5 71.499c0 14.667 2.16699 32.334 6.5 53.001s8.83301 37 13.5 49l64 149c10.667 23.333 16 43 16 59c0 9.33301 -1.83301 17 -5.5 23s-9.5 9 -17.5 9
c-12 0 -24.333 -5.83301 -37 -17.5s-24.334 -27 -35.001 -46s-19.5 -36.333 -26.5 -52s-13.5 -31.834 -19.5 -48.501zM333.999 520.001l106 123c15.333 18 31.333 27 48 27c10 0 17.167 -2.83301 21.5 -8.5s6.5 -12.5 6.5 -20.5c0 -16.667 -10.667 -32 -32 -46l-138 -87z
" />
    <glyph glyph-name="ucircumflex" unicode="&#xfb;" horiz-adv-x="572" 
d="M36 268c12 34 24.832 64.334 38.499 91.001s30.334 49.5 50.001 68.5s39.834 28.5 60.501 28.5c18 0 33.167 -8 45.5 -24s18.5 -40 18.5 -72c0 -14.667 -2 -32 -6 -52s-8.66699 -36.667 -14 -50l-64 -149c-10.667 -23.333 -16 -43 -16 -59c0 -21.333 7.33301 -32 22 -32
c40.667 0 83 37.667 127 113c26.667 44.667 50.334 89.5 71.001 134.5s35.667 82.5 45 112.5l20 66h66l-84 -310c-10 -40 -15 -68.333 -15 -85c0 -18 6.33301 -27 19 -27c13.333 0 27 8.33301 41 25s26.333 36.334 37 59.001s20.667 48 30 76l20 -6
c-44 -125.333 -93 -188 -147 -188c-38.667 0 -58 34 -58 102c0 13.333 3.16699 33.833 9.5 61.5s11.833 47.5 16.5 59.5l-3 3c-2.66699 -4 -8.33398 -14.5 -17.001 -31.5s-16 -30.833 -22 -41.5s-14.333 -24.5 -25 -41.5s-21 -31.167 -31 -42.5s-21 -22.833 -33 -34.5
s-24.333 -20.334 -37 -26.001s-25.667 -8.5 -39 -8.5c-20 0 -35.833 8.16699 -47.5 24.5s-17.5 40.166 -17.5 71.499c0 14.667 2.16699 32.334 6.5 53.001s8.83301 37 13.5 49l64 149c10.667 23.333 16 43 16 59c0 9.33301 -1.83301 17 -5.5 23s-9.5 9 -17.5 9
c-12 0 -24.333 -5.83301 -37 -17.5s-24.334 -27 -35.001 -46s-19.5 -36.333 -26.5 -52s-13.5 -31.834 -19.5 -48.501zM219.999 521.001c59.333 31.333 110 81.666 152 150.999h40c6 -69.333 29.333 -119.666 70 -150.999l-12 -13c-40 24 -72.333 54.667 -97 92
c-47.333 -38 -96.333 -68.667 -147 -92z" />
    <glyph glyph-name="udieresis" unicode="&#xfc;" horiz-adv-x="572" 
d="M36 268c12 34 24.832 64.334 38.499 91.001s30.334 49.5 50.001 68.5s39.834 28.5 60.501 28.5c18 0 33.167 -8 45.5 -24s18.5 -40 18.5 -72c0 -14.667 -2 -32 -6 -52s-8.66699 -36.667 -14 -50l-64 -149c-10.667 -23.333 -16 -43 -16 -59c0 -21.333 7.33301 -32 22 -32
c40.667 0 83 37.667 127 113c26.667 44.667 50.334 89.5 71.001 134.5s35.667 82.5 45 112.5l20 66h66l-84 -310c-10 -40 -15 -68.333 -15 -85c0 -18 6.33301 -27 19 -27c13.333 0 27 8.33301 41 25s26.333 36.334 37 59.001s20.667 48 30 76l20 -6
c-44 -125.333 -93 -188 -147 -188c-38.667 0 -58 34 -58 102c0 13.333 3.16699 33.833 9.5 61.5s11.833 47.5 16.5 59.5l-3 3c-2.66699 -4 -8.33398 -14.5 -17.001 -31.5s-16 -30.833 -22 -41.5s-14.333 -24.5 -25 -41.5s-21 -31.167 -31 -42.5s-21 -22.833 -33 -34.5
s-24.333 -20.334 -37 -26.001s-25.667 -8.5 -39 -8.5c-20 0 -35.833 8.16699 -47.5 24.5s-17.5 40.166 -17.5 71.499c0 14.667 2.16699 32.334 6.5 53.001s8.83301 37 13.5 49l64 149c10.667 23.333 16 43 16 59c0 9.33301 -1.83301 17 -5.5 23s-9.5 9 -17.5 9
c-12 0 -24.333 -5.83301 -37 -17.5s-24.334 -27 -35.001 -46s-19.5 -36.333 -26.5 -52s-13.5 -31.834 -19.5 -48.501zM415.999 596.001c0 14.667 5 27 15 37s22.333 15 37 15s27 -5 37 -15s15 -22.333 15 -37s-5 -27 -15 -37s-22.333 -15 -37 -15s-27 5 -37 15
s-15 22.333 -15 37zM227.999 596.001c0 14.667 5 27 15 37s22.333 15 37 15s27 -5 37 -15s15 -22.333 15 -37s-5 -27 -15 -37s-22.333 -15 -37 -15s-27 5 -37 15s-15 22.333 -15 37z" />
    <glyph glyph-name="yacute" unicode="&#xfd;" horiz-adv-x="512" 
d="M24 -150c0 18.667 5.32812 33.3291 15.9951 43.9961s23.334 16 38.001 16c13.333 0 23.333 -4 30 -12s10 -17.333 10 -28c0 -16.667 -6.33301 -30 -19 -40c-6 -5.33301 -9 -12.666 -9 -21.999c0 -21.333 14.333 -32 43 -32c23.333 0 43.333 3.83301 60 11.5
s33.334 21.834 50.001 42.501c24.667 30.667 46.667 82 66 154l43 161l-6 2c-21.333 -43.333 -48 -80.666 -80 -111.999s-62.667 -47 -92 -47c-22 0 -40.333 8.33301 -55 25s-22 40.334 -22 71.001c0 14.667 2.16699 32.334 6.5 53.001s8.83301 37 13.5 49l64 149
c10.667 23.333 16 43 16 59c0 9.33301 -1.83301 17 -5.5 23s-9.5 9 -17.5 9c-12 0 -24.333 -5.83301 -37 -17.5s-24.334 -27 -35.001 -46s-19.5 -36.333 -26.5 -52s-13.5 -31.834 -19.5 -48.501l-20 6c12 34 24.833 64.333 38.5 91s30.334 49.5 50.001 68.5
s39.834 28.5 60.501 28.5c18 0 33.167 -8 45.5 -24s18.5 -40 18.5 -72c0 -14.667 -2 -32 -6 -52s-8.66699 -36.667 -14 -50l-64 -149c-10.667 -23.333 -16 -43 -16 -59c0 -25.333 11.667 -38 35 -38c18.667 0 39.334 10.5 62.001 31.5s44 47.333 64 79
s38.167 65.5 54.5 101.5s28.833 69.333 37.5 100l33 120h66l-118 -444c-7.33301 -28.667 -19.666 -60.5 -36.999 -95.5s-38.333 -65.167 -63 -90.5c-20.667 -22 -43.5 -37.833 -68.5 -47.5s-48.5 -14.5 -70.5 -14.5c-36 0 -65 8.66699 -87 26s-33 41.333 -33 72z
M329.995 519.995l106 123c15.333 18 31.333 27 48 27c10 0 17.167 -2.83301 21.5 -8.5s6.5 -12.5 6.5 -20.5c0 -16.667 -10.667 -32 -32 -46l-138 -87z" />
    <glyph glyph-name="thorn" unicode="&#xfe;" horiz-adv-x="540" 
d="M200 104c0 -29.333 6 -52.001 18 -68.001s28.333 -24 49 -24c11.333 0 22.333 3.66699 33 11s20.667 16.833 30 28.5s17.5 23.334 24.5 35.001s13.5 24.167 19.5 37.5c17.333 37.333 31 77 41 119s15 80.667 15 116c0 19.333 -3.66699 36.333 -11 51s-19 22 -35 22
c-24 0 -47.667 -12.333 -71 -37s-44.333 -58.334 -63 -101.001c-13.333 -30.667 -25 -64.167 -35 -100.5s-15 -66.166 -15 -89.499zM-75 -232.001l8.00098 28h74c8 0 14 1.66699 18 5s7 9 9 17l229 848c2 8 1.66699 13.667 -1 17s-7.66699 5 -15 5h-88l7 24h177l-105 -385
l4 -2c5.33301 12.667 12.666 25.667 21.999 39s20.333 27.333 33 42s27.334 26.667 44.001 36s33 14 49 14c35.333 0 62.833 -12.5 82.5 -37.5s29.5 -58.167 29.5 -99.5c0 -40.667 -6 -80 -18 -118s-25.667 -68.667 -41 -92c-23.333 -36.667 -50.5 -66 -81.5 -88
s-62.5 -33 -94.5 -33c-20.667 0 -39.334 7.16699 -56.001 21.5s-28.667 36.5 -36 66.5l-4 2l-69 -260c-2 -8 -2 -13.667 0 -17s7 -5 15 -5h122l-8 -28h-306z" />
    <glyph glyph-name="ydieresis" unicode="&#xff;" horiz-adv-x="512" 
d="M24 -150c0 18.667 5.32812 33.3291 15.9951 43.9961s23.334 16 38.001 16c13.333 0 23.333 -4 30 -12s10 -17.333 10 -28c0 -16.667 -6.33301 -30 -19 -40c-6 -5.33301 -9 -12.666 -9 -21.999c0 -21.333 14.333 -32 43 -32c23.333 0 43.333 3.83301 60 11.5
s33.334 21.834 50.001 42.501c24.667 30.667 46.667 82 66 154l43 161l-6 2c-21.333 -43.333 -48 -80.666 -80 -111.999s-62.667 -47 -92 -47c-22 0 -40.333 8.33301 -55 25s-22 40.334 -22 71.001c0 14.667 2.16699 32.334 6.5 53.001s8.83301 37 13.5 49l64 149
c10.667 23.333 16 43 16 59c0 9.33301 -1.83301 17 -5.5 23s-9.5 9 -17.5 9c-12 0 -24.333 -5.83301 -37 -17.5s-24.334 -27 -35.001 -46s-19.5 -36.333 -26.5 -52s-13.5 -31.834 -19.5 -48.501l-20 6c12 34 24.833 64.333 38.5 91s30.334 49.5 50.001 68.5
s39.834 28.5 60.501 28.5c18 0 33.167 -8 45.5 -24s18.5 -40 18.5 -72c0 -14.667 -2 -32 -6 -52s-8.66699 -36.667 -14 -50l-64 -149c-10.667 -23.333 -16 -43 -16 -59c0 -25.333 11.667 -38 35 -38c18.667 0 39.334 10.5 62.001 31.5s44 47.333 64 79
s38.167 65.5 54.5 101.5s28.833 69.333 37.5 100l33 120h66l-118 -444c-7.33301 -28.667 -19.666 -60.5 -36.999 -95.5s-38.333 -65.167 -63 -90.5c-20.667 -22 -43.5 -37.833 -68.5 -47.5s-48.5 -14.5 -70.5 -14.5c-36 0 -65 8.66699 -87 26s-33 41.333 -33 72z
M411.995 595.995c0 14.667 5 27 15 37s22.333 15 37 15s27 -5 37 -15s15 -22.333 15 -37s-5 -27 -15 -37s-22.333 -15 -37 -15s-27 5 -37 15s-15 22.333 -15 37zM223.995 595.995c0 14.667 5 27 15 37s22.333 15 37 15s27 -5 37 -15s15 -22.333 15 -37s-5 -27 -15 -37
s-22.333 -15 -37 -15s-27 5 -37 15s-15 22.333 -15 37z" />
    <glyph glyph-name="dotlessi" unicode="&#x131;" horiz-adv-x="334" 
d="M36 268c18.667 53.333 40.8369 98.001 66.5039 134.001s53.5 54 83.5 54c17.333 0 32.166 -8.33301 44.499 -25s18.5 -40.334 18.5 -71.001c0 -14.667 -2.16699 -32.334 -6.5 -53.001s-8.83301 -37 -13.5 -49l-64 -149c-10.667 -23.333 -16 -43 -16 -59
c0 -9.33301 1.83301 -17 5.5 -23s9.5 -9 17.5 -9c12 0 24.333 5.83301 37 17.5s24.334 27 35.001 46s19.5 36.333 26.5 52s13.5 31.834 19.5 48.501l20 -6c-12 -34 -24.833 -64.333 -38.5 -91s-30.334 -49.5 -50.001 -68.5s-39.834 -28.5 -60.501 -28.5
c-18 0 -33.167 8 -45.5 24s-18.5 40 -18.5 72c0 14.667 2 32 6 52s8.66699 36.667 14 50l64 149c10.667 23.333 16 43 16 59c0 21.333 -7.33301 32 -22 32c-12.667 0 -25.334 -5.83301 -38.001 -17.5s-24.334 -27 -35.001 -46s-19.5 -36.5 -26.5 -52.5s-13.5 -32 -19.5 -48z
" />
    <glyph glyph-name="circumflex" unicode="&#x2c6;" 
d="M178 521c59.333 31.333 110 81.666 152 150.999h40c6 -69.333 29.333 -119.666 70 -150.999l-12 -13c-40 24 -72.333 54.667 -97 92c-47.333 -38 -96.333 -68.667 -147 -92z" />
    <glyph glyph-name="dotaccent" unicode="&#x2d9;" 
d="M280 596c0 14.667 5 27 15 37s22.333 15 37 15s27 -5 37 -15s15 -22.333 15 -37s-5 -27 -15 -37s-22.333 -15 -37 -15s-27 5 -37 15s-15 22.333 -15 37z" />
    <glyph glyph-name="ring" unicode="&#x2da;" 
d="M234 598c0 26.667 9.33301 49.334 28 68.001s41.667 28 69 28s50.333 -9.33301 69 -28s28 -41.334 28 -68.001s-9.33301 -49.667 -28 -69s-41.667 -29 -69 -29s-50.333 9.66699 -69 29s-28 42.333 -28 69zM258 598c0 -21.333 7 -39 21 -53s31.333 -21 52 -21s38 7 52 21
s21 31.667 21 53s-7 38.666 -21 51.999s-31.333 20 -52 20s-38 -6.66699 -52 -20s-21 -30.666 -21 -51.999z" />
    <glyph glyph-name="tilde" unicode="&#x2dc;" 
d="M198 556c0 26 7 48.167 21 66.5s33.667 27.5 59 27.5c17.333 0 34 -3.33301 50 -10l46 -20c14.667 -6.66699 28.667 -10 42 -10c11.333 0 19.5 3.33301 24.5 10s8.83301 16.667 11.5 30h22c0 -26 -7 -48.167 -21 -66.5s-33.667 -27.5 -59 -27.5
c-17.333 0 -34 3.33301 -50 10l-46 20c-14.667 6.66699 -28.667 10 -42 10c-11.333 0 -19.5 -3.33301 -24.5 -10s-8.83301 -16.667 -11.5 -30h-22z" />
    <glyph glyph-name="mugreek" unicode="&#x3bc;" horiz-adv-x="572" 
d="M30 -182c0 92.667 17.332 201.335 51.999 326.002l84 300h66l-54 -200c-12.667 -66.667 -19 -109.334 -19 -128.001c0 -61.333 16.333 -92 49 -92c28 0 54.333 16.333 79 49s43.667 73 57 121l68 250h68l-92 -343c-4.66699 -16.667 -7 -29.667 -7 -39
c0 -5.33301 0.333008 -10 1 -14s1.83398 -8 3.50098 -12s4.83398 -7 9.50098 -9s10 -3 16 -3c30.667 0 72.667 50.667 126 152l15 -9c-8 -16.667 -15.333 -31.334 -22 -44.001s-16 -28 -28 -46s-23.667 -33 -35 -45s-24.5 -22.333 -39.5 -31s-29.833 -13 -44.5 -13
c-20.667 0 -36.834 7.16699 -48.501 21.5s-17.5 31.833 -17.5 52.5c0 8 1 15.333 3 22l-7 2c-39.333 -65.333 -80.666 -98 -123.999 -98c-26 0 -46.667 11 -62 33s-23 47.333 -23 76l-7 3l-18 -85c-2.66699 -12.667 -4 -25.667 -4 -39c0 -36 3.16699 -66.167 9.5 -90.5
s15.166 -47.833 26.499 -70.5c11.333 -23.333 17 -42 17 -56c0 -11.333 -3 -21 -9 -29s-15 -12 -27 -12c-14 0 -25.833 5.5 -35.5 16.5s-16.5 23.667 -20.5 38s-6 29.5 -6 45.5z" />
    <glyph glyph-name="endash" unicode="&#x2013;" horiz-adv-x="620" 
d="M84 244v36h500v-36h-500z" />
    <glyph glyph-name="emdash" unicode="&#x2014;" horiz-adv-x="1000" 
d="M92 234v36h880v-36h-880z" />
    <glyph glyph-name="quoteleft" unicode="&#x2018;" horiz-adv-x="280" 
d="M148 503c0 27.333 4 53.001 12 77.001s17.833 44 29.5 60s25.167 30.667 40.5 44s28.833 23.333 40.5 30s22.834 12 33.501 16l8 -16c-14.667 -7.33301 -28.334 -15.5 -41.001 -24.5s-25.667 -19.667 -39 -32s-23.833 -26.333 -31.5 -42s-11.5 -31.834 -11.5 -48.501
c0 -10 3 -17.667 9 -23c5.33301 -4.66699 15 -7 29 -7s25.333 -5.16699 34 -15.5s13 -22.5 13 -36.5c0 -19.333 -5.66699 -34.666 -17 -45.999s-26 -17 -44 -17c-20.667 0 -36.667 8.66699 -48 26s-17 35.666 -17 54.999z" />
    <glyph glyph-name="quoteright" unicode="&#x2019;" horiz-adv-x="280" 
d="M144 438c14.667 7.33301 28.334 15.499 41.001 24.499s25.667 19.667 39 32s23.833 26.333 31.5 42s11.5 31.834 11.5 48.501c0 10 -3 17.667 -9 23c-5.33301 4.66699 -15 7 -29 7s-25.333 5.16699 -34 15.5s-13 22.5 -13 36.5c0 19.333 5.66699 34.666 17 45.999
s26 17 44 17c20.667 0 36.667 -8.66699 48 -26s17 -35.666 17 -54.999c0 -27.333 -4 -53 -12 -77s-17.833 -44 -29.5 -60s-25.167 -30.667 -40.5 -44s-28.833 -23.333 -40.5 -30s-22.834 -12 -33.501 -16z" />
    <glyph glyph-name="quotesinglbase" unicode="&#x201a;" horiz-adv-x="280" 
d="M22 -152c14.667 7.33301 28.334 15.499 41.001 24.499s25.667 19.667 39 32s23.833 26.333 31.5 42s11.5 31.834 11.5 48.501c0 10 -3 17.667 -9 23c-5.33301 4.66699 -15 7 -29 7s-25.333 5.16699 -34 15.5s-13 22.5 -13 36.5c0 19.333 5.66699 34.666 17 45.999
s26 17 44 17c20.667 0 36.667 -8.66699 48 -26s17 -35.666 17 -54.999c0 -27.333 -4 -53 -12 -77s-17.833 -44 -29.5 -60s-25.167 -30.667 -40.5 -44s-28.833 -23.333 -40.5 -30s-22.834 -12 -33.501 -16z" />
    <glyph glyph-name="quotedblleft" unicode="&#x201c;" 
d="M148 503c0 27.333 4 53.001 12 77.001s17.833 44 29.5 60s25.167 30.667 40.5 44s28.833 23.333 40.5 30s22.834 12 33.501 16l8 -16c-14.667 -7.33301 -28.334 -15.5 -41.001 -24.5s-25.667 -19.667 -39 -32s-23.833 -26.333 -31.5 -42s-11.5 -31.834 -11.5 -48.501
c0 -10 3 -17.667 9 -23c5.33301 -4.66699 15 -7 29 -7s25.333 -5.16699 34 -15.5s13 -22.5 13 -36.5c0 -19.333 -5.66699 -34.666 -17 -45.999s-26 -17 -44 -17c-20.667 0 -36.667 8.66699 -48 26s-17 35.666 -17 54.999zM308 503.001c0 27.333 4 53.001 12 77.001
s17.833 44 29.5 60s25.167 30.667 40.5 44s28.833 23.333 40.5 30s22.834 12 33.501 16l8 -16c-14.667 -7.33301 -28.334 -15.5 -41.001 -24.5s-25.667 -19.667 -39 -32s-23.833 -26.333 -31.5 -42s-11.5 -31.834 -11.5 -48.501c0 -10 3 -17.667 9 -23
c5.33301 -4.66699 15 -7 29 -7s25.333 -5.16699 34 -15.5s13 -22.5 13 -36.5c0 -19.333 -5.66699 -34.666 -17 -45.999s-26 -17 -44 -17c-20.667 0 -36.667 8.66699 -48 26s-17 35.666 -17 54.999z" />
    <glyph glyph-name="quotedblright" unicode="&#x201d;" 
d="M144 438c14.667 7.33301 28.334 15.499 41.001 24.499s25.667 19.667 39 32s23.833 26.333 31.5 42s11.5 31.834 11.5 48.501c0 10 -3 17.667 -9 23c-5.33301 4.66699 -15 7 -29 7s-25.333 5.16699 -34 15.5s-13 22.5 -13 36.5c0 19.333 5.66699 34.666 17 45.999
s26 17 44 17c20.667 0 36.667 -8.66699 48 -26s17 -35.666 17 -54.999c0 -27.333 -4 -53 -12 -77s-17.833 -44 -29.5 -60s-25.167 -30.667 -40.5 -44s-28.833 -23.333 -40.5 -30s-22.834 -12 -33.501 -16zM304 437.999c14.667 7.33301 28.334 15.499 41.001 24.499
s25.667 19.667 39 32s23.833 26.333 31.5 42s11.5 31.834 11.5 48.501c0 10 -3 17.667 -9 23c-5.33301 4.66699 -15 7 -29 7s-25.333 5.16699 -34 15.5s-13 22.5 -13 36.5c0 19.333 5.66699 34.666 17 45.999s26 17 44 17c20.667 0 36.667 -8.66699 48 -26
s17 -35.666 17 -54.999c0 -27.333 -4 -53 -12 -77s-17.833 -44 -29.5 -60s-25.167 -30.667 -40.5 -44s-28.833 -23.333 -40.5 -30s-22.834 -12 -33.501 -16z" />
    <glyph glyph-name="quotedblbase" unicode="&#x201e;" 
d="M22 -152c14.667 7.33301 28.334 15.499 41.001 24.499s25.667 19.667 39 32s23.833 26.333 31.5 42s11.5 31.834 11.5 48.501c0 10 -3 17.667 -9 23c-5.33301 4.66699 -15 7 -29 7s-25.333 5.16699 -34 15.5s-13 22.5 -13 36.5c0 19.333 5.66699 34.666 17 45.999
s26 17 44 17c20.667 0 36.667 -8.66699 48 -26s17 -35.666 17 -54.999c0 -27.333 -4 -53 -12 -77s-17.833 -44 -29.5 -60s-25.167 -30.667 -40.5 -44s-28.833 -23.333 -40.5 -30s-22.834 -12 -33.501 -16zM174 -152.001c14.667 7.33301 28.334 15.499 41.001 24.499
s25.667 19.667 39 32s23.833 26.333 31.5 42s11.5 31.834 11.5 48.501c0 10 -3 17.667 -9 23c-5.33301 4.66699 -15 7 -29 7s-25.333 5.16699 -34 15.5s-13 22.5 -13 36.5c0 19.333 5.66699 34.666 17 45.999s26 17 44 17c20.667 0 36.667 -8.66699 48 -26
s17 -35.666 17 -54.999c0 -27.333 -4 -53 -12 -77s-17.833 -44 -29.5 -60s-25.167 -30.667 -40.5 -44s-28.833 -23.333 -40.5 -30s-22.834 -12 -33.501 -16z" />
    <glyph glyph-name="bullet" unicode="&#x2022;" horiz-adv-x="500" 
d="M176 354c0 32 11 59 33 81s49 33 81 33s59 -11 81 -33s33 -49 33 -81s-11 -59 -33 -81s-49 -33 -81 -33s-59 11 -81 33s-33 49 -33 81z" />
    <glyph glyph-name="guilsinglleft" unicode="&#x2039;" horiz-adv-x="330" 
d="M54 228c13.333 9.33301 26.834 19.668 40.501 31.001l35 29.5l40 35l37 33l44.5 40.5c22 20 36.667 33.667 44 41l11 -10l-162 -200l54 -200l-17 -10l-22.5 40.5c-11 19.667 -18.333 33.167 -22 40.5s-9.83398 18.5 -18.501 33.5s-15.667 26.667 -21 35l-19.5 29.5
c-7.66699 11.333 -15.5 21.666 -23.5 30.999z" />
    <glyph glyph-name="guilsinglright" unicode="&#x203a;" horiz-adv-x="330" 
d="M32 28l161.999 199.998l-54 200l17 10l22.5 -40.5c11 -19.667 18.333 -33.167 22 -40.5s9.83398 -18.5 18.501 -33.5s15.667 -26.667 21 -35l19.5 -29.5c7.66699 -11.333 15.5 -21.666 23.5 -30.999c-13.333 -9.33301 -26.833 -19.666 -40.5 -30.999l-35 -29.5l-40 -35
l-37 -33l-44.5 -40.5c-22 -20 -36.667 -33.667 -44 -41z" />
    <glyph glyph-name="foursuperior" unicode="&#x2074;" 
d="M108 392l8.00098 25.999l130 121c26 24.667 47.833 51 65.5 79s28.167 54 31.5 78h72c-5.33301 -20 -12.833 -37.667 -22.5 -53s-27.167 -34.333 -52.5 -57l-188 -168h123l29 100c33.333 20.667 57.666 48.334 72.999 83.001h11l-48 -183h100l-8 -26h-100l-19 -72
c-2 -6 -2.33301 -10.167 -1 -12.5s5 -3.5 11 -3.5h59l-6 -24h-212l6 24h57c11.333 0 18.333 5.33301 21 16l20 72h-160z" />
    <glyph glyph-name="uni2215" unicode="&#x2215;" horiz-adv-x="558" 
d="M56 0l440 702l26 -18l-440 -702z" />
    <glyph glyph-name="Ring" unicode="&#xeff3;" 
d="M278 852c0 26.667 9.33301 49.334 28 68.001s41.667 28 69 28s50.333 -9.33301 69 -28s28 -41.334 28 -68.001s-9.33301 -49.667 -28 -69s-41.667 -29 -69 -29s-50.333 9.66699 -69 29s-28 42.333 -28 69zM302 852c0 -21.333 7 -39 21 -53s31.333 -21 52 -21s38 7 52 21
s21 31.667 21 53s-7 38.666 -21 51.999s-31.333 20 -52 20s-38 -6.66699 -52 -20s-21 -30.666 -21 -51.999z" />
    <glyph glyph-name="Tilde" unicode="&#xeff5;" 
d="M250 810c0 26 7 48.167 21 66.5s33.667 27.5 59 27.5c21.333 0 49.666 -6.66699 84.999 -20s61 -20 77 -20c11.333 0 19.5 3.33301 24.5 10s8.83301 16.667 11.5 30h22c0 -26 -7 -48.167 -21 -66.5s-33.667 -27.5 -59 -27.5c-21.333 0 -49.666 6.66699 -84.999 20
s-61 20 -77 20c-11.333 0 -19.5 -3.33301 -24.5 -10s-8.83301 -16.667 -11.5 -30h-22z" />
    <glyph glyph-name="Circumflex" unicode="&#xeff7;" 
d="M218 778c70.667 34.667 129.333 82 176 142h40c16 -60 49.333 -107.333 100 -142l-14 -16c-16 6 -36.5 18.833 -61.5 38.5s-45.167 38.834 -60.5 57.501c-26.667 -18.667 -57.667 -37.834 -93 -57.501s-62.333 -32.5 -81 -38.5z" />
    <glyph glyph-name="Acute" unicode="&#xf6c9;" 
d="M360 774l106 123c15.333 18 31.333 27 48 27c18.667 0 28 -9.66699 28 -29c0 -18 -10.667 -33.333 -32 -46l-138 -87z" />
    <glyph glyph-name="Dieresis" unicode="&#xf6cb;" 
d="M450 850c0 14.667 5 27 15 37s22.333 15 37 15s27 -5 37 -15s15 -22.333 15 -37s-5 -27 -15 -37s-22.333 -15 -37 -15s-27 5 -37 15s-15 22.333 -15 37zM246 850c0 14.667 5 27 15 37s22.333 15 37 15s27 -5 37 -15s15 -22.333 15 -37s-5 -27 -15 -37
s-22.333 -15 -37 -15s-27 5 -37 15s-15 22.333 -15 37z" />
    <glyph glyph-name="Grave" unicode="&#xf6ce;" 
d="M266 895c0 4.66699 0.666992 9.33203 2 13.999s5 9.33398 11 14.001s13.333 7 22 7c19.333 0 33.333 -12.333 42 -37l41 -122l-15 -9l-88 97c-10 11.333 -15 23.333 -15 36z" />
    <glyph glyph-name=".null" horiz-adv-x="0" 
 />
    <glyph glyph-name="nonmarkingreturn" horiz-adv-x="1000" 
 />
    </font>
</defs>
</svg>
